<svg width="110" height="50" viewBox="0 0 110 50" fill="none" xmlns="http://www.w3.org/2000/svg">
<rect x="0.5" y="0.5" width="109" height="49" rx="5.5" fill="#4CAF50" fill-opacity="0.11" stroke="#036A07"/>
<path d="M26 20C23.9288 20 22.25 21.1187 22.25 22.5C22.25 23.8813 23.9288 25 26 25C28.0712 25 29.75 26.1187 29.75 27.5C29.75 28.8813 28.0712 30 26 30M26 20C27.3875 20 28.6 20.5025 29.2487 21.25M26 20V18.75M26 20V30M26 30V31.25M26 30C24.6125 30 23.4 29.4975 22.7513 28.75M37.25 25C37.25 26.4774 36.959 27.9403 36.3936 29.3052C35.8283 30.6701 34.9996 31.9103 33.955 32.955C32.9103 33.9996 31.6701 34.8283 30.3052 35.3936C28.9403 35.959 27.4774 36.25 26 36.25C24.5226 36.25 23.0597 35.959 21.6948 35.3936C20.3299 34.8283 19.0897 33.9996 18.045 32.955C17.0004 31.9103 16.1717 30.6701 15.6064 29.3052C15.041 27.9403 14.75 26.4774 14.75 25C14.75 22.0163 15.9353 19.1548 18.045 17.045C20.1548 14.9353 23.0163 13.75 26 13.75C28.9837 13.75 31.8452 14.9353 33.955 17.045C36.0647 19.1548 37.25 22.0163 37.25 25Z" stroke="#036A07" stroke-width="2" stroke-linecap="round" stroke-linejoin="round"/>
<path d="M63.2607 14.1818V36H58.6477V18.5604H58.5199L53.5234 21.6925V17.6016L58.9247 14.1818H63.2607ZM77.0009 36.4794C75.1685 36.4723 73.5918 36.0213 72.2708 35.1264C70.9569 34.2315 69.9448 32.9354 69.2346 31.2379C68.5314 29.5405 68.1834 27.4986 68.1905 25.1122C68.1905 22.733 68.5421 20.7053 69.2452 19.0291C69.9554 17.353 70.9675 16.0781 72.2814 15.2045C73.6025 14.3239 75.1756 13.8835 77.0009 13.8835C78.8262 13.8835 80.3958 14.3239 81.7097 15.2045C83.0307 16.0852 84.0463 17.3636 84.7566 19.0398C85.4668 20.7088 85.8184 22.733 85.8113 25.1122C85.8113 27.5057 85.4561 29.5511 84.7459 31.2486C84.0428 32.946 83.0343 34.2422 81.7203 35.1371C80.4064 36.032 78.8333 36.4794 77.0009 36.4794ZM77.0009 32.6548C78.2509 32.6548 79.2488 32.0263 79.9945 30.7692C80.7402 29.5121 81.1096 27.6264 81.1025 25.1122C81.1025 23.4574 80.932 22.0795 80.5911 20.9787C80.2573 19.8778 79.7814 19.0504 79.1635 18.4964C78.5527 17.9425 77.8319 17.6655 77.0009 17.6655C75.758 17.6655 74.7637 18.2869 74.0179 19.5298C73.2722 20.7727 72.8958 22.6335 72.8887 25.1122C72.8887 26.7884 73.0556 28.1875 73.3894 29.3097C73.7303 30.4247 74.2097 31.2628 74.8276 31.8239C75.4455 32.3778 76.1699 32.6548 77.0009 32.6548Z" fill="#036A07"/>
</svg>
