<svg width="110" height="50" viewBox="0 0 110 50" fill="none" xmlns="http://www.w3.org/2000/svg">
<rect x="0.5" y="0.5" width="109" height="49" rx="5.5" fill="#4CAF50" fill-opacity="0.11" stroke="#036A07"/>
<path d="M26 20C23.9288 20 22.25 21.1187 22.25 22.5C22.25 23.8813 23.9288 25 26 25C28.0712 25 29.75 26.1187 29.75 27.5C29.75 28.8813 28.0712 30 26 30M26 20C27.3875 20 28.6 20.5025 29.2487 21.25M26 20V18.75M26 20V30M26 30V31.25M26 30C24.6125 30 23.4 29.4975 22.7513 28.75M37.25 25C37.25 26.4774 36.959 27.9403 36.3936 29.3052C35.8283 30.6701 34.9996 31.9103 33.955 32.955C32.9103 33.9996 31.6701 34.8283 30.3052 35.3936C28.9403 35.959 27.4774 36.25 26 36.25C24.5226 36.25 23.0597 35.959 21.6948 35.3936C20.3299 34.8283 19.0897 33.9996 18.045 32.955C17.0004 31.9103 16.1717 30.6701 15.6064 29.3052C15.041 27.9403 14.75 26.4774 14.75 25C14.75 22.0163 15.9353 19.1548 18.045 17.045C20.1548 14.9353 23.0163 13.75 26 13.75C28.9837 13.75 31.8452 14.9353 33.955 17.045C36.0647 19.1548 37.25 22.0163 37.25 25Z" stroke="#036A07" stroke-width="2" stroke-linecap="round" stroke-linejoin="round"/>
<path d="M56.2607 14.1818V36H51.6477V18.5604H51.5199L46.5234 21.6925V17.6016L51.9247 14.1818H56.2607ZM70.0009 36.4794C68.1685 36.4723 66.5918 36.0213 65.2708 35.1264C63.9569 34.2315 62.9448 32.9354 62.2346 31.2379C61.5314 29.5405 61.1834 27.4986 61.1905 25.1122C61.1905 22.733 61.5421 20.7053 62.2452 19.0291C62.9554 17.353 63.9675 16.0781 65.2814 15.2045C66.6025 14.3239 68.1756 13.8835 70.0009 13.8835C71.8262 13.8835 73.3958 14.3239 74.7097 15.2045C76.0307 16.0852 77.0463 17.3636 77.7566 19.0398C78.4668 20.7088 78.8184 22.733 78.8113 25.1122C78.8113 27.5057 78.4561 29.5511 77.7459 31.2486C77.0428 32.946 76.0343 34.2422 74.7203 35.1371C73.4064 36.032 71.8333 36.4794 70.0009 36.4794ZM70.0009 32.6548C71.2509 32.6548 72.2488 32.0263 72.9945 30.7692C73.7402 29.5121 74.1096 27.6264 74.1025 25.1122C74.1025 23.4574 73.932 22.0795 73.5911 20.9787C73.2573 19.8778 72.7814 19.0504 72.1635 18.4964C71.5527 17.9425 70.8319 17.6655 70.0009 17.6655C68.758 17.6655 67.7637 18.2869 67.0179 19.5298C66.2722 20.7727 65.8958 22.6335 65.8887 25.1122C65.8887 26.7884 66.0556 28.1875 66.3894 29.3097C66.7303 30.4247 67.2097 31.2628 67.8276 31.8239C68.4455 32.3778 69.1699 32.6548 70.0009 32.6548ZM90.6552 36.4794C88.8228 36.4723 87.2461 36.0213 85.9251 35.1264C84.6112 34.2315 83.5991 32.9354 82.8888 31.2379C82.1857 29.5405 81.8377 27.4986 81.8448 25.1122C81.8448 22.733 82.1964 20.7053 82.8995 19.0291C83.6097 17.353 84.6218 16.0781 85.9357 15.2045C87.2567 14.3239 88.8299 13.8835 90.6552 13.8835C92.4805 13.8835 94.0501 14.3239 95.364 15.2045C96.685 16.0852 97.7006 17.3636 98.4109 19.0398C99.1211 20.7088 99.4727 22.733 99.4656 25.1122C99.4656 27.5057 99.1104 29.5511 98.4002 31.2486C97.6971 32.946 96.6886 34.2422 95.3746 35.1371C94.0607 36.032 92.4876 36.4794 90.6552 36.4794ZM90.6552 32.6548C91.9052 32.6548 92.9031 32.0263 93.6488 30.7692C94.3945 29.5121 94.7638 27.6264 94.7567 25.1122C94.7567 23.4574 94.5863 22.0795 94.2454 20.9787C93.9116 19.8778 93.4357 19.0504 92.8178 18.4964C92.207 17.9425 91.4862 17.6655 90.6552 17.6655C89.4123 17.6655 88.418 18.2869 87.6722 19.5298C86.9265 20.7727 86.5501 22.6335 86.543 25.1122C86.543 26.7884 86.7099 28.1875 87.0437 29.3097C87.3846 30.4247 87.864 31.2628 88.4819 31.8239C89.0998 32.3778 89.8242 32.6548 90.6552 32.6548Z" fill="#036A07"/>
</svg>
