<svg width="91" height="60" viewBox="0 0 91 60" fill="none" xmlns="http://www.w3.org/2000/svg">
<circle cx="61" cy="30" r="29.5" fill="#4CAF50" fill-opacity="0.15" stroke="#036A07"/>
<path d="M47.1939 37.2876C46.0945 37.2834 45.1484 37.0128 44.3558 36.4759C43.5675 35.9389 42.9602 35.1612 42.5341 34.1428C42.1122 33.1243 41.9034 31.8991 41.9077 30.4673C41.9077 29.0398 42.1186 27.8232 42.5405 26.8175C42.9666 25.8118 43.5739 25.0469 44.3622 24.5227C45.1548 23.9943 46.0987 23.7301 47.1939 23.7301C48.2891 23.7301 49.2308 23.9943 50.0192 24.5227C50.8118 25.0511 51.4212 25.8182 51.8473 26.8239C52.2734 27.8253 52.4844 29.0398 52.4801 30.4673C52.4801 31.9034 52.267 33.1307 51.8409 34.1491C51.419 35.1676 50.8139 35.9453 50.0256 36.4822C49.2372 37.0192 48.2933 37.2876 47.1939 37.2876ZM47.1939 34.9929C47.9439 34.9929 48.5426 34.6158 48.9901 33.8615C49.4375 33.1072 49.6591 31.9759 49.6548 30.4673C49.6548 29.4744 49.5526 28.6477 49.348 27.9872C49.1477 27.3267 48.8622 26.8303 48.4915 26.4979C48.125 26.1655 47.6925 25.9993 47.1939 25.9993C46.4482 25.9993 45.8516 26.3722 45.4041 27.1179C44.9567 27.8636 44.7308 28.9801 44.7266 30.4673C44.7266 31.473 44.8267 32.3125 45.027 32.9858C45.2315 33.6548 45.5192 34.1577 45.8899 34.4943C46.2607 34.8267 46.6953 34.9929 47.1939 34.9929ZM55.5435 37.1662C55.1216 37.1662 54.7594 37.017 54.4569 36.7188C54.1586 36.4162 54.0094 36.054 54.0094 35.6321C54.0094 35.2145 54.1586 34.8565 54.4569 34.5582C54.7594 34.2599 55.1216 34.1108 55.5435 34.1108C55.9526 34.1108 56.3105 34.2599 56.6174 34.5582C56.9242 34.8565 57.0776 35.2145 57.0776 35.6321C57.0776 35.9134 57.0051 36.1712 56.8603 36.4055C56.7196 36.6357 56.5343 36.821 56.3042 36.9616C56.074 37.098 55.8205 37.1662 55.5435 37.1662ZM63.3482 23.9091V37H60.5804V26.5362H60.5037L57.5059 28.4155V25.9609L60.7466 23.9091H63.3482ZM71.5923 37.2876C70.4929 37.2834 69.5469 37.0128 68.7543 36.4759C67.9659 35.9389 67.3587 35.1612 66.9325 34.1428C66.5107 33.1243 66.3018 31.8991 66.3061 30.4673C66.3061 29.0398 66.517 27.8232 66.9389 26.8175C67.3651 25.8118 67.9723 25.0469 68.7607 24.5227C69.5533 23.9943 70.4972 23.7301 71.5923 23.7301C72.6875 23.7301 73.6293 23.9943 74.4176 24.5227C75.2102 25.0511 75.8196 25.8182 76.2457 26.8239C76.6719 27.8253 76.8828 29.0398 76.8786 30.4673C76.8786 31.9034 76.6655 33.1307 76.2393 34.1491C75.8175 35.1676 75.2124 35.9453 74.424 36.4822C73.6357 37.0192 72.6918 37.2876 71.5923 37.2876ZM71.5923 34.9929C72.3423 34.9929 72.9411 34.6158 73.3885 33.8615C73.8359 33.1072 74.0575 31.9759 74.0533 30.4673C74.0533 29.4744 73.951 28.6477 73.7464 27.9872C73.5462 27.3267 73.2607 26.8303 72.8899 26.4979C72.5234 26.1655 72.0909 25.9993 71.5923 25.9993C70.8466 25.9993 70.25 26.3722 69.8026 27.1179C69.3551 27.8636 69.1293 28.9801 69.125 30.4673C69.125 31.473 69.2251 32.3125 69.4254 32.9858C69.63 33.6548 69.9176 34.1577 70.2884 34.4943C70.6591 34.8267 71.0938 34.9929 71.5923 34.9929Z" fill="#036A07"/>
<path d="M3.15703 29C2.26355 30.3668 1.86767 31.9994 2.0359 33.6236C2.20412 35.2478 2.9262 36.7646 4.08082 37.9192C5.23545 39.0738 6.75227 39.7959 8.37646 39.9641C10.0007 40.1324 11.6333 39.7365 13 38.843M14 36C16.1218 36 18.1566 35.1571 19.6569 33.6569C21.1572 32.1566 22 30.1217 22 28C22 25.8783 21.1572 23.8434 19.6569 22.3431C18.1566 20.8429 16.1218 20 14 20C11.8783 20 9.84346 20.8429 8.34317 22.3431C6.84288 23.8434 6.00003 25.8783 6.00003 28C6.00003 30.1217 6.84288 32.1566 8.34317 33.6569C9.84346 35.1571 11.8783 36 14 36Z" stroke="#036A07" stroke-width="1.5" stroke-linecap="round" stroke-linejoin="round"/>
<path d="M15.771 26.2049C15.555 25.2929 14.455 24.4699 13.134 25.0849C11.813 25.7009 11.603 27.6829 13.601 27.8929C14.504 27.9879 15.093 27.7829 15.631 28.3639C16.171 28.9449 16.271 30.5619 14.893 30.9979C13.515 31.4339 12.151 30.7529 12.002 29.7859M13.986 24.0039V24.8739M13.986 31.1319V32.0039" stroke="#036A07" stroke-width="1.5" stroke-linecap="round" stroke-linejoin="round"/>
</svg>
