<svg width="100" height="50" viewBox="0 0 100 50" fill="none" xmlns="http://www.w3.org/2000/svg">
<path d="M0 2.77778C0 1.24365 1.24365 0 2.77778 0H97.2222C98.7563 0 100 1.24365 100 2.77778V47.2222C100 48.7563 98.7563 50 97.2222 50H2.77778C1.24365 50 0 48.7563 0 47.2222V2.77778Z" fill="#93ACA5"/>
<path d="M5.55556 5.55556H94.4444V44.4444H5.55556V5.55556Z" fill="#FFE9DD"/>
<path d="M97.2222 6.94444C97.2222 10.7798 94.1131 13.8889 90.2778 13.8889C86.4425 13.8889 83.3333 10.7798 83.3333 6.94444C83.3333 3.10913 86.4425 0 90.2778 0C94.1131 0 97.2222 3.10913 97.2222 6.94444Z" fill="#93ACA5"/>
<path d="M13.8889 6.94444C13.8889 10.7798 10.7798 13.8889 6.94444 13.8889C3.10913 13.8889 0 10.7798 0 6.94444C0 3.10913 3.10913 0 6.94444 0C10.7798 0 13.8889 3.10913 13.8889 6.94444Z" fill="#93ACA5"/>
<path d="M25 25C25 28.0682 22.5127 30.5556 19.4444 30.5556C16.3762 30.5556 13.8889 28.0682 13.8889 25C13.8889 21.9318 16.3762 19.4444 19.4444 19.4444C22.5127 19.4444 25 21.9318 25 25Z" fill="#93ACA5"/>
<path d="M46.0231 28.2611C46.0231 28.9231 45.8485 29.537 45.4994 30.1028C45.1624 30.6565 44.6568 31.1139 43.9828 31.475C43.3207 31.8241 42.5323 32.0167 41.6175 32.0528V33.5153H40.4619V32.0347C39.186 31.9264 38.1568 31.5472 37.3744 30.8972C36.592 30.2352 36.1768 29.3384 36.1286 28.2069H39.4147C39.4869 28.9292 39.836 29.3926 40.4619 29.5972V26.7444C39.5231 26.5037 38.7707 26.269 38.205 26.0403C37.6513 25.8116 37.1638 25.4444 36.7425 24.9389C36.3212 24.4333 36.1105 23.7412 36.1105 22.8625C36.1105 21.7671 36.5138 20.8884 37.3203 20.2264C38.1388 19.5644 39.186 19.1912 40.4619 19.1069V17.6444H41.6175V19.1069C42.8814 19.2032 43.8805 19.5704 44.6147 20.2083C45.349 20.8463 45.7582 21.731 45.8425 22.8625H42.5383C42.4661 22.2125 42.1592 21.7912 41.6175 21.5986V24.3972C42.6166 24.6741 43.3869 24.9208 43.9286 25.1375C44.4703 25.3542 44.9518 25.7153 45.3731 26.2208C45.8064 26.7143 46.0231 27.3944 46.0231 28.2611ZM39.3786 22.7181C39.3786 23.019 39.4689 23.2718 39.6494 23.4764C39.842 23.681 40.1129 23.8616 40.4619 24.0181V21.5083C40.1249 21.5685 39.8601 21.7009 39.6675 21.9056C39.4749 22.0981 39.3786 22.369 39.3786 22.7181ZM41.6175 29.6514C41.9786 29.5912 42.2615 29.4468 42.4661 29.2181C42.6828 28.9894 42.7911 28.7065 42.7911 28.3694C42.7911 28.0565 42.6888 27.8037 42.4842 27.6111C42.2916 27.4065 42.0027 27.2319 41.6175 27.0875V29.6514Z" fill="#93ACA5"/>
<path d="M47.1462 21.6347V18.7639H52.1476V31.9444H48.9337V21.6347H47.1462Z" fill="#93ACA5"/>
<path d="M53.718 25.1736C53.718 23.1032 54.1152 21.4722 54.9096 20.2806C55.7161 19.0889 57.0101 18.4931 58.7916 18.4931C60.5731 18.4931 61.861 19.0889 62.6555 20.2806C63.4619 21.4722 63.8652 23.1032 63.8652 25.1736C63.8652 27.2681 63.4619 28.9111 62.6555 30.1028C61.861 31.2944 60.5731 31.8903 58.7916 31.8903C57.0101 31.8903 55.7161 31.2944 54.9096 30.1028C54.1152 28.9111 53.718 27.2681 53.718 25.1736ZM60.8319 25.1736C60.8319 23.9579 60.6994 23.025 60.4346 22.375C60.1698 21.713 59.6221 21.3819 58.7916 21.3819C57.961 21.3819 57.4133 21.713 57.1485 22.375C56.8837 23.025 56.7513 23.9579 56.7513 25.1736C56.7513 25.9921 56.7994 26.6722 56.8957 27.2139C56.992 27.7435 57.1846 28.1769 57.4735 28.5139C57.7744 28.8389 58.2138 29.0014 58.7916 29.0014C59.3694 29.0014 59.8027 28.8389 60.0916 28.5139C60.3925 28.1769 60.5911 27.7435 60.6874 27.2139C60.7837 26.6722 60.8319 25.9921 60.8319 25.1736Z" fill="#93ACA5"/>
<path d="M86.1111 25C86.1111 28.0682 83.6238 30.5556 80.5555 30.5556C77.4873 30.5556 75 28.0682 75 25C75 21.9318 77.4873 19.4444 80.5555 19.4444C83.6238 19.4444 86.1111 21.9318 86.1111 25Z" fill="#93ACA5"/>
<path d="M97.2222 43.0556C97.2222 46.8909 94.1131 50 90.2778 50C86.4425 50 83.3333 46.8909 83.3333 43.0556C83.3333 39.2202 86.4425 36.1111 90.2778 36.1111C94.1131 36.1111 97.2222 39.2202 97.2222 43.0556Z" fill="#93ACA5"/>
<path d="M13.8889 43.0556C13.8889 46.8909 10.7798 50 6.94444 50C3.10913 50 0 46.8909 0 43.0556C0 39.2202 3.10913 36.1111 6.94444 36.1111C10.7798 36.1111 13.8889 39.2202 13.8889 43.0556Z" fill="#93ACA5"/>
</svg>
