<svg width="101" height="50" viewBox="0 0 101 50" fill="none" xmlns="http://www.w3.org/2000/svg">
<path d="M0.551758 2.77778C0.551758 1.24365 1.79541 0 3.32954 0H97.774C99.3081 0 100.552 1.24365 100.552 2.77778V47.2222C100.552 48.7563 99.3081 50 97.774 50H3.32954C1.79541 50 0.551758 48.7563 0.551758 47.2222V2.77778Z" fill="#93ACA5"/>
<path d="M6.10731 5.55556H94.9962V44.4444H6.10731V5.55556Z" fill="#FFE9DD"/>
<path d="M97.774 6.94444C97.774 10.7798 94.6648 13.8889 90.8295 13.8889C86.9942 13.8889 83.8851 10.7798 83.8851 6.94444C83.8851 3.10913 86.9942 0 90.8295 0C94.6648 0 97.774 3.10913 97.774 6.94444Z" fill="#93ACA5"/>
<path d="M14.4406 6.94444C14.4406 10.7798 11.3315 13.8889 7.4962 13.8889C3.66089 13.8889 0.551758 10.7798 0.551758 6.94444C0.551758 3.10913 3.66089 0 7.4962 0C11.3315 0 14.4406 3.10913 14.4406 6.94444Z" fill="#93ACA5"/>
<path d="M25.5518 25C25.5518 28.0682 23.0644 30.5556 19.9962 30.5556C16.928 30.5556 14.4406 28.0682 14.4406 25C14.4406 21.9318 16.928 19.4444 19.9962 19.4444C23.0644 19.4444 25.5518 21.9318 25.5518 25Z" fill="#93ACA5"/>
<path d="M52.1932 28.2611C52.1932 28.9231 52.0187 29.537 51.6696 30.1028C51.3325 30.6565 50.827 31.1139 50.1529 31.475C49.4909 31.8241 48.7024 32.0167 47.7876 32.0528V33.5153H46.6321V32.0347C45.3562 31.9264 44.327 31.5472 43.5446 30.8972C42.7622 30.2352 42.3469 29.3384 42.2987 28.2069H45.5849C45.6571 28.9292 46.0062 29.3926 46.6321 29.5972V26.7444C45.6932 26.5037 44.9409 26.269 44.3751 26.0403C43.8214 25.8116 43.3339 25.4444 42.9126 24.9389C42.4913 24.4333 42.2807 23.7412 42.2807 22.8625C42.2807 21.7671 42.6839 20.8884 43.4904 20.2264C44.3089 19.5644 45.3562 19.1912 46.6321 19.1069V17.6444H47.7876V19.1069C49.0515 19.2032 50.0506 19.5704 50.7849 20.2083C51.5191 20.8463 51.9284 21.731 52.0126 22.8625H48.7085C48.6362 22.2125 48.3293 21.7912 47.7876 21.5986V24.3972C48.7867 24.6741 49.5571 24.9208 50.0987 25.1375C50.6404 25.3542 51.1219 25.7153 51.5432 26.2208C51.9765 26.7143 52.1932 27.3944 52.1932 28.2611ZM45.5487 22.7181C45.5487 23.019 45.639 23.2718 45.8196 23.4764C46.0122 23.681 46.283 23.8616 46.6321 24.0181V21.5083C46.295 21.5685 46.0302 21.7009 45.8376 21.9056C45.645 22.0981 45.5487 22.369 45.5487 22.7181ZM47.7876 29.6514C48.1487 29.5912 48.4316 29.4468 48.6362 29.2181C48.8529 28.9894 48.9612 28.7065 48.9612 28.3694C48.9612 28.0565 48.8589 27.8037 48.6543 27.6111C48.4617 27.4065 48.1728 27.2319 47.7876 27.0875V29.6514Z" fill="#93ACA5"/>
<path d="M53.3163 21.6347V18.7639H58.3177V31.9444H55.1038V21.6347H53.3163Z" fill="#93ACA5"/>
<path d="M86.6629 25C86.6629 28.0682 84.1756 30.5556 81.1073 30.5556C78.0391 30.5556 75.5518 28.0682 75.5518 25C75.5518 21.9318 78.0391 19.4444 81.1073 19.4444C84.1756 19.4444 86.6629 21.9318 86.6629 25Z" fill="#93ACA5"/>
<path d="M97.774 43.0556C97.774 46.8909 94.6648 50 90.8295 50C86.9942 50 83.8851 46.8909 83.8851 43.0556C83.8851 39.2202 86.9942 36.1111 90.8295 36.1111C94.6648 36.1111 97.774 39.2202 97.774 43.0556Z" fill="#93ACA5"/>
<path d="M14.4406 43.0556C14.4406 46.8909 11.3315 50 7.4962 50C3.66089 50 0.551758 46.8909 0.551758 43.0556C0.551758 39.2202 3.66089 36.1111 7.4962 36.1111C11.3315 36.1111 14.4406 39.2202 14.4406 43.0556Z" fill="#93ACA5"/>
</svg>
