<svg width="110" height="50" viewBox="0 0 110 50" fill="none" xmlns="http://www.w3.org/2000/svg">
<rect x="0.5" y="0.5" width="109" height="49" rx="5.5" fill="#4CAF50" fill-opacity="0.11" stroke="#036A07"/>
<path d="M26 20C23.9288 20 22.25 21.1187 22.25 22.5C22.25 23.8813 23.9288 25 26 25C28.0712 25 29.75 26.1187 29.75 27.5C29.75 28.8813 28.0712 30 26 30M26 20C27.3875 20 28.6 20.5025 29.2487 21.25M26 20V18.75M26 20V30M26 30V31.25M26 30C24.6125 30 23.4 29.4975 22.7513 28.75M37.25 25C37.25 26.4774 36.959 27.9403 36.3936 29.3052C35.8283 30.6701 34.9996 31.9103 33.955 32.955C32.9103 33.9996 31.6701 34.8283 30.3052 35.3936C28.9403 35.959 27.4774 36.25 26 36.25C24.5226 36.25 23.0597 35.959 21.6948 35.3936C20.3299 34.8283 19.0897 33.9996 18.045 32.955C17.0004 31.9103 16.1717 30.6701 15.6064 29.3052C15.041 27.9403 14.75 26.4774 14.75 25C14.75 22.0163 15.9353 19.1548 18.045 17.045C20.1548 14.9353 23.0163 13.75 26 13.75C28.9837 13.75 31.8452 14.9353 33.955 17.045C36.0647 19.1548 37.25 22.0163 37.25 25Z" stroke="#036A07" stroke-width="2" stroke-linecap="round" stroke-linejoin="round"/>
<path d="M59.7685 36V32.6761L67.5348 25.4851C68.1953 24.8459 68.7493 24.2706 69.1967 23.7592C69.6513 23.2479 69.9957 22.7472 70.2301 22.2571C70.4645 21.7599 70.5817 21.2237 70.5817 20.6484C70.5817 20.0092 70.4361 19.4588 70.1449 18.9972C69.8537 18.5284 69.456 18.1697 68.9517 17.9212C68.4474 17.6655 67.8757 17.5376 67.2365 17.5376C66.5689 17.5376 65.9865 17.6726 65.4893 17.9425C64.9922 18.2124 64.6087 18.5994 64.3388 19.1037C64.0689 19.608 63.9339 20.2081 63.9339 20.9041H59.5554C59.5554 19.4766 59.8786 18.2372 60.5249 17.1861C61.1712 16.1349 62.0767 15.3217 63.2415 14.7464C64.4063 14.1712 65.7486 13.8835 67.2685 13.8835C68.831 13.8835 70.1911 14.1605 71.3487 14.7145C72.5135 15.2614 73.419 16.0213 74.0653 16.9943C74.7116 17.9673 75.0348 19.0824 75.0348 20.3395C75.0348 21.1634 74.8714 21.9766 74.5447 22.7791C74.2251 23.5817 73.6534 24.473 72.8295 25.4531C72.0057 26.4261 70.8445 27.5945 69.3459 28.9581L66.1605 32.0795V32.2287H75.3224V36H59.7685Z" fill="#036A07"/>
</svg>
