<svg width="110" height="50" viewBox="0 0 110 50" fill="none" xmlns="http://www.w3.org/2000/svg">
<rect x="0.5" y="0.5" width="109" height="49" rx="5.5" fill="#4CAF50" fill-opacity="0.11" stroke="#036A07"/>
<path d="M26 20C23.9288 20 22.25 21.1187 22.25 22.5C22.25 23.8813 23.9288 25 26 25C28.0712 25 29.75 26.1187 29.75 27.5C29.75 28.8813 28.0712 30 26 30M26 20C27.3875 20 28.6 20.5025 29.2487 21.25M26 20V18.75M26 20V30M26 30V31.25M26 30C24.6125 30 23.4 29.4975 22.7513 28.75M37.25 25C37.25 26.4774 36.959 27.9403 36.3936 29.3052C35.8283 30.6701 34.9996 31.9103 33.955 32.955C32.9103 33.9996 31.6701 34.8283 30.3052 35.3936C28.9403 35.959 27.4774 36.25 26 36.25C24.5226 36.25 23.0597 35.959 21.6948 35.3936C20.3299 34.8283 19.0897 33.9996 18.045 32.955C17.0004 31.9103 16.1717 30.6701 15.6064 29.3052C15.041 27.9403 14.75 26.4774 14.75 25C14.75 22.0163 15.9353 19.1548 18.045 17.045C20.1548 14.9353 23.0163 13.75 26 13.75C28.9837 13.75 31.8452 14.9353 33.955 17.045C36.0647 19.1548 37.25 22.0163 37.25 25Z" stroke="#036A07" stroke-width="2" stroke-linecap="round" stroke-linejoin="round"/>
<path d="M53.7685 36V32.6761L61.5348 25.4851C62.1953 24.8459 62.7493 24.2706 63.1967 23.7592C63.6513 23.2479 63.9957 22.7472 64.2301 22.2571C64.4645 21.7599 64.5817 21.2237 64.5817 20.6484C64.5817 20.0092 64.4361 19.4588 64.1449 18.9972C63.8537 18.5284 63.456 18.1697 62.9517 17.9212C62.4474 17.6655 61.8757 17.5376 61.2365 17.5376C60.5689 17.5376 59.9865 17.6726 59.4893 17.9425C58.9922 18.2124 58.6087 18.5994 58.3388 19.1037C58.0689 19.608 57.9339 20.2081 57.9339 20.9041H53.5554C53.5554 19.4766 53.8786 18.2372 54.5249 17.1861C55.1712 16.1349 56.0767 15.3217 57.2415 14.7464C58.4063 14.1712 59.7486 13.8835 61.2685 13.8835C62.831 13.8835 64.1911 14.1605 65.3487 14.7145C66.5135 15.2614 67.419 16.0213 68.0653 16.9943C68.7116 17.9673 69.0348 19.0824 69.0348 20.3395C69.0348 21.1634 68.8714 21.9766 68.5447 22.7791C68.2251 23.5817 67.6534 24.473 66.8295 25.4531C66.0057 26.4261 64.8445 27.5945 63.3459 28.9581L60.1605 32.0795V32.2287H69.3224V36H53.7685ZM81.2196 36.4794C79.3873 36.4723 77.8105 36.0213 76.4895 35.1264C75.1756 34.2315 74.1635 32.9354 73.4533 31.2379C72.7502 29.5405 72.4022 27.4986 72.4093 25.1122C72.4093 22.733 72.7608 20.7053 73.464 19.0291C74.1742 17.353 75.1863 16.0781 76.5002 15.2045C77.8212 14.3239 79.3944 13.8835 81.2196 13.8835C83.0449 13.8835 84.6145 14.3239 85.9284 15.2045C87.2495 16.0852 88.2651 17.3636 88.9753 19.0398C89.6855 20.7088 90.0371 22.733 90.03 25.1122C90.03 27.5057 89.6749 29.5511 88.9647 31.2486C88.2615 32.946 87.253 34.2422 85.9391 35.1371C84.6252 36.032 83.052 36.4794 81.2196 36.4794ZM81.2196 32.6548C82.4696 32.6548 83.4675 32.0263 84.2132 30.7692C84.959 29.5121 85.3283 27.6264 85.3212 25.1122C85.3212 23.4574 85.1507 22.0795 84.8098 20.9787C84.476 19.8778 84.0002 19.0504 83.3823 18.4964C82.7715 17.9425 82.0506 17.6655 81.2196 17.6655C79.9767 17.6655 78.9824 18.2869 78.2367 19.5298C77.4909 20.7727 77.1145 22.6335 77.1074 25.1122C77.1074 26.7884 77.2743 28.1875 77.6081 29.3097C77.949 30.4247 78.4284 31.2628 79.0463 31.8239C79.6642 32.3778 80.3887 32.6548 81.2196 32.6548Z" fill="#036A07"/>
</svg>
