<svg width="100" height="50" viewBox="0 0 100 50" fill="none" xmlns="http://www.w3.org/2000/svg">
<path d="M0 2.77778C0 1.24365 1.24365 0 2.77778 0H97.2222C98.7563 0 100 1.24365 100 2.77778V47.2222C100 48.7563 98.7563 50 97.2222 50H2.77778C1.24365 50 0 48.7563 0 47.2222V2.77778Z" fill="#93ACA5"/>
<path d="M5.55556 5.55556H94.4444V44.4444H5.55556V5.55556Z" fill="#FFE9DD"/>
<path d="M97.2222 6.94444C97.2222 10.7798 94.1131 13.8889 90.2778 13.8889C86.4425 13.8889 83.3333 10.7798 83.3333 6.94444C83.3333 3.10913 86.4425 0 90.2778 0C94.1131 0 97.2222 3.10913 97.2222 6.94444Z" fill="#93ACA5"/>
<path d="M13.8889 6.94444C13.8889 10.7798 10.7798 13.8889 6.94444 13.8889C3.10913 13.8889 0 10.7798 0 6.94444C0 3.10913 3.10913 0 6.94444 0C10.7798 0 13.8889 3.10913 13.8889 6.94444Z" fill="#93ACA5"/>
<path d="M25 25C25 28.0682 22.5127 30.5556 19.4444 30.5556C16.3762 30.5556 13.8889 28.0682 13.8889 25C13.8889 21.9318 16.3762 19.4444 19.4444 19.4444C22.5127 19.4444 25 21.9318 25 25Z" fill="#93ACA5"/>
<path d="M44.2598 28.2611C44.2598 28.9231 44.0853 29.537 43.7362 30.1028C43.3992 30.6565 42.8936 31.1139 42.2195 31.475C41.5575 31.8241 40.7691 32.0167 39.8543 32.0528V33.5153H38.6987V32.0347C37.4228 31.9264 36.3936 31.5472 35.6112 30.8972C34.8288 30.2352 34.4135 29.3384 34.3654 28.2069H37.6515C37.7237 28.9292 38.0728 29.3926 38.6987 29.5972V26.7444C37.7598 26.5037 37.0075 26.269 36.4418 26.0403C35.8881 25.8116 35.4006 25.4444 34.9793 24.9389C34.558 24.4333 34.3473 23.7412 34.3473 22.8625C34.3473 21.7671 34.7506 20.8884 35.557 20.2264C36.3756 19.5644 37.4228 19.1912 38.6987 19.1069V17.6444H39.8543V19.1069C41.1181 19.2032 42.1172 19.5704 42.8515 20.2083C43.5857 20.8463 43.995 21.731 44.0793 22.8625H40.7751C40.7029 22.2125 40.3959 21.7912 39.8543 21.5986V24.3972C40.8533 24.6741 41.6237 24.9208 42.1654 25.1375C42.707 25.3542 43.1885 25.7153 43.6098 26.2208C44.0431 26.7143 44.2598 27.3944 44.2598 28.2611ZM37.6154 22.7181C37.6154 23.019 37.7056 23.2718 37.8862 23.4764C38.0788 23.681 38.3496 23.8616 38.6987 24.0181V21.5083C38.3617 21.5685 38.0969 21.7009 37.9043 21.9056C37.7117 22.0981 37.6154 22.369 37.6154 22.7181ZM39.8543 29.6514C40.2154 29.5912 40.4982 29.4468 40.7029 29.2181C40.9195 28.9894 41.0279 28.7065 41.0279 28.3694C41.0279 28.0565 40.9256 27.8037 40.7209 27.6111C40.5283 27.4065 40.2394 27.2319 39.8543 27.0875V29.6514Z" fill="#93ACA5"/>
<path d="M45.5996 29.4708C46.0089 29.1458 46.1954 28.9954 46.1593 29.0194C47.3389 28.0444 48.2658 27.244 48.9399 26.6181C49.626 25.9921 50.2038 25.3361 50.6732 24.65C51.1426 23.9639 51.3774 23.2958 51.3774 22.6458C51.3774 22.1523 51.263 21.7671 51.0343 21.4903C50.8056 21.2134 50.4626 21.075 50.0051 21.075C49.5477 21.075 49.1866 21.2495 48.9218 21.5986C48.669 21.9356 48.5426 22.4171 48.5426 23.0431H45.5635C45.5876 22.0199 45.8042 21.1653 46.2135 20.4792C46.6348 19.7931 47.1825 19.2875 47.8565 18.9625C48.5426 18.6375 49.301 18.475 50.1315 18.475C51.5639 18.475 52.6413 18.8421 53.3635 19.5764C54.0977 20.3106 54.4649 21.2676 54.4649 22.4472C54.4649 23.7352 54.0255 24.9329 53.1468 26.0403C52.2681 27.1356 51.1487 28.2069 49.7885 29.2542H54.6635V31.7639H45.5996V29.4708Z" fill="#93ACA5"/>
<path d="M55.4812 25.1736C55.4812 23.1032 55.8784 21.4722 56.6729 20.2806C57.4793 19.0889 58.7733 18.4931 60.5548 18.4931C62.3363 18.4931 63.6243 19.0889 64.4187 20.2806C65.2252 21.4722 65.6284 23.1032 65.6284 25.1736C65.6284 27.2681 65.2252 28.9111 64.4187 30.1028C63.6243 31.2944 62.3363 31.8903 60.5548 31.8903C58.7733 31.8903 57.4793 31.2944 56.6729 30.1028C55.8784 28.9111 55.4812 27.2681 55.4812 25.1736ZM62.5951 25.1736C62.5951 23.9579 62.4627 23.025 62.1979 22.375C61.9331 21.713 61.3854 21.3819 60.5548 21.3819C59.7243 21.3819 59.1766 21.713 58.9118 22.375C58.6469 23.025 58.5145 23.9579 58.5145 25.1736C58.5145 25.9921 58.5627 26.6722 58.659 27.2139C58.7553 27.7435 58.9479 28.1769 59.2368 28.5139C59.5377 28.8389 59.977 29.0014 60.5548 29.0014C61.1326 29.0014 61.5659 28.8389 61.8548 28.5139C62.1557 28.1769 62.3543 27.7435 62.4506 27.2139C62.5469 26.6722 62.5951 25.9921 62.5951 25.1736Z" fill="#93ACA5"/>
<path d="M86.1111 25C86.1111 28.0682 83.6238 30.5556 80.5555 30.5556C77.4873 30.5556 75 28.0682 75 25C75 21.9318 77.4873 19.4444 80.5555 19.4444C83.6238 19.4444 86.1111 21.9318 86.1111 25Z" fill="#93ACA5"/>
<path d="M97.2222 43.0556C97.2222 46.8909 94.1131 50 90.2778 50C86.4425 50 83.3333 46.8909 83.3333 43.0556C83.3333 39.2202 86.4425 36.1111 90.2778 36.1111C94.1131 36.1111 97.2222 39.2202 97.2222 43.0556Z" fill="#93ACA5"/>
<path d="M13.8889 43.0556C13.8889 46.8909 10.7798 50 6.94444 50C3.10913 50 0 46.8909 0 43.0556C0 39.2202 3.10913 36.1111 6.94444 36.1111C10.7798 36.1111 13.8889 39.2202 13.8889 43.0556Z" fill="#93ACA5"/>
</svg>
