<svg width="91" height="60" viewBox="0 0 91 60" fill="none" xmlns="http://www.w3.org/2000/svg">
<circle cx="61" cy="30" r="29.5" fill="#4CAF50" fill-opacity="0.15" stroke="#036A07"/>
<path d="M45.1939 37.2876C44.0945 37.2834 43.1484 37.0128 42.3558 36.4759C41.5675 35.9389 40.9602 35.1612 40.5341 34.1428C40.1122 33.1243 39.9034 31.8991 39.9077 30.4673C39.9077 29.0398 40.1186 27.8232 40.5405 26.8175C40.9666 25.8118 41.5739 25.0469 42.3622 24.5227C43.1548 23.9943 44.0987 23.7301 45.1939 23.7301C46.2891 23.7301 47.2308 23.9943 48.0192 24.5227C48.8118 25.0511 49.4212 25.8182 49.8473 26.8239C50.2734 27.8253 50.4844 29.0398 50.4801 30.4673C50.4801 31.9034 50.267 33.1307 49.8409 34.1491C49.419 35.1676 48.8139 35.9453 48.0256 36.4822C47.2372 37.0192 46.2933 37.2876 45.1939 37.2876ZM45.1939 34.9929C45.9439 34.9929 46.5426 34.6158 46.9901 33.8615C47.4375 33.1072 47.6591 31.9759 47.6548 30.4673C47.6548 29.4744 47.5526 28.6477 47.348 27.9872C47.1477 27.3267 46.8622 26.8303 46.4915 26.4979C46.125 26.1655 45.6925 25.9993 45.1939 25.9993C44.4482 25.9993 43.8516 26.3722 43.4041 27.1179C42.9567 27.8636 42.7308 28.9801 42.7266 30.4673C42.7266 31.473 42.8267 32.3125 43.027 32.9858C43.2315 33.6548 43.5192 34.1577 43.8899 34.4943C44.2607 34.8267 44.6953 34.9929 45.1939 34.9929ZM53.5435 37.1662C53.1216 37.1662 52.7594 37.017 52.4569 36.7188C52.1586 36.4162 52.0094 36.054 52.0094 35.6321C52.0094 35.2145 52.1586 34.8565 52.4569 34.5582C52.7594 34.2599 53.1216 34.1108 53.5435 34.1108C53.9526 34.1108 54.3105 34.2599 54.6174 34.5582C54.9242 34.8565 55.0776 35.2145 55.0776 35.6321C55.0776 35.9134 55.0051 36.1712 54.8603 36.4055C54.7196 36.6357 54.5343 36.821 54.3042 36.9616C54.074 37.098 53.8205 37.1662 53.5435 37.1662ZM57.2876 37V35.0057L61.9474 30.6911C62.3438 30.3075 62.6761 29.9624 62.9446 29.6555C63.2173 29.3487 63.424 29.0483 63.5646 28.7543C63.7053 28.456 63.7756 28.1342 63.7756 27.7891C63.7756 27.4055 63.6882 27.0753 63.5135 26.7983C63.3388 26.517 63.1001 26.3018 62.7976 26.1527C62.495 25.9993 62.152 25.9226 61.7685 25.9226C61.3679 25.9226 61.0185 26.0036 60.7202 26.1655C60.4219 26.3274 60.1918 26.5597 60.0298 26.8622C59.8679 27.1648 59.7869 27.5249 59.7869 27.9425H57.1598C57.1598 27.0859 57.3537 26.3423 57.7415 25.7116C58.1293 25.081 58.6726 24.593 59.3714 24.2479C60.0703 23.9027 60.8757 23.7301 61.7876 23.7301C62.7251 23.7301 63.5412 23.8963 64.2358 24.2287C64.9347 24.5568 65.478 25.0128 65.8658 25.5966C66.2536 26.1804 66.4474 26.8494 66.4474 27.6037C66.4474 28.098 66.3494 28.5859 66.1534 29.0675C65.9616 29.549 65.6186 30.0838 65.1243 30.6719C64.63 31.2557 63.9332 31.9567 63.0341 32.7749L61.1229 34.6477V34.7372H66.62V37H57.2876ZM73.4068 37.179C72.5034 37.179 71.698 37.0128 70.9906 36.6804C70.2875 36.348 69.7292 35.8899 69.3159 35.3061C68.9025 34.7223 68.6873 34.0533 68.6703 33.299H71.3549C71.3848 33.8061 71.5978 34.2173 71.9941 34.5327C72.3904 34.848 72.8613 35.0057 73.4068 35.0057C73.8414 35.0057 74.225 34.9098 74.5574 34.718C74.894 34.522 75.1561 34.2514 75.3436 33.9062C75.5353 33.5568 75.6312 33.1562 75.6312 32.7045C75.6312 32.2443 75.5332 31.8395 75.3372 31.4901C75.1454 31.1406 74.8791 30.8679 74.5382 30.6719C74.1973 30.4759 73.8074 30.3757 73.3684 30.3714C72.9849 30.3714 72.612 30.4503 72.2498 30.608C71.8919 30.7656 71.6127 30.9808 71.4125 31.2536L68.9515 30.8125L69.5716 23.9091H77.5744V26.1719H71.8535L71.5147 29.451H71.5914C71.8216 29.1271 72.1689 28.8587 72.6333 28.6456C73.0978 28.4325 73.6177 28.326 74.193 28.326C74.9814 28.326 75.6845 28.5114 76.3024 28.8821C76.9203 29.2528 77.4082 29.7621 77.7662 30.4098C78.1241 31.0533 78.301 31.7947 78.2967 32.6342C78.301 33.5163 78.0964 34.3004 77.6831 34.9865C77.274 35.6683 76.7008 36.2053 75.9636 36.5973C75.2306 36.9851 74.3784 37.179 73.4068 37.179Z" fill="#036A07"/>
<path d="M3.15703 29C2.26355 30.3668 1.86767 31.9994 2.0359 33.6236C2.20412 35.2478 2.9262 36.7646 4.08082 37.9192C5.23545 39.0738 6.75227 39.7959 8.37646 39.9641C10.0007 40.1324 11.6333 39.7365 13 38.843M14 36C16.1218 36 18.1566 35.1571 19.6569 33.6569C21.1572 32.1566 22 30.1217 22 28C22 25.8783 21.1572 23.8434 19.6569 22.3431C18.1566 20.8429 16.1218 20 14 20C11.8783 20 9.84346 20.8429 8.34317 22.3431C6.84288 23.8434 6.00003 25.8783 6.00003 28C6.00003 30.1217 6.84288 32.1566 8.34317 33.6569C9.84346 35.1571 11.8783 36 14 36Z" stroke="#036A07" stroke-width="1.5" stroke-linecap="round" stroke-linejoin="round"/>
<path d="M15.771 26.2049C15.555 25.2929 14.455 24.4699 13.134 25.0849C11.813 25.7009 11.603 27.6829 13.601 27.8929C14.504 27.9879 15.093 27.7829 15.631 28.3639C16.171 28.9449 16.271 30.5619 14.893 30.9979C13.515 31.4339 12.151 30.7529 12.002 29.7859M13.986 24.0039V24.8739M13.986 31.1319V32.0039" stroke="#036A07" stroke-width="1.5" stroke-linecap="round" stroke-linejoin="round"/>
</svg>
