<svg width="101" height="50" viewBox="0 0 101 50" fill="none" xmlns="http://www.w3.org/2000/svg">
<path d="M0.551758 2.77778C0.551758 1.24365 1.79541 0 3.32954 0H97.774C99.3081 0 100.552 1.24365 100.552 2.77778V47.2222C100.552 48.7563 99.3081 50 97.774 50H3.32954C1.79541 50 0.551758 48.7563 0.551758 47.2222V2.77778Z" fill="#93ACA5"/>
<path d="M6.10731 5.55556H94.9962V44.4444H6.10731V5.55556Z" fill="#FFE9DD"/>
<path d="M97.774 6.94444C97.774 10.7798 94.6648 13.8889 90.8295 13.8889C86.9942 13.8889 83.8851 10.7798 83.8851 6.94444C83.8851 3.10913 86.9942 0 90.8295 0C94.6648 0 97.774 3.10913 97.774 6.94444Z" fill="#93ACA5"/>
<path d="M14.4406 6.94444C14.4406 10.7798 11.3315 13.8889 7.4962 13.8889C3.66089 13.8889 0.551758 10.7798 0.551758 6.94444C0.551758 3.10913 3.66089 0 7.4962 0C11.3315 0 14.4406 3.10913 14.4406 6.94444Z" fill="#93ACA5"/>
<path d="M25.5518 25C25.5518 28.0682 23.0644 30.5556 19.9962 30.5556C16.928 30.5556 14.4406 28.0682 14.4406 25C14.4406 21.9318 16.928 19.4444 19.9962 19.4444C23.0644 19.4444 25.5518 21.9318 25.5518 25Z" fill="#93ACA5"/>
<path d="M50.43 28.2611C50.43 28.9231 50.2554 29.537 49.9063 30.1028C49.5693 30.6565 49.0638 31.1139 48.3897 31.475C47.7276 31.8241 46.9392 32.0167 46.0244 32.0528V33.5153H44.8688V32.0347C43.5929 31.9264 42.5637 31.5472 41.7813 30.8972C40.9989 30.2352 40.5837 29.3384 40.5355 28.2069H43.8216C43.8938 28.9292 44.2429 29.3926 44.8688 29.5972V26.7444C43.93 26.5037 43.1776 26.269 42.6119 26.0403C42.0582 25.8116 41.5707 25.4444 41.1494 24.9389C40.7281 24.4333 40.5175 23.7412 40.5175 22.8625C40.5175 21.7671 40.9207 20.8884 41.7272 20.2264C42.5457 19.5644 43.5929 19.1912 44.8688 19.1069V17.6444H46.0244V19.1069C47.2883 19.2032 48.2874 19.5704 49.0216 20.2083C49.7559 20.8463 50.1651 21.731 50.2494 22.8625H46.9452C46.873 22.2125 46.5661 21.7912 46.0244 21.5986V24.3972C47.0235 24.6741 47.7938 24.9208 48.3355 25.1375C48.8772 25.3542 49.3587 25.7153 49.78 26.2208C50.2133 26.7143 50.43 27.3944 50.43 28.2611ZM43.7855 22.7181C43.7855 23.019 43.8758 23.2718 44.0563 23.4764C44.2489 23.681 44.5198 23.8616 44.8688 24.0181V21.5083C44.5318 21.5685 44.267 21.7009 44.0744 21.9056C43.8818 22.0981 43.7855 22.369 43.7855 22.7181ZM46.0244 29.6514C46.3855 29.5912 46.6684 29.4468 46.873 29.2181C47.0897 28.9894 47.198 28.7065 47.198 28.3694C47.198 28.0565 47.0957 27.8037 46.8911 27.6111C46.6985 27.4065 46.4096 27.2319 46.0244 27.0875V29.6514Z" fill="#93ACA5"/>
<path d="M51.7697 29.4708C52.179 29.1458 52.3656 28.9954 52.3295 29.0194C53.5091 28.0444 54.4359 27.244 55.11 26.6181C55.7961 25.9921 56.3739 25.3361 56.8433 24.65C57.3128 23.9639 57.5475 23.2958 57.5475 22.6458C57.5475 22.1523 57.4332 21.7671 57.2044 21.4903C56.9757 21.2134 56.6327 21.075 56.1753 21.075C55.7179 21.075 55.3568 21.2495 55.0919 21.5986C54.8392 21.9356 54.7128 22.4171 54.7128 23.0431H51.7336C51.7577 22.0199 51.9744 21.1653 52.3836 20.4792C52.8049 19.7931 53.3526 19.2875 54.0267 18.9625C54.7128 18.6375 55.4711 18.475 56.3017 18.475C57.7341 18.475 58.8114 18.8421 59.5336 19.5764C60.2679 20.3106 60.635 21.2676 60.635 22.4472C60.635 23.7352 60.1957 24.9329 59.317 26.0403C58.4383 27.1356 57.3188 28.2069 55.9586 29.2542H60.8336V31.7639H51.7697V29.4708Z" fill="#93ACA5"/>
<path d="M86.6629 25C86.6629 28.0682 84.1756 30.5556 81.1073 30.5556C78.0391 30.5556 75.5518 28.0682 75.5518 25C75.5518 21.9318 78.0391 19.4444 81.1073 19.4444C84.1756 19.4444 86.6629 21.9318 86.6629 25Z" fill="#93ACA5"/>
<path d="M97.774 43.0556C97.774 46.8909 94.6648 50 90.8295 50C86.9942 50 83.8851 46.8909 83.8851 43.0556C83.8851 39.2202 86.9942 36.1111 90.8295 36.1111C94.6648 36.1111 97.774 39.2202 97.774 43.0556Z" fill="#93ACA5"/>
<path d="M14.4406 43.0556C14.4406 46.8909 11.3315 50 7.4962 50C3.66089 50 0.551758 46.8909 0.551758 43.0556C0.551758 39.2202 3.66089 36.1111 7.4962 36.1111C11.3315 36.1111 14.4406 39.2202 14.4406 43.0556Z" fill="#93ACA5"/>
</svg>
