<svg width="110" height="50" viewBox="0 0 110 50" fill="none" xmlns="http://www.w3.org/2000/svg">
<rect x="0.5" y="0.5" width="109" height="49" rx="5.5" fill="#4CAF50" fill-opacity="0.11" stroke="#036A07"/>
<path d="M26 20C23.9288 20 22.25 21.1187 22.25 22.5C22.25 23.8813 23.9288 25 26 25C28.0712 25 29.75 26.1187 29.75 27.5C29.75 28.8813 28.0712 30 26 30M26 20C27.3875 20 28.6 20.5025 29.2487 21.25M26 20V18.75M26 20V30M26 30V31.25M26 30C24.6125 30 23.4 29.4975 22.7513 28.75M37.25 25C37.25 26.4774 36.959 27.9403 36.3936 29.3052C35.8283 30.6701 34.9996 31.9103 33.955 32.955C32.9103 33.9996 31.6701 34.8283 30.3052 35.3936C28.9403 35.959 27.4774 36.25 26 36.25C24.5226 36.25 23.0597 35.959 21.6948 35.3936C20.3299 34.8283 19.0897 33.9996 18.045 32.955C17.0004 31.9103 16.1717 30.6701 15.6064 29.3052C15.041 27.9403 14.75 26.4774 14.75 25C14.75 22.0163 15.9353 19.1548 18.045 17.045C20.1548 14.9353 23.0163 13.75 26 13.75C28.9837 13.75 31.8452 14.9353 33.955 17.045C36.0647 19.1548 37.25 22.0163 37.25 25Z" stroke="#036A07" stroke-width="2" stroke-linecap="round" stroke-linejoin="round"/>
<path d="M67.7372 36.2983C66.2315 36.2983 64.8892 36.0213 63.7102 35.4673C62.5384 34.9134 61.608 34.1499 60.919 33.1768C60.2301 32.2038 59.8714 31.0888 59.843 29.8317H64.3175C64.3672 30.6768 64.7223 31.3622 65.3828 31.8878C66.0433 32.4134 66.8281 32.6761 67.7372 32.6761C68.4616 32.6761 69.1009 32.5163 69.6548 32.1967C70.2159 31.87 70.6527 31.419 70.9652 30.8438C71.2848 30.2614 71.4446 29.5937 71.4446 28.8409C71.4446 28.0739 71.2813 27.3991 70.9545 26.8168C70.6349 26.2344 70.1911 25.7798 69.6229 25.4531C69.0547 25.1264 68.4048 24.9595 67.6733 24.9524C67.0341 24.9524 66.4126 25.0838 65.8089 25.3466C65.2124 25.6094 64.7472 25.968 64.4134 26.4226L60.3118 25.6875L61.3452 14.1818H74.6832V17.9531H65.1484L64.5838 23.4183H64.7116C65.0952 22.8786 65.674 22.4311 66.4482 22.076C67.2223 21.7209 68.0888 21.5433 69.0476 21.5433C70.3615 21.5433 71.5334 21.8523 72.5632 22.4702C73.593 23.0881 74.4062 23.9368 75.0028 25.0163C75.5994 26.0888 75.8942 27.3246 75.8871 28.7237C75.8942 30.1939 75.5533 31.5007 74.8643 32.6442C74.1825 33.7805 73.2273 34.6754 71.9986 35.3288C70.777 35.9751 69.3565 36.2983 67.7372 36.2983Z" fill="#036A07"/>
</svg>
