<svg width="110" height="50" viewBox="0 0 110 50" fill="none" xmlns="http://www.w3.org/2000/svg">
<rect x="0.5" y="0.5" width="109" height="49" rx="5.5" fill="#4CAF50" fill-opacity="0.11" stroke="#036A07"/>
<path d="M26 20C23.9288 20 22.25 21.1187 22.25 22.5C22.25 23.8813 23.9288 25 26 25C28.0712 25 29.75 26.1187 29.75 27.5C29.75 28.8813 28.0712 30 26 30M26 20C27.3875 20 28.6 20.5025 29.2487 21.25M26 20V18.75M26 20V30M26 30V31.25M26 30C24.6125 30 23.4 29.4975 22.7513 28.75M37.25 25C37.25 26.4774 36.959 27.9403 36.3936 29.3052C35.8283 30.6701 34.9996 31.9103 33.955 32.955C32.9103 33.9996 31.6701 34.8283 30.3052 35.3936C28.9403 35.959 27.4774 36.25 26 36.25C24.5226 36.25 23.0597 35.959 21.6948 35.3936C20.3299 34.8283 19.0897 33.9996 18.045 32.955C17.0004 31.9103 16.1717 30.6701 15.6064 29.3052C15.041 27.9403 14.75 26.4774 14.75 25C14.75 22.0163 15.9353 19.1548 18.045 17.045C20.1548 14.9353 23.0163 13.75 26 13.75C28.9837 13.75 31.8452 14.9353 33.955 17.045C36.0647 19.1548 37.25 22.0163 37.25 25Z" stroke="#036A07" stroke-width="2" stroke-linecap="round" stroke-linejoin="round"/>
<path d="M61.7372 36.2983C60.2315 36.2983 58.8892 36.0213 57.7102 35.4673C56.5384 34.9134 55.608 34.1499 54.919 33.1768C54.2301 32.2038 53.8714 31.0888 53.843 29.8317H58.3175C58.3672 30.6768 58.7223 31.3622 59.3828 31.8878C60.0433 32.4134 60.8281 32.6761 61.7372 32.6761C62.4616 32.6761 63.1009 32.5163 63.6548 32.1967C64.2159 31.87 64.6527 31.419 64.9652 30.8438C65.2848 30.2614 65.4446 29.5937 65.4446 28.8409C65.4446 28.0739 65.2813 27.3991 64.9545 26.8168C64.6349 26.2344 64.1911 25.7798 63.6229 25.4531C63.0547 25.1264 62.4048 24.9595 61.6733 24.9524C61.0341 24.9524 60.4126 25.0838 59.8089 25.3466C59.2124 25.6094 58.7472 25.968 58.4134 26.4226L54.3118 25.6875L55.3452 14.1818H68.6832V17.9531H59.1484L58.5838 23.4183H58.7116C59.0952 22.8786 59.674 22.4311 60.4482 22.076C61.2223 21.7209 62.0888 21.5433 63.0476 21.5433C64.3615 21.5433 65.5334 21.8523 66.5632 22.4702C67.593 23.0881 68.4062 23.9368 69.0028 25.0163C69.5994 26.0888 69.8942 27.3246 69.8871 28.7237C69.8942 30.1939 69.5533 31.5007 68.8643 32.6442C68.1825 33.7805 67.2273 34.6754 65.9986 35.3288C64.777 35.9751 63.3565 36.2983 61.7372 36.2983ZM81.6591 36.4794C79.8267 36.4723 78.25 36.0213 76.929 35.1264C75.6151 34.2315 74.603 32.9354 73.8928 31.2379C73.1896 29.5405 72.8416 27.4986 72.8487 25.1122C72.8487 22.733 73.2003 20.7053 73.9034 19.0291C74.6136 17.353 75.6257 16.0781 76.9396 15.2045C78.2607 14.3239 79.8338 13.8835 81.6591 13.8835C83.4844 13.8835 85.054 14.3239 86.3679 15.2045C87.6889 16.0852 88.7045 17.3636 89.4148 19.0398C90.125 20.7088 90.4766 22.733 90.4695 25.1122C90.4695 27.5057 90.1143 29.5511 89.4041 31.2486C88.701 32.946 87.6925 34.2422 86.3786 35.1371C85.0646 36.032 83.4915 36.4794 81.6591 36.4794ZM81.6591 32.6548C82.9091 32.6548 83.907 32.0263 84.6527 30.7692C85.3984 29.5121 85.7678 27.6264 85.7607 25.1122C85.7607 23.4574 85.5902 22.0795 85.2493 20.9787C84.9155 19.8778 84.4396 19.0504 83.8217 18.4964C83.2109 17.9425 82.4901 17.6655 81.6591 17.6655C80.4162 17.6655 79.4219 18.2869 78.6761 19.5298C77.9304 20.7727 77.554 22.6335 77.5469 25.1122C77.5469 26.7884 77.7138 28.1875 78.0476 29.3097C78.3885 30.4247 78.8679 31.2628 79.4858 31.8239C80.1037 32.3778 80.8281 32.6548 81.6591 32.6548Z" fill="#036A07"/>
</svg>
