<svg width="91" height="60" viewBox="0 0 91 60" fill="none" xmlns="http://www.w3.org/2000/svg">
<circle cx="61" cy="30" r="29.5" fill="#4CAF50" fill-opacity="0.15" stroke="#036A07"/>
<path d="M45.1939 37.2876C44.0945 37.2834 43.1484 37.0128 42.3558 36.4759C41.5675 35.9389 40.9602 35.1612 40.5341 34.1428C40.1122 33.1243 39.9034 31.8991 39.9077 30.4673C39.9077 29.0398 40.1186 27.8232 40.5405 26.8175C40.9666 25.8118 41.5739 25.0469 42.3622 24.5227C43.1548 23.9943 44.0987 23.7301 45.1939 23.7301C46.2891 23.7301 47.2308 23.9943 48.0192 24.5227C48.8118 25.0511 49.4212 25.8182 49.8473 26.8239C50.2734 27.8253 50.4844 29.0398 50.4801 30.4673C50.4801 31.9034 50.267 33.1307 49.8409 34.1491C49.419 35.1676 48.8139 35.9453 48.0256 36.4822C47.2372 37.0192 46.2933 37.2876 45.1939 37.2876ZM45.1939 34.9929C45.9439 34.9929 46.5426 34.6158 46.9901 33.8615C47.4375 33.1072 47.6591 31.9759 47.6548 30.4673C47.6548 29.4744 47.5526 28.6477 47.348 27.9872C47.1477 27.3267 46.8622 26.8303 46.4915 26.4979C46.125 26.1655 45.6925 25.9993 45.1939 25.9993C44.4482 25.9993 43.8516 26.3722 43.4041 27.1179C42.9567 27.8636 42.7308 28.9801 42.7266 30.4673C42.7266 31.473 42.8267 32.3125 43.027 32.9858C43.2315 33.6548 43.5192 34.1577 43.8899 34.4943C44.2607 34.8267 44.6953 34.9929 45.1939 34.9929ZM53.5435 37.1662C53.1216 37.1662 52.7594 37.017 52.4569 36.7188C52.1586 36.4162 52.0094 36.054 52.0094 35.6321C52.0094 35.2145 52.1586 34.8565 52.4569 34.5582C52.7594 34.2599 53.1216 34.1108 53.5435 34.1108C53.9526 34.1108 54.3105 34.2599 54.6174 34.5582C54.9242 34.8565 55.0776 35.2145 55.0776 35.6321C55.0776 35.9134 55.0051 36.1712 54.8603 36.4055C54.7196 36.6357 54.5343 36.821 54.3042 36.9616C54.074 37.098 53.8205 37.1662 53.5435 37.1662ZM61.9634 37.179C61.06 37.179 60.2546 37.0128 59.5472 36.6804C58.8441 36.348 58.2859 35.8899 57.8725 35.3061C57.4592 34.7223 57.244 34.0533 57.2269 33.299H59.9116C59.9414 33.8061 60.1545 34.2173 60.5508 34.5327C60.9471 34.848 61.418 35.0057 61.9634 35.0057C62.3981 35.0057 62.7816 34.9098 63.114 34.718C63.4506 34.522 63.7127 34.2514 63.9002 33.9062C64.092 33.5568 64.1879 33.1562 64.1879 32.7045C64.1879 32.2443 64.0898 31.8395 63.8938 31.4901C63.7021 31.1406 63.4357 30.8679 63.0948 30.6719C62.7539 30.4759 62.364 30.3757 61.9251 30.3714C61.5415 30.3714 61.1687 30.4503 60.8065 30.608C60.4485 30.7656 60.1694 30.9808 59.9691 31.2536L57.5082 30.8125L58.1282 23.9091H66.131V26.1719H60.4102L60.0714 29.451H60.1481C60.3782 29.1271 60.7255 28.8587 61.19 28.6456C61.6545 28.4325 62.1744 28.326 62.7496 28.326C63.538 28.326 64.2411 28.5114 64.859 28.8821C65.4769 29.2528 65.9648 29.7621 66.3228 30.4098C66.6808 31.0533 66.8576 31.7947 66.8533 32.6342C66.8576 33.5163 66.6531 34.3004 66.2397 34.9865C65.8306 35.6683 65.2575 36.2053 64.5202 36.5973C63.7873 36.9851 62.935 37.179 61.9634 37.179ZM73.9165 37.2876C72.8171 37.2834 71.8711 37.0128 71.0785 36.4759C70.2901 35.9389 69.6829 35.1612 69.2567 34.1428C68.8349 33.1243 68.6261 31.8991 68.6303 30.4673C68.6303 29.0398 68.8413 27.8232 69.2631 26.8175C69.6893 25.8118 70.2965 25.0469 71.0849 24.5227C71.8775 23.9943 72.8214 23.7301 73.9165 23.7301C75.0117 23.7301 75.9535 23.9943 76.7418 24.5227C77.5344 25.0511 78.1438 25.8182 78.57 26.8239C78.9961 27.8253 79.207 29.0398 79.2028 30.4673C79.2028 31.9034 78.9897 33.1307 78.5636 34.1491C78.1417 35.1676 77.5366 35.9453 76.7482 36.4822C75.9599 37.0192 75.016 37.2876 73.9165 37.2876ZM73.9165 34.9929C74.6665 34.9929 75.2653 34.6158 75.7127 33.8615C76.1602 33.1072 76.3817 31.9759 76.3775 30.4673C76.3775 29.4744 76.2752 28.6477 76.0707 27.9872C75.8704 27.3267 75.5849 26.8303 75.2141 26.4979C74.8477 26.1655 74.4151 25.9993 73.9165 25.9993C73.1708 25.9993 72.5742 26.3722 72.1268 27.1179C71.6793 27.8636 71.4535 28.9801 71.4492 30.4673C71.4492 31.473 71.5494 32.3125 71.7496 32.9858C71.9542 33.6548 72.2418 34.1577 72.6126 34.4943C72.9833 34.8267 73.418 34.9929 73.9165 34.9929Z" fill="#036A07"/>
<path d="M3.15703 29C2.26355 30.3668 1.86767 31.9994 2.0359 33.6236C2.20412 35.2478 2.9262 36.7646 4.08082 37.9192C5.23545 39.0738 6.75227 39.7959 8.37646 39.9641C10.0007 40.1324 11.6333 39.7365 13 38.843M14 36C16.1218 36 18.1566 35.1571 19.6569 33.6569C21.1572 32.1566 22 30.1217 22 28C22 25.8783 21.1572 23.8434 19.6569 22.3431C18.1566 20.8429 16.1218 20 14 20C11.8783 20 9.84346 20.8429 8.34317 22.3431C6.84288 23.8434 6.00003 25.8783 6.00003 28C6.00003 30.1217 6.84288 32.1566 8.34317 33.6569C9.84346 35.1571 11.8783 36 14 36Z" stroke="#036A07" stroke-width="1.5" stroke-linecap="round" stroke-linejoin="round"/>
<path d="M15.771 26.2049C15.555 25.2929 14.455 24.4699 13.134 25.0849C11.813 25.7009 11.603 27.6829 13.601 27.8929C14.504 27.9879 15.093 27.7829 15.631 28.3639C16.171 28.9449 16.271 30.5619 14.893 30.9979C13.515 31.4339 12.151 30.7529 12.002 29.7859M13.986 24.0039V24.8739M13.986 31.1319V32.0039" stroke="#036A07" stroke-width="1.5" stroke-linecap="round" stroke-linejoin="round"/>
</svg>
