<svg width="100" height="50" viewBox="0 0 100 50" fill="none" xmlns="http://www.w3.org/2000/svg">
<path d="M0 2.77778C0 1.24365 1.24365 0 2.77778 0H97.2222C98.7563 0 100 1.24365 100 2.77778V47.2222C100 48.7563 98.7563 50 97.2222 50H2.77778C1.24365 50 0 48.7563 0 47.2222V2.77778Z" fill="#93ACA5"/>
<path d="M5.55556 5.55556H94.4444V44.4444H5.55556V5.55556Z" fill="#FFE9DD"/>
<path d="M97.2222 6.94444C97.2222 10.7798 94.1131 13.8889 90.2778 13.8889C86.4425 13.8889 83.3333 10.7798 83.3333 6.94444C83.3333 3.10913 86.4425 0 90.2778 0C94.1131 0 97.2222 3.10913 97.2222 6.94444Z" fill="#93ACA5"/>
<path d="M13.8889 6.94444C13.8889 10.7798 10.7798 13.8889 6.94444 13.8889C3.10913 13.8889 0 10.7798 0 6.94444C0 3.10913 3.10913 0 6.94444 0C10.7798 0 13.8889 3.10913 13.8889 6.94444Z" fill="#93ACA5"/>
<path d="M25 25C25 28.0682 22.5127 30.5556 19.4444 30.5556C16.3762 30.5556 13.8889 28.0682 13.8889 25C13.8889 21.9318 16.3762 19.4444 19.4444 19.4444C22.5127 19.4444 25 21.9318 25 25Z" fill="#93ACA5"/>
<path d="M44.2401 28.2611C44.2401 28.9231 44.0656 29.537 43.7165 30.1028C43.3795 30.6565 42.8739 31.1139 42.1999 31.475C41.5378 31.8241 40.7494 32.0167 39.8346 32.0528V33.5153H38.679V32.0347C37.4031 31.9264 36.3739 31.5472 35.5915 30.8972C34.8091 30.2352 34.3939 29.3384 34.3457 28.2069H37.6318C37.704 28.9292 38.0531 29.3926 38.679 29.5972V26.7444C37.7401 26.5037 36.9878 26.269 36.4221 26.0403C35.8684 25.8116 35.3809 25.4444 34.9596 24.9389C34.5383 24.4333 34.3276 23.7412 34.3276 22.8625C34.3276 21.7671 34.7309 20.8884 35.5374 20.2264C36.3559 19.5644 37.4031 19.1912 38.679 19.1069V17.6444H39.8346V19.1069C41.0985 19.2032 42.0976 19.5704 42.8318 20.2083C43.5661 20.8463 43.9753 21.731 44.0596 22.8625H40.7554C40.6832 22.2125 40.3763 21.7912 39.8346 21.5986V24.3972C40.8337 24.6741 41.604 24.9208 42.1457 25.1375C42.6874 25.3542 43.1688 25.7153 43.5901 26.2208C44.0235 26.7143 44.2401 27.3944 44.2401 28.2611ZM37.5957 22.7181C37.5957 23.019 37.686 23.2718 37.8665 23.4764C38.0591 23.681 38.33 23.8616 38.679 24.0181V21.5083C38.342 21.5685 38.0772 21.7009 37.8846 21.9056C37.692 22.0981 37.5957 22.369 37.5957 22.7181ZM39.8346 29.6514C40.1957 29.5912 40.4786 29.4468 40.6832 29.2181C40.8999 28.9894 41.0082 28.7065 41.0082 28.3694C41.0082 28.0565 40.9059 27.8037 40.7013 27.6111C40.5087 27.4065 40.2198 27.2319 39.8346 27.0875V29.6514Z" fill="#93ACA5"/>
<path d="M54.9688 21.4542H49.3355V23.9458C49.5762 23.681 49.9133 23.4643 50.3466 23.2958C50.7799 23.1273 51.2494 23.0431 51.7549 23.0431C52.6577 23.0431 53.404 23.2477 53.9938 23.6569C54.5957 24.0662 55.035 24.5958 55.3119 25.2458C55.5887 25.8958 55.7271 26.6 55.7271 27.3583C55.7271 28.7667 55.3299 29.8861 54.5355 30.7167C53.741 31.5352 52.6216 31.9444 51.1771 31.9444C50.2142 31.9444 49.3776 31.7819 48.6674 31.4569C47.9572 31.1199 47.4096 30.6565 47.0244 30.0667C46.6392 29.4769 46.4285 28.7968 46.3924 28.0264H49.4077C49.4799 28.3995 49.6545 28.7125 49.9313 28.9653C50.2082 29.206 50.5873 29.3264 51.0688 29.3264C51.6346 29.3264 52.0559 29.1458 52.3327 28.7847C52.6096 28.4236 52.748 27.9421 52.748 27.3403C52.748 26.7505 52.6035 26.2991 52.3146 25.9861C52.0258 25.6731 51.6045 25.5167 51.0508 25.5167C50.6415 25.5167 50.3045 25.619 50.0396 25.8236C49.7748 26.0162 49.6003 26.275 49.516 26.6H46.5369V18.7458H54.9688V21.4542Z" fill="#93ACA5"/>
<path d="M56.8898 25.1736C56.8898 23.1032 57.287 21.4722 58.0814 20.2806C58.8879 19.0889 60.1819 18.4931 61.9634 18.4931C63.7448 18.4931 65.0328 19.0889 65.8273 20.2806C66.6337 21.4722 67.037 23.1032 67.037 25.1736C67.037 27.2681 66.6337 28.9111 65.8273 30.1028C65.0328 31.2944 63.7448 31.8903 61.9634 31.8903C60.1819 31.8903 58.8879 31.2944 58.0814 30.1028C57.287 28.9111 56.8898 27.2681 56.8898 25.1736ZM64.0036 25.1736C64.0036 23.9579 63.8712 23.025 63.6064 22.375C63.3416 21.713 62.7939 21.3819 61.9634 21.3819C61.1328 21.3819 60.5851 21.713 60.3203 22.375C60.0555 23.025 59.9231 23.9579 59.9231 25.1736C59.9231 25.9921 59.9712 26.6722 60.0675 27.2139C60.1638 27.7435 60.3564 28.1769 60.6453 28.5139C60.9462 28.8389 61.3856 29.0014 61.9634 29.0014C62.5411 29.0014 62.9745 28.8389 63.2634 28.5139C63.5643 28.1769 63.7629 27.7435 63.8592 27.2139C63.9555 26.6722 64.0036 25.9921 64.0036 25.1736Z" fill="#93ACA5"/>
<path d="M86.1111 25C86.1111 28.0682 83.6238 30.5556 80.5555 30.5556C77.4873 30.5556 75 28.0682 75 25C75 21.9318 77.4873 19.4444 80.5555 19.4444C83.6238 19.4444 86.1111 21.9318 86.1111 25Z" fill="#93ACA5"/>
<path d="M97.2222 43.0556C97.2222 46.8909 94.1131 50 90.2778 50C86.4425 50 83.3333 46.8909 83.3333 43.0556C83.3333 39.2202 86.4425 36.1111 90.2778 36.1111C94.1131 36.1111 97.2222 39.2202 97.2222 43.0556Z" fill="#93ACA5"/>
<path d="M13.8889 43.0556C13.8889 46.8909 10.7798 50 6.94444 50C3.10913 50 0 46.8909 0 43.0556C0 39.2202 3.10913 36.1111 6.94444 36.1111C10.7798 36.1111 13.8889 39.2202 13.8889 43.0556Z" fill="#93ACA5"/>
</svg>
