<svg width="91" height="60" viewBox="0 0 91 60" fill="none" xmlns="http://www.w3.org/2000/svg">
<circle cx="61" cy="30" r="29.5" fill="#4CAF50" fill-opacity="0.15" stroke="#036A07"/>
<path d="M45.1939 37.2876C44.0945 37.2834 43.1484 37.0128 42.3558 36.4759C41.5675 35.9389 40.9602 35.1612 40.5341 34.1428C40.1122 33.1243 39.9034 31.8991 39.9077 30.4673C39.9077 29.0398 40.1186 27.8232 40.5405 26.8175C40.9666 25.8118 41.5739 25.0469 42.3622 24.5227C43.1548 23.9943 44.0987 23.7301 45.1939 23.7301C46.2891 23.7301 47.2308 23.9943 48.0192 24.5227C48.8118 25.0511 49.4212 25.8182 49.8473 26.8239C50.2734 27.8253 50.4844 29.0398 50.4801 30.4673C50.4801 31.9034 50.267 33.1307 49.8409 34.1491C49.419 35.1676 48.8139 35.9453 48.0256 36.4822C47.2372 37.0192 46.2933 37.2876 45.1939 37.2876ZM45.1939 34.9929C45.9439 34.9929 46.5426 34.6158 46.9901 33.8615C47.4375 33.1072 47.6591 31.9759 47.6548 30.4673C47.6548 29.4744 47.5526 28.6477 47.348 27.9872C47.1477 27.3267 46.8622 26.8303 46.4915 26.4979C46.125 26.1655 45.6925 25.9993 45.1939 25.9993C44.4482 25.9993 43.8516 26.3722 43.4041 27.1179C42.9567 27.8636 42.7308 28.9801 42.7266 30.4673C42.7266 31.473 42.8267 32.3125 43.027 32.9858C43.2315 33.6548 43.5192 34.1577 43.8899 34.4943C44.2607 34.8267 44.6953 34.9929 45.1939 34.9929ZM53.5435 37.1662C53.1216 37.1662 52.7594 37.017 52.4569 36.7188C52.1586 36.4162 52.0094 36.054 52.0094 35.6321C52.0094 35.2145 52.1586 34.8565 52.4569 34.5582C52.7594 34.2599 53.1216 34.1108 53.5435 34.1108C53.9526 34.1108 54.3105 34.2599 54.6174 34.5582C54.9242 34.8565 55.0776 35.2145 55.0776 35.6321C55.0776 35.9134 55.0051 36.1712 54.8603 36.4055C54.7196 36.6357 54.5343 36.821 54.3042 36.9616C54.074 37.098 53.8205 37.1662 53.5435 37.1662ZM61.8931 37.2876C60.7937 37.2834 59.8477 37.0128 59.055 36.4759C58.2667 35.9389 57.6594 35.1612 57.2333 34.1428C56.8114 33.1243 56.6026 31.8991 56.6069 30.4673C56.6069 29.0398 56.8178 27.8232 57.2397 26.8175C57.6658 25.8118 58.2731 25.0469 59.0614 24.5227C59.854 23.9943 60.7979 23.7301 61.8931 23.7301C62.9883 23.7301 63.93 23.9943 64.7184 24.5227C65.511 25.0511 66.1204 25.8182 66.5465 26.8239C66.9727 27.8253 67.1836 29.0398 67.1793 30.4673C67.1793 31.9034 66.9663 33.1307 66.5401 34.1491C66.1183 35.1676 65.5131 35.9453 64.7248 36.4822C63.9364 37.0192 62.9925 37.2876 61.8931 37.2876ZM61.8931 34.9929C62.6431 34.9929 63.2418 34.6158 63.6893 33.8615C64.1367 33.1072 64.3583 31.9759 64.354 30.4673C64.354 29.4744 64.2518 28.6477 64.0472 27.9872C63.8469 27.3267 63.5614 26.8303 63.1907 26.4979C62.8242 26.1655 62.3917 25.9993 61.8931 25.9993C61.1474 25.9993 60.5508 26.3722 60.1033 27.1179C59.6559 27.8636 59.43 28.9801 59.4258 30.4673C59.4258 31.473 59.5259 32.3125 59.7262 32.9858C59.9308 33.6548 60.2184 34.1577 60.5891 34.4943C60.9599 34.8267 61.3945 34.9929 61.8931 34.9929ZM73.9341 37.179C73.0307 37.179 72.2253 37.0128 71.5179 36.6804C70.8148 36.348 70.2566 35.8899 69.8432 35.3061C69.4299 34.7223 69.2147 34.0533 69.1976 33.299H71.8823C71.9121 33.8061 72.1252 34.2173 72.5215 34.5327C72.9178 34.848 73.3887 35.0057 73.9341 35.0057C74.3688 35.0057 74.7523 34.9098 75.0847 34.718C75.4213 34.522 75.6834 34.2514 75.8709 33.9062C76.0627 33.5568 76.1586 33.1562 76.1586 32.7045C76.1586 32.2443 76.0605 31.8395 75.8645 31.4901C75.6728 31.1406 75.4064 30.8679 75.0655 30.6719C74.7246 30.4759 74.3347 30.3757 73.8958 30.3714C73.5123 30.3714 73.1394 30.4503 72.7772 30.608C72.4192 30.7656 72.1401 30.9808 71.9398 31.2536L69.4789 30.8125L70.0989 23.9091H78.1017V26.1719H72.3809L72.0421 29.451H72.1188C72.3489 29.1271 72.6962 28.8587 73.1607 28.6456C73.6252 28.4325 74.1451 28.326 74.7203 28.326C75.5087 28.326 76.2118 28.5114 76.8297 28.8821C77.4476 29.2528 77.9355 29.7621 78.2935 30.4098C78.6515 31.0533 78.8283 31.7947 78.824 32.6342C78.8283 33.5163 78.6238 34.3004 78.2104 34.9865C77.8013 35.6683 77.2282 36.2053 76.4909 36.5973C75.758 36.9851 74.9057 37.179 73.9341 37.179Z" fill="#036A07"/>
<path d="M3.15703 29C2.26355 30.3668 1.86767 31.9994 2.0359 33.6236C2.20412 35.2478 2.9262 36.7646 4.08082 37.9192C5.23545 39.0738 6.75227 39.7959 8.37646 39.9641C10.0007 40.1324 11.6333 39.7365 13 38.843M14 36C16.1218 36 18.1566 35.1571 19.6569 33.6569C21.1572 32.1566 22 30.1217 22 28C22 25.8783 21.1572 23.8434 19.6569 22.3431C18.1566 20.8429 16.1218 20 14 20C11.8783 20 9.84346 20.8429 8.34317 22.3431C6.84288 23.8434 6.00003 25.8783 6.00003 28C6.00003 30.1217 6.84288 32.1566 8.34317 33.6569C9.84346 35.1571 11.8783 36 14 36Z" stroke="#036A07" stroke-width="1.5" stroke-linecap="round" stroke-linejoin="round"/>
<path d="M15.771 26.2049C15.555 25.2929 14.455 24.4699 13.134 25.0849C11.813 25.7009 11.603 27.6829 13.601 27.8929C14.504 27.9879 15.093 27.7829 15.631 28.3639C16.171 28.9449 16.271 30.5619 14.893 30.9979C13.515 31.4339 12.151 30.7529 12.002 29.7859M13.986 24.0039V24.8739M13.986 31.1319V32.0039" stroke="#036A07" stroke-width="1.5" stroke-linecap="round" stroke-linejoin="round"/>
</svg>
