<svg width="101" height="50" viewBox="0 0 101 50" fill="none" xmlns="http://www.w3.org/2000/svg">
<path d="M0.551758 2.77778C0.551758 1.24365 1.79541 0 3.32954 0H97.774C99.3081 0 100.552 1.24365 100.552 2.77778V47.2222C100.552 48.7563 99.3081 50 97.774 50H3.32954C1.79541 50 0.551758 48.7563 0.551758 47.2222V2.77778Z" fill="#93ACA5"/>
<path d="M6.10731 5.55556H94.9962V44.4444H6.10731V5.55556Z" fill="#FFE9DD"/>
<path d="M97.774 6.94444C97.774 10.7798 94.6648 13.8889 90.8295 13.8889C86.9942 13.8889 83.8851 10.7798 83.8851 6.94444C83.8851 3.10913 86.9942 0 90.8295 0C94.6648 0 97.774 3.10913 97.774 6.94444Z" fill="#93ACA5"/>
<path d="M14.4406 6.94444C14.4406 10.7798 11.3315 13.8889 7.4962 13.8889C3.66089 13.8889 0.551758 10.7798 0.551758 6.94444C0.551758 3.10913 3.66089 0 7.4962 0C11.3315 0 14.4406 3.10913 14.4406 6.94444Z" fill="#93ACA5"/>
<path d="M25.5518 25C25.5518 28.0682 23.0644 30.5556 19.9962 30.5556C16.928 30.5556 14.4406 28.0682 14.4406 25C14.4406 21.9318 16.928 19.4444 19.9962 19.4444C23.0644 19.4444 25.5518 21.9318 25.5518 25Z" fill="#93ACA5"/>
<path d="M50.4103 28.2611C50.4103 28.9231 50.2357 29.537 49.8867 30.1028C49.5496 30.6565 49.0441 31.1139 48.37 31.475C47.708 31.8241 46.9195 32.0167 46.0047 32.0528V33.5153H44.8492V32.0347C43.5732 31.9264 42.5441 31.5472 41.7617 30.8972C40.9793 30.2352 40.564 29.3384 40.5158 28.2069H43.802C43.8742 28.9292 44.2232 29.3926 44.8492 29.5972V26.7444C43.9103 26.5037 43.158 26.269 42.5922 26.0403C42.0385 25.8116 41.551 25.4444 41.1297 24.9389C40.7084 24.4333 40.4978 23.7412 40.4978 22.8625C40.4978 21.7671 40.901 20.8884 41.7075 20.2264C42.526 19.5644 43.5732 19.1912 44.8492 19.1069V17.6444H46.0047V19.1069C47.2686 19.2032 48.2677 19.5704 49.0019 20.2083C49.7362 20.8463 50.1455 21.731 50.2297 22.8625H46.9256C46.8533 22.2125 46.5464 21.7912 46.0047 21.5986V24.3972C47.0038 24.6741 47.7742 24.9208 48.3158 25.1375C48.8575 25.3542 49.339 25.7153 49.7603 26.2208C50.1936 26.7143 50.4103 27.3944 50.4103 28.2611ZM43.7658 22.7181C43.7658 23.019 43.8561 23.2718 44.0367 23.4764C44.2293 23.681 44.5001 23.8616 44.8492 24.0181V21.5083C44.5121 21.5685 44.2473 21.7009 44.0547 21.9056C43.8621 22.0981 43.7658 22.369 43.7658 22.7181ZM46.0047 29.6514C46.3658 29.5912 46.6487 29.4468 46.8533 29.2181C47.07 28.9894 47.1783 28.7065 47.1783 28.3694C47.1783 28.0565 47.076 27.8037 46.8714 27.6111C46.6788 27.4065 46.3899 27.2319 46.0047 27.0875V29.6514Z" fill="#93ACA5"/>
<path d="M61.139 21.4542H55.5056V23.9458C55.7464 23.681 56.0834 23.4643 56.5167 23.2958C56.9501 23.1273 57.4195 23.0431 57.9251 23.0431C58.8278 23.0431 59.5741 23.2477 60.164 23.6569C60.7658 24.0662 61.2052 24.5958 61.482 25.2458C61.7589 25.8958 61.8973 26.6 61.8973 27.3583C61.8973 28.7667 61.5001 29.8861 60.7056 30.7167C59.9112 31.5352 58.7917 31.9444 57.3473 31.9444C56.3843 31.9444 55.5477 31.7819 54.8376 31.4569C54.1274 31.1199 53.5797 30.6565 53.1945 30.0667C52.8093 29.4769 52.5987 28.7968 52.5626 28.0264H55.5778C55.6501 28.3995 55.8246 28.7125 56.1015 28.9653C56.3783 29.206 56.7575 29.3264 57.239 29.3264C57.8047 29.3264 58.226 29.1458 58.5028 28.7847C58.7797 28.4236 58.9181 27.9421 58.9181 27.3403C58.9181 26.7505 58.7737 26.2991 58.4848 25.9861C58.1959 25.6731 57.7746 25.5167 57.2209 25.5167C56.8116 25.5167 56.4746 25.619 56.2098 25.8236C55.945 26.0162 55.7704 26.275 55.6862 26.6H52.707V18.7458H61.139V21.4542Z" fill="#93ACA5"/>
<path d="M86.6629 25C86.6629 28.0682 84.1756 30.5556 81.1073 30.5556C78.0391 30.5556 75.5518 28.0682 75.5518 25C75.5518 21.9318 78.0391 19.4444 81.1073 19.4444C84.1756 19.4444 86.6629 21.9318 86.6629 25Z" fill="#93ACA5"/>
<path d="M97.774 43.0556C97.774 46.8909 94.6648 50 90.8295 50C86.9942 50 83.8851 46.8909 83.8851 43.0556C83.8851 39.2202 86.9942 36.1111 90.8295 36.1111C94.6648 36.1111 97.774 39.2202 97.774 43.0556Z" fill="#93ACA5"/>
<path d="M14.4406 43.0556C14.4406 46.8909 11.3315 50 7.4962 50C3.66089 50 0.551758 46.8909 0.551758 43.0556C0.551758 39.2202 3.66089 36.1111 7.4962 36.1111C11.3315 36.1111 14.4406 39.2202 14.4406 43.0556Z" fill="#93ACA5"/>
</svg>
