<svg width="41" height="41" viewBox="0 0 41 41" fill="none" xmlns="http://www.w3.org/2000/svg">
<path d="M8.7846 22.447C8.78491 23.6495 8.3518 24.8119 7.56466 25.721C6.77753 26.6302 5.6891 27.2252 4.49888 27.397V31.7327H34.4989V27.397C33.307 27.2271 32.2165 26.633 31.4275 25.7236C30.6386 24.8143 30.2042 23.6508 30.2042 22.447C30.2042 21.2431 30.6386 20.0796 31.4275 19.1703C32.2165 18.2609 33.307 17.6668 34.4989 17.497V13.1612H4.49888V17.497C5.6891 17.6687 6.77753 18.2637 7.56466 19.1729C8.3518 20.082 8.78491 21.2444 8.7846 22.447ZM3.07031 18.1612V12.447C3.07031 12.3532 3.08879 12.2603 3.12468 12.1736C3.16058 12.0869 3.21319 12.0082 3.27952 11.9419C3.34585 11.8756 3.42459 11.8229 3.51125 11.787C3.59791 11.7511 3.6908 11.7327 3.7846 11.7327H35.2132C35.307 11.7327 35.3998 11.7511 35.4865 11.787C35.5732 11.8229 35.6519 11.8756 35.7182 11.9419C35.7846 12.0082 35.8372 12.0869 35.8731 12.1736C35.909 12.2603 35.9275 12.3532 35.9275 12.447V18.1612C35.9275 18.255 35.909 18.3479 35.8731 18.4346C35.8372 18.5212 35.7846 18.6 35.7182 18.6663C35.6519 18.7326 35.5732 18.7853 35.4865 18.8212C35.3998 18.8571 35.307 18.8755 35.2132 18.8755C34.266 18.8755 33.3576 19.2518 32.6878 19.9216C32.018 20.5913 31.6417 21.4998 31.6417 22.447C31.6417 23.3942 32.018 24.3026 32.6878 24.9723C33.3576 25.6421 34.266 26.0184 35.2132 26.0184C35.307 26.0184 35.3998 26.0369 35.4865 26.0728C35.5732 26.1087 35.6519 26.1613 35.7182 26.2276C35.7846 26.2939 35.8372 26.3727 35.8731 26.4593C35.909 26.546 35.9275 26.6389 35.9275 26.7327V32.447C35.9275 32.5408 35.909 32.6336 35.8731 32.7203C35.8372 32.807 35.7846 32.8857 35.7182 32.952C35.6519 33.0184 35.5732 33.071 35.4865 33.1069C35.3998 33.1428 35.307 33.1612 35.2132 33.1612H3.7846C3.6908 33.1612 3.59791 33.1428 3.51125 33.1069C3.42459 33.071 3.34585 33.0184 3.27952 32.952C3.21319 32.8857 3.16058 32.807 3.12468 32.7203C3.08879 32.6336 3.07031 32.5408 3.07031 32.447V26.7327C3.07031 26.6389 3.08879 26.546 3.12468 26.4593C3.16058 26.3727 3.21319 26.2939 3.27952 26.2276C3.34585 26.1613 3.42459 26.1087 3.51125 26.0728C3.59791 26.0369 3.6908 26.0184 3.7846 26.0184C4.2536 26.0184 4.71802 25.926 5.15132 25.7465C5.58463 25.567 5.97834 25.304 6.30998 24.9723C6.64162 24.6407 6.90469 24.247 7.08417 23.8137C7.26365 23.3804 7.35603 22.916 7.35603 22.447C7.35603 21.9779 7.26365 21.5135 7.08417 21.0802C6.90469 20.6469 6.64162 20.2532 6.30998 19.9216C5.97834 19.5899 5.58463 19.3269 5.15132 19.1474C4.71802 18.9679 4.2536 18.8755 3.7846 18.8755C3.6908 18.8755 3.59791 18.8571 3.51125 18.8212C3.42459 18.7853 3.34585 18.7326 3.27952 18.6663C3.21319 18.6 3.16058 18.5212 3.12468 18.4346C3.08879 18.3479 3.07031 18.255 3.07031 18.1612ZM15.2889 10.9341C15.1059 10.9832 14.9109 10.9575 14.7468 10.8628C14.5827 10.7681 14.4629 10.6121 14.4139 10.4291C14.3648 10.2461 14.3905 10.0511 14.4852 9.88701C14.5799 9.72291 14.7359 9.60316 14.9189 9.5541L30.0503 5.49981C30.2333 5.45096 30.4282 5.4768 30.5922 5.57163C30.7561 5.66647 30.8757 5.82254 30.9246 6.00553L31.776 9.18267C31.8251 9.36567 31.7994 9.56066 31.7047 9.72476C31.61 9.88885 31.454 10.0086 31.271 10.0577C31.088 10.1067 30.893 10.0811 30.7289 9.98639C30.5648 9.89168 30.4451 9.73567 30.396 9.55267L29.7303 7.06553L15.2875 10.9341H15.2889ZM24.4989 15.3041C24.4989 15.1147 24.5741 14.933 24.7081 14.799C24.842 14.6651 25.0237 14.5898 25.2132 14.5898C25.4026 14.5898 25.5843 14.6651 25.7182 14.799C25.8522 14.933 25.9275 15.1147 25.9275 15.3041V18.1612C25.9275 18.3507 25.8522 18.5324 25.7182 18.6663C25.5843 18.8003 25.4026 18.8755 25.2132 18.8755C25.0237 18.8755 24.842 18.8003 24.7081 18.6663C24.5741 18.5324 24.4989 18.3507 24.4989 18.1612V15.3041ZM24.4989 21.0184C24.4989 20.8289 24.5741 20.6473 24.7081 20.5133C24.842 20.3794 25.0237 20.3041 25.2132 20.3041C25.4026 20.3041 25.5843 20.3794 25.7182 20.5133C25.8522 20.6473 25.9275 20.8289 25.9275 21.0184V23.8755C25.9275 24.065 25.8522 24.2466 25.7182 24.3806C25.5843 24.5146 25.4026 24.5898 25.2132 24.5898C25.0237 24.5898 24.842 24.5146 24.7081 24.3806C24.5741 24.2466 24.4989 24.065 24.4989 23.8755V21.0184ZM24.4989 26.7327C24.4989 26.5432 24.5741 26.3615 24.7081 26.2276C24.842 26.0936 25.0237 26.0184 25.2132 26.0184C25.4026 26.0184 25.5843 26.0936 25.7182 26.2276C25.8522 26.3615 25.9275 26.5432 25.9275 26.7327V29.5898C25.9275 29.7793 25.8522 29.9609 25.7182 30.0949C25.5843 30.2288 25.4026 30.3041 25.2132 30.3041C25.0237 30.3041 24.842 30.2288 24.7081 30.0949C24.5741 29.9609 24.4989 29.7793 24.4989 29.5898V26.7327Z" fill="#111315" fill-opacity="0.75" stroke="#111315" stroke-opacity="0.75" stroke-width="0.5"/>
</svg>
