<svg width="41" height="41" viewBox="0 0 41 41" fill="none" xmlns="http://www.w3.org/2000/svg">
<g clip-path="url(#clip0_2026_2842)">
<path d="M20.5989 34.6019H2.18455C2.10374 34.6025 2.02373 34.5859 1.94989 34.5531C1.87604 34.5203 1.81006 34.472 1.75637 34.4116C1.70424 34.3541 1.665 34.2861 1.64127 34.2122C1.61755 34.1383 1.6099 34.0602 1.61882 33.9831L4.37336 9.43875C4.39001 9.30084 4.45693 9.17391 4.56131 9.08225C4.66569 8.99059 4.8002 8.94063 4.93911 8.94194H24.4582C24.5368 8.94293 24.6144 8.96002 24.6861 8.99216C24.7578 9.0243 24.8222 9.0708 24.8752 9.1288C24.9283 9.18679 24.9689 9.25505 24.9945 9.32935C25.0201 9.40365 25.0302 9.48241 25.0242 9.56077L24.2375 16.5712C24.6159 16.4653 25.0001 16.3814 25.3882 16.3197L25.7502 13.0949L26.1462 16.2315C26.4269 16.2085 26.7099 16.1937 26.9965 16.1937C27.0872 16.1937 27.1767 16.1982 27.2668 16.2005L26.3946 9.29153C26.3414 8.88589 26.1425 8.51346 25.8348 8.24382C25.5271 7.97417 25.1318 7.82575 24.7227 7.82629H22.7515C22.9626 6.8877 22.9599 5.91364 22.7437 4.97622C22.5274 4.03879 22.1031 3.16202 21.5021 2.4108C20.9011 1.65958 20.1388 1.05315 19.2717 0.636414C18.4046 0.219675 17.4549 0.0032959 16.4928 0.0032959C15.5308 0.0032959 14.581 0.219675 13.7139 0.636414C12.8468 1.05315 12.0846 1.65958 11.4836 2.4108C10.8826 3.16202 10.4582 4.03879 10.242 4.97622C10.0257 5.91364 10.023 6.8877 10.2342 7.82629H8.3179C8.19112 7.37224 8.12636 6.90313 8.12538 6.43172C8.12616 5.60135 8.32242 4.78283 8.69828 4.04239C9.07413 3.30195 9.61902 2.66039 10.2889 2.16964C10.8594 1.34239 11.5886 0.636681 12.4341 0.0934761C10.9236 0.33161 9.54754 1.10068 8.55327 2.26247C7.559 3.42425 7.01169 4.90257 7.00972 6.43172C7.01094 6.90111 7.06476 7.36889 7.17017 7.82629H4.93911C4.52581 7.82477 4.12648 7.97573 3.81755 8.25028C3.50863 8.52483 3.31181 8.90367 3.26479 9.31429L0.510251 33.8585C0.484292 34.0916 0.50777 34.3275 0.579155 34.5509C0.650539 34.7744 0.768226 34.9802 0.924537 35.1551C1.08322 35.3322 1.27745 35.4738 1.49456 35.5707C1.71168 35.6676 1.94679 35.7176 2.18455 35.7175H22.3383C22.1647 35.6294 21.9934 35.5361 21.8244 35.4377C21.3965 35.1886 20.987 34.9093 20.5989 34.6019ZM16.4928 1.13238C17.8978 1.13397 19.2448 1.69281 20.2383 2.68628C21.2318 3.67975 21.7906 5.02674 21.7922 6.43172C21.791 6.90319 21.7259 7.37231 21.5987 7.82629H19.6813C19.8703 6.99656 19.8905 6.13728 19.7406 5.2996C19.5907 4.46191 19.2738 3.66296 18.8087 2.9503C18.1753 2.52865 17.4382 2.28898 16.678 2.25741C17.3145 2.75136 17.8297 3.38422 18.1843 4.10767C18.539 4.83112 18.7236 5.62603 18.7241 6.43172C18.7231 6.90313 18.6584 7.37224 18.5316 7.82629H11.387C11.2598 7.37231 11.1947 6.90319 11.1934 6.43172C11.195 5.02674 11.7539 3.67975 12.7474 2.68628C13.7408 1.69281 15.0878 1.13397 16.4928 1.13238Z" fill="#111315" fill-opacity="0.75" stroke="#111315" stroke-opacity="0.75" stroke-width="0.25"/>
<path d="M26.997 17.3093C25.1766 17.3093 23.3971 17.8492 21.8835 18.8605C20.3699 19.8719 19.1902 21.3094 18.4936 22.9912C17.7969 24.6731 17.6147 26.5237 17.9698 28.3091C18.325 30.0945 19.2016 31.7345 20.4888 33.0218C21.776 34.309 23.4161 35.1856 25.2015 35.5407C26.9869 35.8958 28.8375 35.7136 30.5194 35.0169C32.2012 34.3203 33.6387 33.1406 34.65 31.627C35.6614 30.1134 36.2012 28.3338 36.2012 26.5134C36.1984 24.0732 35.2278 21.7337 33.5023 20.0082C31.7768 18.2827 29.4373 17.3121 26.997 17.3093ZM26.997 34.6019C25.3973 34.6019 23.8335 34.1275 22.5033 33.2387C21.1732 32.35 20.1365 31.0867 19.5243 29.6087C18.9121 28.1307 18.7519 26.5044 19.064 24.9354C19.3761 23.3664 20.1465 21.9252 21.2777 20.794C22.4089 19.6628 23.8501 18.8925 25.4191 18.5804C26.9881 18.2683 28.6144 18.4285 30.0924 19.0407C31.5704 19.6529 32.8336 20.6896 33.7224 22.0197C34.6112 23.3499 35.0855 24.9137 35.0855 26.5134C35.0831 28.6579 34.2301 30.7138 32.7138 32.2302C31.1974 33.7465 29.1415 34.5995 26.997 34.6019Z" fill="#111315" fill-opacity="0.75" stroke="#111315" stroke-opacity="0.75" stroke-width="0.25"/>
<path d="M33.1328 25.9556H27.5545V20.3773C27.5545 20.2294 27.4957 20.0875 27.3911 19.9829C27.2865 19.8783 27.1446 19.8195 26.9967 19.8195C26.8487 19.8195 26.7069 19.8783 26.6022 19.9829C26.4976 20.0875 26.4389 20.2294 26.4389 20.3773V25.9556H20.8606C20.7126 25.9556 20.5707 26.0144 20.4661 26.119C20.3615 26.2236 20.3027 26.3655 20.3027 26.5134C20.3027 26.6614 20.3615 26.8033 20.4661 26.9079C20.5707 27.0125 20.7126 27.0712 20.8606 27.0712H26.4389V32.6495C26.4389 32.7974 26.4976 32.9393 26.6022 33.0439C26.7068 33.1486 26.8487 33.2073 26.9967 33.2073C27.1446 33.2073 27.2865 33.1486 27.3911 33.0439C27.4957 32.9393 27.5545 32.7974 27.5545 32.6495V27.0712H33.1328C33.2807 27.0712 33.4226 27.0125 33.5272 26.9079C33.6319 26.8033 33.6906 26.6614 33.6906 26.5134C33.6906 26.3655 33.6319 26.2236 33.5272 26.119C33.4226 26.0144 33.2807 25.9556 33.1328 25.9556Z" fill="#111315" fill-opacity="0.75" stroke="#111315" stroke-opacity="0.75" stroke-width="0.25"/>
</g>
<defs>
<clipPath id="clip0_2026_2842">
<rect width="40" height="40" fill="white" transform="translate(0.5 0.0183716)"/>
</clipPath>
</defs>
</svg>
