<svg width="40" height="41" viewBox="0 0 40 41" fill="none" xmlns="http://www.w3.org/2000/svg">
<path d="M14.9987 15.0184C14.9987 14.56 14.6237 14.185 14.1654 14.185C13.707 14.185 13.332 14.56 13.332 15.0184C13.332 16.3934 14.457 17.5184 15.832 17.5184C15.832 17.9767 16.207 18.3517 16.6654 18.3517C17.1237 18.3517 17.4987 17.9767 17.4987 17.5184C18.8737 17.5184 19.9987 16.3934 19.9987 15.0184C19.9987 13.6434 18.8737 12.5184 17.4987 12.5184V10.8517C17.957 10.8517 18.332 11.2267 18.332 11.685C18.332 12.1434 18.707 12.5184 19.1654 12.5184C19.6237 12.5184 19.9987 12.1434 19.9987 11.685C19.9987 10.31 18.8737 9.18502 17.4987 9.18502C17.4987 8.72668 17.1237 8.35168 16.6654 8.35168C16.207 8.35168 15.832 8.72668 15.832 9.18502C14.457 9.18502 13.332 10.31 13.332 11.685C13.332 13.06 14.457 14.185 15.832 14.185V15.8517C15.3737 15.8517 14.9987 15.4767 14.9987 15.0184ZM17.4987 14.185C17.957 14.185 18.332 14.56 18.332 15.0184C18.332 15.4767 17.957 15.8517 17.4987 15.8517V14.185ZM14.9987 11.685C14.9987 11.2267 15.3737 10.8517 15.832 10.8517V12.5184C15.3737 12.5184 14.9987 12.1434 14.9987 11.685Z" fill="#111315" fill-opacity="0.75"/>
<path d="M5.83268 37.5184H27.4993C28.416 37.5184 29.166 36.7684 29.166 35.8517V17.5184H34.166C35.0827 17.5184 35.8327 16.7684 35.8327 15.8517V6.68504C35.8327 4.38504 33.966 2.51837 31.666 2.51837H7.49935C5.65768 2.51837 4.16602 4.01004 4.16602 5.8517V35.8517C4.16602 36.7684 4.91602 37.5184 5.83268 37.5184ZM29.166 6.68504C29.166 5.31004 30.291 4.18504 31.666 4.18504C33.041 4.18504 34.166 5.31004 34.166 6.68504V15.8517H29.166V6.68504ZM5.83268 5.8517C5.83268 4.93504 6.58268 4.18504 7.49935 4.18504H28.3577C27.8243 4.88504 27.4993 5.74337 27.4993 6.68504V16.685V35.8517H5.83268V5.8517Z" fill="#111315" fill-opacity="0.75"/>
<path d="M8.79167 22.66C8.75 22.6267 8.7 22.6017 8.65 22.585C8.6 22.56 8.55 22.5434 8.49167 22.535C8.225 22.4767 7.94167 22.5684 7.74167 22.76C7.59167 22.9184 7.5 23.135 7.5 23.3517C7.5 23.5684 7.59167 23.785 7.74167 23.9434C7.9 24.0934 8.11667 24.185 8.33333 24.185C8.55 24.185 8.76667 24.0934 8.925 23.9434C9.075 23.785 9.16667 23.5684 9.16667 23.3517C9.16667 23.135 9.075 22.9184 8.925 22.76C8.88333 22.7267 8.84167 22.6934 8.79167 22.66Z" fill="#111315" fill-opacity="0.75"/>
<path d="M25 22.5184H10.8333C10.375 22.5184 10 22.8934 10 23.3517C10 23.81 10.375 24.185 10.8333 24.185H25C25.4583 24.185 25.8333 23.81 25.8333 23.3517C25.8333 22.8934 25.4583 22.5184 25 22.5184Z" fill="#111315" fill-opacity="0.75"/>
<path d="M8.925 26.0934C8.88333 26.06 8.84167 26.0267 8.79167 25.9934C8.75 25.96 8.7 25.935 8.65 25.9184C8.6 25.8934 8.55 25.8767 8.49167 25.8684C8.225 25.8184 7.94167 25.9017 7.74167 26.0934C7.66667 26.1767 7.60833 26.2684 7.56667 26.3684C7.525 26.4684 7.5 26.5767 7.5 26.685C7.5 26.9017 7.59167 27.1184 7.74167 27.2767C7.9 27.4267 8.11667 27.5184 8.33333 27.5184C8.55 27.5184 8.76667 27.4267 8.925 27.2767C9.075 27.1184 9.16667 26.9017 9.16667 26.685C9.16667 26.5767 9.14167 26.4684 9.1 26.3684C9.05833 26.2684 9 26.1767 8.925 26.0934Z" fill="#111315" fill-opacity="0.75"/>
<path d="M25 25.8517H10.8333C10.375 25.8517 10 26.2267 10 26.685C10 27.1434 10.375 27.5184 10.8333 27.5184H25C25.4583 27.5184 25.8333 27.1434 25.8333 26.685C25.8333 26.2267 25.4583 25.8517 25 25.8517Z" fill="#111315" fill-opacity="0.75"/>
<path d="M8.925 29.4267C8.88333 29.3934 8.84167 29.3601 8.79167 29.3267C8.75 29.2934 8.7 29.2684 8.65 29.2517C8.6 29.2267 8.55 29.2101 8.49167 29.2017C8.225 29.1517 7.94167 29.2351 7.74167 29.4267C7.66667 29.5101 7.60833 29.6017 7.56667 29.7017C7.525 29.8017 7.5 29.9101 7.5 30.0184C7.5 30.2351 7.59167 30.4517 7.74167 30.6101C7.9 30.7601 8.11667 30.8517 8.33333 30.8517C8.55 30.8517 8.76667 30.7601 8.925 30.6101C9.075 30.4517 9.16667 30.2351 9.16667 30.0184C9.16667 29.9101 9.14167 29.8017 9.1 29.7017C9.05833 29.6017 9 29.5101 8.925 29.4267Z" fill="#111315" fill-opacity="0.75"/>
<path d="M25 29.1851H10.8333C10.375 29.1851 10 29.5601 10 30.0184C10 30.4767 10.375 30.8517 10.8333 30.8517H25C25.4583 30.8517 25.8333 30.4767 25.8333 30.0184C25.8333 29.5601 25.4583 29.1851 25 29.1851Z" fill="#111315" fill-opacity="0.75"/>
<path d="M8.925 32.7601C8.60833 32.4517 8.05 32.4517 7.74167 32.7601C7.66667 32.8434 7.60833 32.9351 7.56667 33.0351C7.525 33.1351 7.5 33.2434 7.5 33.3517C7.5 33.5684 7.59167 33.7851 7.74167 33.9434C7.9 34.0934 8.11667 34.1851 8.33333 34.1851C8.55 34.1851 8.76667 34.0934 8.925 33.9434C9.075 33.7851 9.16667 33.5684 9.16667 33.3517C9.16667 33.2434 9.14167 33.1351 9.1 33.0351C9.05833 32.9351 9 32.8434 8.925 32.7601Z" fill="#111315" fill-opacity="0.75"/>
<path d="M25 32.5184H10.8333C10.375 32.5184 10 32.8934 10 33.3517C10 33.81 10.375 34.185 10.8333 34.185H25C25.4583 34.185 25.8333 33.81 25.8333 33.3517C25.8333 32.8934 25.4583 32.5184 25 32.5184Z" fill="#111315" fill-opacity="0.75"/>
</svg>
