<svg width="51" height="51" viewBox="0 0 51 51" fill="none" xmlns="http://www.w3.org/2000/svg">
<path d="M25.2393 3.81874C26.4617 3.93275 27.6264 4.39271 28.5967 5.14491L28.8037 5.28749C29.2887 5.61021 29.8121 5.87155 30.3623 6.06483C31.0465 6.19644 31.7459 6.22975 32.4395 6.16347C33.5525 6.01003 34.685 6.15721 35.7197 6.58827L35.9258 6.67909L35.9365 6.68398L35.9463 6.69081C36.9346 7.39082 37.7009 8.35987 38.1543 9.4828L38.2646 9.71523C38.53 10.249 38.861 10.7481 39.25 11.2006C39.7696 11.6485 40.3506 12.0201 40.9756 12.3031C42.0279 12.7282 42.9447 13.4286 43.6318 14.3285L43.7666 14.5111L43.7734 14.5209L43.7783 14.5307C44.279 15.6198 44.4568 16.8296 44.293 18.017L44.2939 18.018C44.2277 18.711 44.2598 19.4103 44.3906 20.0941C44.6115 20.7222 44.9206 21.3158 45.3086 21.8568L45.4473 22.0404C46.1198 22.9729 46.5314 24.0697 46.6387 25.2172L46.6396 25.2289L46.6387 25.2406C46.5243 26.4647 46.0628 27.631 45.3086 28.6019C44.9208 29.1427 44.6113 29.7359 44.3906 30.3637C44.2599 31.0476 44.228 31.7467 44.2939 32.4398C44.4583 33.6279 44.2787 34.8385 43.7773 35.9281L43.7725 35.9389L43.7666 35.9476C43.0655 36.9373 42.0946 37.7053 40.9697 38.1586L40.9688 38.1576C40.3475 38.44 39.77 38.81 39.2529 39.2553C38.8064 39.7737 38.4366 40.3537 38.1543 40.9769C37.7008 42.0992 36.9348 43.0679 35.9473 43.768L35.9375 43.7748L35.9268 43.7797C34.837 44.28 33.6273 44.458 32.4395 44.2943V44.2953C31.746 44.228 31.0463 44.2606 30.3623 44.393C29.733 44.6142 29.1386 44.9247 28.5967 45.3139C27.6265 46.0662 26.4617 46.5261 25.2393 46.64L25.2275 46.641L25.2158 46.64C23.9937 46.5259 22.8295 46.0658 21.8594 45.3139L21.6523 45.1713C21.1671 44.8482 20.6434 44.5862 20.0928 44.393C19.4087 44.2617 18.709 44.2292 18.0156 44.2953L18.0146 44.2943C16.8275 44.4579 15.6183 44.2801 14.5293 43.7797L14.5186 43.7748L14.5088 43.768C13.5208 43.0677 12.7545 42.0986 12.3008 40.976C12.0184 40.3524 11.6478 39.773 11.2012 39.2543C10.6827 38.8082 10.1035 38.438 9.48047 38.1557V38.1547C8.35785 37.7011 7.38837 36.9357 6.68848 35.9476L6.68164 35.9379L6.67676 35.9271C6.17538 34.8361 5.99675 33.6242 6.16211 32.435C6.22767 31.7433 6.19443 31.0459 6.06348 30.3637C5.84309 29.7358 5.53454 29.1425 5.14648 28.6019L5.00781 28.4174C4.33575 27.4847 3.92447 26.388 3.81738 25.2406L3.81543 25.2289L3.81738 25.2172C3.9317 23.9934 4.39276 22.8278 5.14648 21.8568C5.53472 21.3161 5.84306 20.7223 6.06348 20.0941C6.19491 19.4101 6.22834 18.7104 6.16211 18.017V18.016C5.99835 16.8288 6.17715 15.6196 6.67773 14.5307L6.68262 14.5199L6.68945 14.5101C7.38954 13.5224 8.35811 12.7559 9.48047 12.3021C10.1027 12.0204 10.6813 11.6508 11.1992 11.2055C11.6467 10.6861 12.0188 10.1063 12.3018 9.48183C12.7553 8.3591 13.5216 7.38978 14.5098 6.68983L14.5195 6.683L14.5303 6.67812C15.6215 6.17773 16.8333 5.9991 18.0225 6.16347H18.0215C18.7131 6.22927 19.4105 6.19588 20.0928 6.06483C20.6433 5.87163 21.1672 5.61051 21.6523 5.28749L21.8584 5.14491C22.8287 4.39266 23.9934 3.93293 25.2158 3.81874L25.2275 3.81679L25.2393 3.81874ZM25.2275 5.64589C24.3606 5.77237 23.5425 6.12676 22.8574 6.67323L22.8516 6.67812C22.154 7.17458 21.3851 7.56238 20.5713 7.82851L20.5586 7.83241C19.6955 8.01546 18.8093 8.06764 17.9307 7.98769L17.9229 7.98671C17.0835 7.86193 16.226 7.95796 15.4355 8.26601C14.7638 8.80293 14.245 9.50731 13.9307 10.308L13.9277 10.3139C13.5642 11.1073 13.0823 11.8414 12.499 12.4906L12.4902 12.5004C11.8411 13.0835 11.1067 13.5646 10.3135 13.9281L10.3076 13.931C9.50697 14.2456 8.80287 14.7644 8.26562 15.4359C7.95811 16.2266 7.86131 17.0838 7.98535 17.9232L7.98633 17.9301C8.06637 18.8091 8.01361 19.6956 7.83008 20.559L7.82715 20.5726C7.56133 21.3865 7.17327 22.1554 6.67676 22.8529L6.67285 22.8588L6.57422 22.7807L6.67188 22.8588C6.12541 23.5439 5.77101 24.3619 5.64453 25.2289C5.77092 26.0962 6.12519 26.9147 6.67188 27.6L6.67676 27.6059C7.1112 28.2163 7.46237 28.8814 7.72168 29.5834L7.82715 29.8861L7.83105 29.8988L7.89355 30.224C8.0251 30.9837 8.05634 31.758 7.98633 32.5267L7.98535 32.5336C7.8612 33.373 7.9583 34.2302 8.26562 35.0209C8.73501 35.6081 9.33106 36.0797 10.0088 36.3988L10.3066 36.5267L10.3125 36.5297C11.0068 36.8478 11.656 37.2556 12.2422 37.7435L12.4893 37.9584L12.499 37.9672L12.7129 38.2142C13.1311 38.7167 13.4905 39.2654 13.7852 39.849L13.9268 40.143L13.9297 40.1498C14.2442 40.9502 14.7633 41.6537 15.4346 42.1908C16.2253 42.4987 17.0823 42.5955 17.9219 42.4711L17.9355 42.4691C18.253 42.4562 18.5774 42.4438 18.9023 42.4437C19.461 42.4323 20.0188 42.4942 20.5615 42.6273L20.5713 42.6303C21.2834 42.8629 21.9613 43.1885 22.5869 43.599L22.8516 43.7807L22.8574 43.7846L23.1221 43.9818C23.749 44.4169 24.4696 44.7003 25.2275 44.8109C26.0948 44.6847 26.9136 44.3315 27.5986 43.7846L27.6035 43.7807L27.8691 43.6C28.4949 43.1894 29.1725 42.863 29.8848 42.6303L29.8975 42.6264L30.2227 42.5639C30.9827 42.4317 31.7572 42.4003 32.5264 42.4711L32.5332 42.4721C33.3731 42.5967 34.2305 42.4981 35.0215 42.1898C35.6921 41.6529 36.2112 40.9506 36.5254 40.1508L36.5283 40.1439C36.892 39.351 37.3732 38.6172 37.9561 37.9682L37.9648 37.9584L37.9658 37.9594C38.615 37.3765 39.3485 36.8944 40.1416 36.5307L40.1475 36.5277L40.1484 36.5287C40.9493 36.2141 41.6519 35.6935 42.1895 35.0219C42.4968 34.231 42.5949 33.3742 42.4707 32.5346L42.4697 32.5277C42.3895 31.649 42.4417 30.763 42.625 29.8998L42.6279 29.8871H42.6289C42.8949 29.0732 43.2828 28.3045 43.7793 27.6068L43.7832 27.601L43.9805 27.3363C44.416 26.7089 44.6992 25.9875 44.8096 25.2289C44.683 24.3619 44.33 23.5437 43.7832 22.8588L43.7783 22.8529C43.282 22.1554 42.8949 21.3864 42.6289 20.5726L42.624 20.56V20.559C42.4408 19.6958 42.3895 18.8098 42.4697 17.931V17.9242L42.5938 17.9428L42.4707 17.9242C42.5949 17.0843 42.4972 16.227 42.1895 15.4359C41.6527 14.7648 40.9496 14.246 40.1494 13.932L40.1426 13.9291C39.3493 13.5655 38.616 13.0835 37.9668 12.5004L37.9561 12.4916V12.4906C37.3734 11.8416 36.8928 11.1076 36.5293 10.3148L36.5264 10.309C36.2121 9.50854 35.6928 8.80502 35.0215 8.26796C34.2306 7.95967 33.373 7.86203 32.5332 7.98671L32.5264 7.98769C31.6472 8.06741 30.761 8.0147 29.8975 7.83144L29.8848 7.82851C29.0709 7.5626 28.3022 7.17434 27.6045 6.67812L27.5986 6.67421C26.9133 6.12722 26.095 5.7724 25.2275 5.64589Z" fill="#373535" stroke="#373535" stroke-width="0.25"/>
<path d="M25.2287 40.9971C22.1102 40.9971 19.0616 40.0723 16.4686 38.3397C13.8756 36.6071 11.8546 34.1445 10.6612 31.2633C9.46777 28.3822 9.15551 25.2118 9.76392 22.1531C10.3723 19.0945 11.8741 16.2849 14.0792 14.0798C16.2844 11.8746 19.0939 10.3729 22.1526 9.76447C25.2112 9.15606 28.3816 9.46832 31.2628 10.6617C34.144 11.8552 36.6066 13.8762 38.3392 16.4692C40.0717 19.0622 40.9965 22.1107 40.9965 25.2293C40.9917 29.4097 39.3289 33.4175 36.3729 36.3735C33.4169 39.3295 29.4091 40.9923 25.2287 40.9971ZM25.2287 11.0383C22.422 11.0383 19.6783 11.8706 17.3446 13.4299C15.0109 14.9892 13.192 17.2055 12.1179 19.7986C11.0439 22.3917 10.7628 25.245 11.3104 27.9978C11.858 30.7506 13.2095 33.2792 15.1942 35.2638C17.1788 37.2485 19.7074 38.6 22.4602 39.1476C25.213 39.6952 28.0663 39.4141 30.6594 38.3401C33.2525 37.266 35.4688 35.4471 37.0281 33.1134C38.5874 30.7797 39.4197 28.036 39.4197 25.2293C39.4156 21.4669 37.9191 17.8598 35.2587 15.1993C32.5982 12.5389 28.9911 11.0424 25.2287 11.0383Z" fill="#373535"/>
<path d="M20.4973 24.4409C19.6612 24.44 18.8596 24.1074 18.2684 23.5162C17.6772 22.925 17.3447 22.1234 17.3438 21.2873V19.7106C17.3438 18.8742 17.676 18.0721 18.2674 17.4807C18.8588 16.8893 19.6609 16.557 20.4973 16.557C21.3337 16.557 22.1358 16.8893 22.7272 17.4807C23.3186 18.0721 23.6509 18.8742 23.6509 19.7106V21.2873C23.6499 22.1234 23.3174 22.925 22.7262 23.5162C22.135 24.1074 21.3334 24.44 20.4973 24.4409ZM20.4973 18.1338C20.0792 18.1342 19.6784 18.3005 19.3828 18.5961C19.0872 18.8917 18.9209 19.2925 18.9205 19.7106V21.2873C18.9205 21.7055 19.0867 22.1066 19.3824 22.4023C19.6781 22.698 20.0791 22.8641 20.4973 22.8641C20.9155 22.8641 21.3166 22.698 21.6123 22.4023C21.908 22.1066 22.0741 21.7055 22.0741 21.2873V19.7106C22.0737 19.2925 21.9074 18.8917 21.6118 18.5961C21.3162 18.3005 20.9154 18.1342 20.4973 18.1338Z" fill="#373535"/>
<path d="M29.9582 33.9016C29.1221 33.9007 28.3205 33.5682 27.7293 32.9769C27.1381 32.3857 26.8056 31.5841 26.8047 30.748V29.1712C26.8047 28.3349 27.1369 27.5327 27.7283 26.9413C28.3198 26.3499 29.1219 26.0177 29.9582 26.0177C30.7946 26.0177 31.5967 26.3499 32.1881 26.9413C32.7796 27.5327 33.1118 28.3349 33.1118 29.1712V30.748C33.1109 31.5841 32.7784 32.3857 32.1872 32.9769C31.596 33.5682 30.7944 33.9007 29.9582 33.9016ZM29.9582 27.5944C29.5402 27.5949 29.1394 27.7612 28.8438 28.0568C28.5482 28.3524 28.3819 28.7532 28.3815 29.1712V30.748C28.3815 31.1662 28.5476 31.5673 28.8433 31.863C29.139 32.1587 29.5401 32.3248 29.9582 32.3248C30.3764 32.3248 30.7775 32.1587 31.0732 31.863C31.3689 31.5673 31.535 31.1662 31.535 30.748V29.1712C31.5345 28.7532 31.3683 28.3524 31.0727 28.0568C30.7771 27.7612 30.3763 27.5949 29.9582 27.5944Z" fill="#373535"/>
<path d="M22.03 33.2244C21.8987 33.2242 21.7696 33.1912 21.6542 33.1285C21.5389 33.0658 21.4411 32.9753 21.3696 32.8652C21.298 32.7551 21.2551 32.6289 21.2447 32.4981C21.2342 32.3672 21.2566 32.2358 21.3098 32.1158L27.7046 17.703C27.7895 17.5119 27.9468 17.3623 28.1419 17.2871C28.2385 17.2499 28.3415 17.2321 28.445 17.2347C28.5485 17.2373 28.6505 17.2603 28.7452 17.3023C28.8398 17.3443 28.9252 17.4045 28.9966 17.4795C29.0679 17.5546 29.1238 17.6429 29.161 17.7395C29.1982 17.8362 29.2161 17.9392 29.2135 18.0427C29.2109 18.1462 29.1879 18.2482 29.1459 18.3428L22.751 32.7556C22.6891 32.8951 22.588 33.0136 22.46 33.0968C22.332 33.1801 22.1826 33.2244 22.03 33.2244Z" fill="#373535"/>
</svg>
