<svg width="50" height="50" viewBox="0 0 50 50" fill="none" xmlns="http://www.w3.org/2000/svg">
<path d="M4.99951 37.6698L5 11.5676C5.00001 10.8941 5.6522 10.4132 6.29556 10.6123L8.4242 11.2708C13.9909 12.9931 20.0092 12.9931 25.5759 11.2708C31.6609 9.38823 38.268 9.56844 44.2235 11.7795L45 12.0678L44.9995 38.6977C44.9995 39.0991 44.5993 39.3775 44.223 39.2378C38.2675 37.0268 31.6604 36.8466 25.5753 38.7292C20.0087 40.4514 13.9903 40.4514 8.42369 38.7292L4.99951 37.6698Z" fill="#FE6464"/>
<path d="M29.9995 24.9792C29.9995 27.7406 27.7609 29.9792 24.9995 29.9792C22.2381 29.9792 19.9995 27.7406 19.9995 24.9792C19.9995 22.2177 22.2381 19.9792 24.9995 19.9792C27.7609 19.9792 29.9995 22.2177 29.9995 24.9792Z" fill="#FE6464"/>
<path d="M4.99951 37.6698L5 11.5676C5.00001 10.8941 5.6522 10.4132 6.29556 10.6123L8.4242 11.2708C13.9909 12.9931 20.0092 12.9931 25.5759 11.2708C31.6609 9.38823 38.268 9.56844 44.2235 11.7795L45 12.0678L44.9995 38.6977C44.9995 39.0991 44.5993 39.3775 44.223 39.2378C38.2675 37.0268 31.6604 36.8466 25.5753 38.7292C20.0087 40.4514 13.9903 40.4514 8.42369 38.7292L4.99951 37.6698Z" stroke="#FCDFDC" stroke-width="2" stroke-linejoin="round"/>
<path d="M29.9995 24.9792C29.9995 27.7406 27.7609 29.9792 24.9995 29.9792C22.2381 29.9792 19.9995 27.7406 19.9995 24.9792C19.9995 22.2177 22.2381 19.9792 24.9995 19.9792C27.7609 19.9792 29.9995 22.2177 29.9995 24.9792Z" stroke="#FCDFDC" stroke-width="2" stroke-linejoin="round"/>
</svg>
