<svg width="300" height="300" viewBox="0 0 300 300" fill="none" xmlns="http://www.w3.org/2000/svg">
<g clip-path="url(#clip0_802_30253)">
<mask id="mask0_802_30253" style="mask-type:luminance" maskUnits="userSpaceOnUse" x="0" y="0" width="300" height="300">
<path d="M300 0H0V300H300V0Z" fill="white"/>
</mask>
<g mask="url(#mask0_802_30253)">
<path d="M300 0H0V300H300V0Z" fill="#E9F7FF"/>
</g>
<mask id="mask1_802_30253" style="mask-type:luminance" maskUnits="userSpaceOnUse" x="0" y="0" width="300" height="300">
<path d="M300 0H0V300H300V0Z" fill="white"/>
</mask>
<g mask="url(#mask1_802_30253)">
<path d="M300 244.799H0V300H300V244.799Z" fill="#D3E9F4"/>
</g>
<mask id="mask2_802_30253" style="mask-type:luminance" maskUnits="userSpaceOnUse" x="0" y="0" width="300" height="300">
<path d="M300 0H0V300H300V0Z" fill="white"/>
</mask>
<g mask="url(#mask2_802_30253)">
<path d="M300 239.543H0V244.774H300V239.543Z" fill="#B8D5E0"/>
</g>
<mask id="mask3_802_30253" style="mask-type:luminance" maskUnits="userSpaceOnUse" x="0" y="0" width="300" height="300">
<path d="M300 0H0V300H300V0Z" fill="white"/>
</mask>
<g mask="url(#mask3_802_30253)">
<path d="M51.1338 -24.6235H48.5124V15.0899H51.1338V-24.6235Z" fill="#354B61"/>
<path d="M54.3396 24.4797H45.3072V14.6385C45.3072 13.5411 46.1964 12.6519 47.2938 12.6519H52.3524C53.4498 12.6519 54.339 13.5417 54.339 14.6385L54.3396 24.4797Z" fill="#283D4F"/>
<path d="M49.8234 21.6846C31.329 21.6846 23.157 33.0108 23.157 33.0108H49.8234H76.4898C76.4898 33.0108 68.3178 21.6846 49.8234 21.6846Z" fill="#354B61"/>
<g opacity="0.5">
<path d="M54.3396 21.9246V14.3886C54.3396 13.4298 53.5626 12.6528 52.6032 12.6528H49.7472C50.706 12.6528 51.4836 13.4298 51.4836 14.3886V21.9246C66.795 23.5452 73.6338 33.0108 73.6338 33.0108H76.4898C76.4898 33.0108 69.651 23.5452 54.3396 21.9246Z" fill="#1B2E3D"/>
</g>
<path d="M76.4898 33.0107H49.8234H23.157L-7.03799 144.614H49.8234H106.685L76.4898 33.0107Z" fill="url(#paint0_linear_802_30253)"/>
<path d="M251.487 -24.6235H248.866V15.0899H251.487V-24.6235Z" fill="#354B61"/>
<path d="M254.693 24.4797H245.66V14.6385C245.66 13.5411 246.55 12.6519 247.647 12.6519H252.706C253.803 12.6519 254.692 13.5417 254.692 14.6385V24.4797H254.693Z" fill="#283D4F"/>
<path d="M250.177 21.6846C231.682 21.6846 223.51 33.0108 223.51 33.0108H250.177H276.843C276.843 33.0108 268.671 21.6846 250.177 21.6846Z" fill="#354B61"/>
<g opacity="0.5">
<path d="M254.693 21.9246V14.3886C254.693 13.4298 253.915 12.6528 252.956 12.6528H250.1C251.059 12.6528 251.837 13.4298 251.837 14.3886V21.9246C267.148 23.5452 273.987 33.0108 273.987 33.0108H276.843C276.843 33.0108 270.004 23.5452 254.693 21.9246Z" fill="#1B2E3D"/>
</g>
<path d="M276.843 33.0107H250.177H223.51L193.315 144.614H250.177H307.038L276.843 33.0107Z" fill="url(#paint1_linear_802_30253)"/>
<path d="M151.31 -24.6235H148.689V15.0899H151.31V-24.6235Z" fill="#354B61"/>
<path d="M154.516 24.4797H145.484V14.6385C145.484 13.5411 146.373 12.6519 147.47 12.6519H152.529C153.626 12.6519 154.516 13.5417 154.516 14.6385V24.4797H154.516Z" fill="#283D4F"/>
<path d="M150 21.6846C131.506 21.6846 123.334 33.0108 123.334 33.0108H150H176.666C176.666 33.0108 168.494 21.6846 150 21.6846Z" fill="#354B61"/>
<g opacity="0.5">
<path d="M154.516 21.9246V14.3886C154.516 13.4298 153.739 12.6528 152.78 12.6528H149.924C150.883 12.6528 151.661 13.4298 151.661 14.3886V21.9246C166.972 23.5452 173.811 33.0108 173.811 33.0108H176.667C176.667 33.0108 169.828 23.5452 154.516 21.9246Z" fill="#1B2E3D"/>
</g>
<path d="M176.666 33.0107H150H123.334L93.1386 144.614H150H206.861L176.666 33.0107Z" fill="url(#paint2_linear_802_30253)"/>
</g>
<path d="M150 270.498C229.576 270.498 294.086 267.698 294.086 264.244C294.086 260.789 229.576 257.989 150 257.989C70.4236 257.989 5.9142 260.789 5.9142 264.244C5.9142 267.698 70.4236 270.498 150 270.498Z" fill="#B8D5E0"/>
<path d="M102.227 151.621H57.8682V160.887H102.227V151.621Z" fill="#8CA4B6"/>
<path d="M98.1546 140.898H61.941V151.621H98.1546V140.898Z" fill="#ACC4D4"/>
<path d="M82.2252 130.174H77.8698V140.898H82.2252V130.174Z" fill="#ACC4D4"/>
<path d="M92.3874 121.448H67.7082V134.668H92.3874V121.448Z" fill="#8CA4B6"/>
<path d="M118.969 246.187L118.665 241.107H126.835L126.434 248.492H119.573L118.969 246.187Z" fill="#FFAD97"/>
<path d="M149.482 246.616L149.647 241.107H141.478L141.878 248.492H148.739L149.482 246.616Z" fill="#FFAD97"/>
<path d="M102.823 253.963C103.955 252.306 105.742 251.146 107.807 250.835C107.807 250.835 109.672 251.323 110.569 253.963H128.951V256.538H101.753C101.959 255.597 102.299 254.727 102.823 253.963Z" fill="white"/>
<path d="M129.268 256.855H101.359L101.443 256.47C101.672 255.427 102.038 254.549 102.561 253.784C103.762 252.027 105.657 250.838 107.76 250.522L107.824 250.512L107.887 250.528C107.968 250.549 109.825 251.064 110.792 253.646H129.269L129.268 256.855ZM102.156 256.221H128.635V254.28H110.342L110.269 254.065C109.519 251.862 108.093 251.266 107.783 251.16C105.882 251.466 104.173 252.55 103.084 254.142C102.673 254.743 102.367 255.427 102.156 256.221Z" fill="#222930"/>
<path d="M111.1 249.175C112.627 249.718 113.589 250.415 113.601 250.424L114.008 249.876C113.962 249.842 113.185 249.282 111.924 248.76L113.162 248.136C114.653 248.799 115.572 249.578 115.583 249.588L116.032 249.074C115.987 249.036 115.217 248.382 113.938 247.745L118.208 245.593C118.208 245.593 120.743 247.846 123.197 247.846C125.652 247.846 127.222 247.002 127.222 247.002L128.952 253.963H110.569C109.672 251.323 107.807 250.835 107.807 250.835L111.1 249.175Z" fill="#222930"/>
<path d="M113.601 250.424C113.589 250.415 112.627 249.719 111.1 249.176L111.924 248.76C113.185 249.282 113.962 249.842 114.008 249.876L113.601 250.424Z" fill="#FEFEFD"/>
<path d="M115.583 249.589C115.571 249.579 114.653 248.799 113.161 248.136L113.937 247.745C115.216 248.382 115.987 249.035 116.031 249.074L115.583 249.589Z" fill="#FEFEFD"/>
<path d="M147.062 250.835C151.811 250.835 154.345 253.963 154.345 253.963V256.538H141.245V253.687C141.245 253.687 143.486 250.835 147.062 250.835Z" fill="white"/>
<path d="M154.662 256.856H140.928V253.577L140.996 253.491C141.091 253.37 143.374 250.519 147.063 250.519C151.907 250.519 154.484 253.631 154.592 253.764L154.663 253.852V256.856H154.662ZM141.562 256.222H154.028V254.083C153.594 253.603 151.171 251.153 147.063 251.153C144.022 251.153 141.955 253.35 141.562 253.803V256.222Z" fill="#222930"/>
<path d="M141.772 246.616C141.772 246.616 143.893 245.594 145.616 245.594C147.34 245.594 149.482 246.616 149.482 246.616L150.338 249.675C153.354 251.774 154.345 253.964 154.345 253.964C154.345 253.964 151.811 250.836 147.063 250.836C143.486 250.836 141.245 253.688 141.245 253.688C141.461 251.827 141.855 250.155 141.855 250.155L141.772 246.616Z" fill="#222930"/>
<path d="M144.439 250.112C146.767 249.629 148.649 250.042 148.668 250.046L148.819 249.381C148.736 249.362 146.773 248.929 144.301 249.444L144.439 250.112Z" fill="#FEFEFD"/>
<path d="M144.268 248.492C146.164 248.022 147.697 248.432 147.713 248.436L147.894 247.778C147.825 247.759 146.171 247.316 144.103 247.83L144.268 248.492Z" fill="#FEFEFD"/>
<path d="M130.143 169.565L130.391 175.228L134.057 176.406L135.55 168.925L130.143 169.565Z" fill="#005783"/>
<path d="M147.322 158.128L152.187 243.671H140.144L132.53 170.523V158.128H147.322Z" fill="#005783"/>
<path d="M117.737 158.128L116.756 243.671H128.799L132.53 170.523V158.128H117.737Z" fill="#005783"/>
<path d="M150.043 117.555C147.607 116.622 144.778 115.617 142.586 115.063L142.585 115.061L142.582 115.062L139.384 116.371C134.42 118.403 128.952 118.346 124.025 116.208C123.064 115.791 122.061 115.356 121.048 114.916C118.855 115.469 116.024 116.475 113.587 117.409C110.697 118.516 109.354 121.841 110.662 124.645L115.324 134.639L116.461 160.289H148.685L149.111 133.059L152.968 124.79C154.277 121.987 152.933 118.662 150.043 117.555Z" fill="#309FF1"/>
<path d="M139.384 116.372L142.585 115.062L139.962 114.054L137.3 115.043C133.697 116.381 129.729 116.343 126.154 114.936C125.335 114.614 124.476 114.276 123.611 113.935L121.048 114.918C122.062 115.358 123.064 115.793 124.025 116.21C128.953 118.347 134.42 118.404 139.384 116.372Z" fill="#005783"/>
<path d="M137.3 115.043L139.963 114.054L131.637 110.857L123.611 113.934C124.476 114.275 125.336 114.614 126.154 114.936C129.73 116.343 133.697 116.381 137.3 115.043Z" fill="#FFAD97"/>
<path d="M128.317 174.173L128.123 174.776L134.731 176.899L134.925 176.295L128.317 174.173Z" fill="#222930"/>
<path d="M120.78 162.094L118.775 170.29L119.391 170.44L121.396 162.244L120.78 162.094Z" fill="#222930"/>
<path d="M143.411 162.099L142.795 162.249L144.797 170.445L145.413 170.294L143.411 162.099Z" fill="#222930"/>
<path d="M132.514 172.916L130.637 171.468L130.025 163.358L130.658 163.311L131.248 171.139L132.902 172.414L132.514 172.916Z" fill="#222930"/>
<path d="M143.111 157.811H121.711V158.445H143.111V157.811Z" fill="#005783"/>
<path d="M115.287 238.17L130.183 237.903L129.783 244.311L115.988 244.11L115.287 238.17Z" fill="#81C7E2"/>
<path d="M152.891 238.17L138.688 237.903L139.069 244.311L152.222 244.11L152.891 238.17Z" fill="#81C7E2"/>
<path d="M135.909 103.296H126.749V113.222H135.909V103.296Z" fill="#FFAD97"/>
<path d="M135.909 110.857V105.661L131.09 109.176L135.909 110.857Z" fill="#222930"/>
<path d="M131.624 109.276C134.364 109.276 138.067 107.973 140.169 103.983C144.743 95.299 144.707 81.5098 131.624 81.5098C118.639 81.5098 118.27 95.0962 122.755 103.79C124.865 107.879 128.805 109.276 131.624 109.276Z" fill="#FFAD97"/>
<path d="M141.763 100.155C142.442 100.252 143.441 99.8183 144.104 98.9033C145.546 96.9119 146.025 93.4919 142.781 93.0281C139.562 92.5679 138.989 95.9237 139.793 98.2385C140.171 99.3275 141.064 100.055 141.763 100.155Z" fill="#FFAD97"/>
<path d="M121.086 100.155C120.407 100.252 119.408 99.8183 118.745 98.9033C117.304 96.9119 116.824 93.4919 120.068 93.0281C123.288 92.5679 123.861 95.9237 123.056 98.2385C122.678 99.3275 121.785 100.055 121.086 100.155Z" fill="#FFAD97"/>
<path d="M131.598 99.0727C130.836 99.0553 129.546 98.7492 129.546 97.7142C129.546 96.6984 130.503 96.3216 131.009 96.2646L131.08 96.8947L131.045 96.5797L131.081 96.8947C131.045 96.8989 130.18 97.0122 130.18 97.7142C130.18 98.3724 131.599 98.4378 131.613 98.4384L131.598 99.0727Z" fill="#EA8673"/>
<path d="M136.028 96.198C136.593 96.198 137.051 95.5144 137.051 94.671C137.051 93.8277 136.593 93.144 136.028 93.144C135.463 93.144 135.005 93.8277 135.005 94.671C135.005 95.5144 135.463 96.198 136.028 96.198Z" fill="#222930"/>
<path d="M128.049 94.671C128.049 95.5146 127.591 96.198 127.026 96.198C126.461 96.198 126.003 95.514 126.003 94.671C126.003 93.828 126.461 93.144 127.026 93.144C127.591 93.144 128.049 93.8274 128.049 94.671Z" fill="#222930"/>
<path d="M126.472 94.5389C126.472 94.7411 126.308 94.9049 126.106 94.9049C125.903 94.9049 125.74 94.7411 125.74 94.5389C125.74 94.3367 125.903 94.1729 126.106 94.1729C126.308 94.1729 126.472 94.3367 126.472 94.5389Z" fill="white"/>
<path d="M135.492 94.5389C135.492 94.7411 135.328 94.9049 135.126 94.9049C134.924 94.9049 134.76 94.7411 134.76 94.5389C134.76 94.3367 134.924 94.1729 135.126 94.1729C135.328 94.1729 135.492 94.3367 135.492 94.5389Z" fill="white"/>
<path d="M138.141 91.718C136.513 90.9332 134.827 91.052 134.81 91.0532L134.749 90.2858C134.826 90.2792 136.654 90.146 138.475 91.0244L138.141 91.718Z" fill="#222930"/>
<path d="M124.935 91.6693L124.622 90.9661C126.469 90.1435 128.291 90.3325 128.369 90.3409L128.284 91.1059C128.268 91.1047 126.586 90.9343 124.935 91.6693Z" fill="#222930"/>
<path d="M128.756 101.958H134.33C134.33 101.958 133.69 103.984 131.543 103.984C129.364 103.984 128.756 101.958 128.756 101.958Z" fill="#222930"/>
<path d="M122.965 87.9266C122.965 87.9266 122.402 92.2244 122.767 96.1508L121.245 95.738C121.245 95.738 117.745 88.8061 120.637 83.2021L122.965 87.9266Z" fill="#222930"/>
<path d="M143.92 81.942C143.456 81.411 142.904 81.1038 142.377 80.9256C141.815 80.0094 141.066 79.23 140.077 78.669C134.267 75.3708 127.336 77.1984 127.336 77.1984C116.81 78.5466 119.341 87.6228 122.024 88.1592C122.591 88.2726 122.682 88.125 122.682 88.125C128.137 89.427 140.314 87.9264 140.314 87.9264C141.004 92.0994 140.62 96.267 140.62 96.267L142.034 95.7372C142.759 94.2942 143.655 91.1592 143.795 87.9006C144.805 86.2056 145.075 83.265 143.92 81.942Z" fill="#222930"/>
<path d="M116.509 163.901L112.916 165.049L113.27 172.532L118.398 174.212L120.4 171.83L119.834 166.19L116.509 163.901Z" fill="#FFAD97"/>
<path d="M118.17 165.045L119.834 166.19C120.521 166.69 121.088 167.336 121.496 168.082L122.578 170.062C122.699 170.282 122.569 170.557 122.321 170.602C121.787 170.701 121.238 170.527 120.86 170.137L118.169 167.39L118.17 165.045Z" fill="#FFAD97"/>
<path d="M120.4 171.83L121.999 176.833C122.141 177.278 121.895 177.755 121.449 177.898C121.018 178.036 120.556 177.811 120.397 177.388L118.477 172.262L119.236 171.414L120.4 171.83Z" fill="#FFAD97"/>
<path d="M119.091 179.027C118.584 179.15 118.077 178.829 117.97 178.318L116.827 172.847L117.578 172.104L118.686 172.821L119.777 177.936C119.882 178.426 119.578 178.91 119.091 179.027Z" fill="#FFAD97"/>
<path d="M116.188 178.355C115.737 178.346 115.369 177.992 115.342 177.542L115.057 172.749L116.08 172.22L116.827 172.847L117.068 177.446C117.095 177.947 116.69 178.365 116.188 178.355Z" fill="#FFAD97"/>
<path d="M113.878 176.429C113.537 176.388 113.281 176.099 113.279 175.756L113.271 172.532L114.154 172.007L115.057 172.749L114.632 175.847C114.582 176.215 114.246 176.474 113.878 176.429Z" fill="#FFAD97"/>
<path d="M107.759 146.446C107.306 144.733 108.325 142.953 110.032 142.478C110.318 142.398 110.614 142.357 110.908 142.357C112.523 142.357 113.908 143.566 114.128 145.17L117.098 166.089L113.257 166.968L107.759 146.446Z" fill="#FFAD97"/>
<path d="M110.908 142.568C112.384 142.568 113.707 143.654 113.918 145.198L116.861 165.926L113.408 166.716L107.962 146.39C107.536 144.781 108.484 143.128 110.087 142.681C110.363 142.605 110.638 142.568 110.908 142.568ZM110.908 142.146C110.594 142.146 110.28 142.189 109.975 142.274C108.158 142.781 107.072 144.676 107.554 146.499L113 166.826L113.106 167.219L113.503 167.129L116.956 166.339L117.335 166.252L117.28 165.868L114.337 145.139C114.103 143.434 112.628 142.146 110.908 142.146Z" fill="#FFAD97"/>
<path d="M110.885 148.819C110.62 148.819 110.353 148.786 110.092 148.72C108.464 148.31 107.41 146.693 107.692 145.038C108.6 139.697 110.812 126.669 111.738 121.045C112.072 119.018 113.804 117.547 115.856 117.547C116.026 117.547 116.198 117.558 116.368 117.578C117.524 117.719 118.54 118.314 119.229 119.251C119.918 120.189 120.182 121.336 119.972 122.481L114.025 146.362C113.665 147.81 112.374 148.819 110.885 148.819Z" fill="#FFAD97"/>
<path d="M115.856 117.758C116.017 117.758 116.179 117.768 116.342 117.788C118.61 118.065 120.176 120.196 119.764 122.443L113.819 146.312C113.477 147.688 112.242 148.607 110.885 148.607C110.641 148.607 110.392 148.577 110.144 148.515C108.613 148.129 107.635 146.63 107.9 145.073C108.86 139.426 111.035 126.614 111.946 121.08C112.265 119.144 113.941 117.758 115.856 117.758ZM115.856 117.335C113.7 117.335 111.88 118.882 111.529 121.012C110.608 126.603 108.393 139.652 107.483 145.003C107.184 146.765 108.307 148.488 110.041 148.925C110.318 148.994 110.602 149.03 110.885 149.03C112.471 149.03 113.846 147.954 114.23 146.414L120.174 122.545L120.177 122.533L120.179 122.519C120.4 121.316 120.123 120.112 119.399 119.126C118.675 118.141 117.607 117.516 116.393 117.368C116.216 117.347 116.035 117.335 115.856 117.335Z" fill="#FFAD97"/>
<path d="M121.255 122.932C121.246 119.609 118.718 116.934 115.608 116.958C112.849 116.979 110.563 119.119 110.088 121.922L110.084 121.921L108.844 132.451L118.225 133.728L121.004 124.731C121.168 124.162 121.256 123.558 121.255 122.932Z" fill="#309FF1"/>
<path d="M146.435 164.346L149.982 165.629L149.345 173.093L144.157 174.578L142.247 172.122L143.026 166.508L146.435 164.346Z" fill="#FFAD97"/>
<path d="M144.732 165.426L143.026 166.508C142.321 166.981 141.729 167.605 141.293 168.335L140.137 170.273C140.008 170.488 140.128 170.767 140.372 170.822C140.903 170.941 141.457 170.788 141.85 170.412L144.643 167.769L144.732 165.426Z" fill="#FFAD97"/>
<path d="M142.247 172.122L140.461 177.061C140.301 177.501 140.529 177.987 140.969 178.146C141.394 178.3 141.865 178.094 142.04 177.677L144.152 172.627L143.425 171.75L142.247 172.122Z" fill="#FFAD97"/>
<path d="M143.283 179.364C143.785 179.505 144.304 179.204 144.43 178.698L145.779 173.274L145.056 172.503L143.921 173.178L142.637 178.248C142.515 178.733 142.801 179.228 143.283 179.364Z" fill="#FFAD97"/>
<path d="M146.209 178.802C146.66 178.81 147.042 178.47 147.086 178.021L147.551 173.242L146.549 172.675L145.779 173.274L145.364 177.86C145.319 178.359 145.708 178.792 146.209 178.802Z" fill="#FFAD97"/>
<path d="M148.591 176.964C148.933 176.936 149.2 176.657 149.215 176.314L149.345 173.093L148.483 172.536L147.552 173.242L147.859 176.354C147.895 176.723 148.221 176.995 148.591 176.964Z" fill="#FFAD97"/>
<path d="M145.763 166.51L149.522 145.716C149.797 144.158 151.144 143.026 152.725 143.026C153.061 143.026 153.395 143.079 153.718 143.182C155.405 143.722 156.356 145.539 155.839 147.232L149.568 167.533L145.763 166.51Z" fill="#FFAD97"/>
<path d="M152.725 143.238C153.032 143.238 153.344 143.285 153.654 143.384C155.24 143.891 156.124 145.579 155.638 147.171L149.427 167.276L146.006 166.357L149.731 145.754C149.994 144.259 151.294 143.238 152.725 143.238ZM152.725 142.815C151.041 142.815 149.606 144.02 149.314 145.681L145.59 166.281L145.521 166.663L145.897 166.764L149.317 167.684L149.711 167.789L149.831 167.4L156.041 147.295C156.593 145.489 155.579 143.555 153.783 142.98C153.438 142.871 153.082 142.815 152.725 142.815Z" fill="#FFAD97"/>
<path d="M152.746 149.489C151.224 149.489 149.893 148.406 149.581 146.914L144.543 122.838C144.374 121.673 144.681 120.537 145.405 119.626C146.129 118.714 147.167 118.159 148.327 118.061C148.445 118.052 148.564 118.046 148.681 118.046C150.78 118.046 152.56 119.618 152.823 121.702C153.532 127.328 155.252 140.449 155.959 145.83C156.178 147.494 155.063 149.07 153.421 149.419C153.199 149.465 152.972 149.489 152.746 149.489Z" fill="#FFAD97"/>
<path d="M148.681 118.258C150.661 118.258 152.362 119.73 152.614 121.728C153.315 127.292 155.004 140.178 155.75 145.857C155.956 147.423 154.922 148.884 153.377 149.211C153.166 149.256 152.954 149.278 152.747 149.278C151.345 149.278 150.087 148.298 149.788 146.871L144.751 122.795C144.423 120.534 146.068 118.464 148.346 118.272C148.457 118.263 148.57 118.258 148.681 118.258ZM148.681 117.835C148.558 117.835 148.432 117.84 148.309 117.851C147.091 117.953 146 118.536 145.24 119.494C144.479 120.452 144.156 121.645 144.331 122.855L144.333 122.868L144.335 122.881L149.373 146.957C149.705 148.547 151.124 149.7 152.746 149.7C152.986 149.7 153.227 149.675 153.464 149.625C155.213 149.254 156.401 147.575 156.168 145.802C155.461 140.421 153.741 127.299 153.032 121.675C152.757 119.486 150.886 117.835 148.681 117.835Z" fill="#FFAD97"/>
<path d="M143.242 123.226C143.376 119.905 146.003 117.328 149.11 117.47C151.867 117.595 154.07 119.82 154.439 122.639L154.443 122.638L155.284 133.207L145.861 134.128L143.425 125.034C143.282 124.459 143.216 123.852 143.242 123.226Z" fill="#309FF1"/>
<path d="M124.502 98.3534C124.11 99.5234 123.358 102.628 124.653 106.617C124.681 106.704 124.726 106.783 124.788 106.851C125.224 107.331 127.222 109.245 131.329 109.274V109.277C131.348 109.277 131.364 109.276 131.383 109.276C131.401 109.276 131.417 109.277 131.436 109.277V109.274C135.544 109.246 137.542 107.331 137.978 106.851C138.04 106.783 138.084 106.704 138.113 106.617C139.408 102.628 138.655 99.5234 138.263 98.3534C138.164 98.0594 137.869 97.886 137.564 97.9358C132.059 98.8364 126.793 98.1758 125.191 97.9298C124.885 97.883 124.6 98.0618 124.502 98.3534Z" fill="white"/>
<path d="M126.062 105.612C125.842 105.522 120.64 103.351 118.582 98.2984L119.239 98.0308C121.183 102.801 126.279 104.934 126.33 104.955L126.062 105.612Z" fill="white"/>
<path d="M119.543 93.1401C116.886 93.8859 117.388 97.0275 118.745 98.9031C119.408 99.8181 120.407 100.251 121.086 100.155C121.785 100.055 122.678 99.3273 123.056 98.2389C123.087 98.1513 123.111 98.0601 123.137 97.9701C121.019 96.3993 119.956 94.2057 119.543 93.1401Z" fill="#FFAD97"/>
<path d="M123.309 97.1999C121.591 95.8121 120.668 93.9893 120.265 93.0137C120.199 93.0203 120.137 93.0185 120.068 93.0281C119.879 93.0551 119.707 93.0941 119.543 93.1403C119.956 94.2059 121.018 96.3995 123.137 97.9697C123.96 98.5793 124.935 99.0989 126.103 99.4151L126.289 98.7299C125.101 98.4083 124.118 97.8533 123.309 97.1999Z" fill="white"/>
<path d="M142.961 93.0664C142.522 94.1206 141.497 96.0736 139.586 97.4602C138.847 97.9966 137.983 98.452 136.958 98.7292L137.144 99.4144C138.16 99.1396 139.031 98.7118 139.783 98.2048C142.045 96.6808 143.187 94.4266 143.653 93.2644C143.446 93.181 143.216 93.1144 142.961 93.0664Z" fill="white"/>
<path d="M136.806 105.612L136.537 104.955C136.588 104.934 141.685 102.801 143.628 98.0308L144.286 98.2984C142.228 103.351 137.026 105.522 136.806 105.612Z" fill="white"/>
<path d="M143.653 93.2651C143.187 94.4267 142.044 96.6815 139.783 98.2055C139.787 98.2163 139.789 98.2277 139.793 98.2385C140.172 99.3275 141.065 100.055 141.764 100.154C142.443 100.252 143.442 99.8177 144.104 98.9027C145.398 97.1153 145.907 94.1831 143.653 93.2651Z" fill="#FFAD97"/>
<path d="M131.445 99.8462H130.735V107.74H131.445V99.8462Z" fill="#EAEAEA"/>
<path d="M132.136 104.725C132.136 104.015 132.711 103.44 133.42 103.44C134.13 103.44 134.705 104.015 134.705 104.725C134.705 105.434 134.129 106.009 133.42 106.009C132.711 106.009 132.136 105.434 132.136 104.725Z" fill="#EAEAEA"/>
<path d="M232.606 151.193H182.089C180.339 151.193 178.921 149.774 178.921 148.024V118.376C178.921 116.625 180.339 115.207 182.089 115.207H232.606C234.356 115.207 235.774 116.626 235.774 118.376V148.024C235.774 149.774 234.356 151.193 232.606 151.193Z" fill="#ACC4D4"/>
<path d="M213.673 131.311H201.021V157.437H213.673V131.311Z" fill="#8CA4B6"/>
<path d="M220.739 157.437H193.955V160.888H220.739V157.437Z" fill="#ACC4D4"/>
<path opacity="0.3" d="M250.047 59.9951H49.953C45.0654 59.9951 41.103 63.9575 41.103 68.8451V152.037C41.103 156.925 45.0654 160.887 49.953 160.887H250.047C254.935 160.887 258.897 156.925 258.897 152.037V68.8457C258.897 63.9575 254.935 59.9951 250.047 59.9951Z" fill="#B3CFF6"/>
<g opacity="0.5">
<path opacity="0.3" d="M89.7702 59.9951L41.103 108.663V136.982L118.09 59.9951H89.7702Z" fill="#92BAEA"/>
<path opacity="0.3" d="M175.666 59.9951L74.7732 160.888H129.859L230.752 59.9951H175.666Z" fill="#92BAEA"/>
<path opacity="0.3" d="M258.897 85.147L183.157 160.887H211.476L258.897 113.466V85.147Z" fill="#92BAEA"/>
</g>
<path d="M249.85 265.266H50.1504C45.1536 265.266 41.103 261.215 41.103 256.218V170.715H258.898V256.218C258.897 261.215 254.846 265.266 249.85 265.266Z" fill="#354B61"/>
<path d="M269.873 160.888H30.1266C27.4128 160.888 25.2126 163.088 25.2126 165.802C25.2126 168.515 27.4128 170.716 30.1266 170.716H269.873C272.587 170.716 274.787 168.515 274.787 165.802C274.787 163.088 272.587 160.888 269.873 160.888Z" fill="#283D4F"/>
<path d="M258.898 217.551H41.103V221.433H258.898V217.551Z" fill="#283D4F"/>
<path d="M258.898 246.499H41.103V250.38H258.898V246.499Z" fill="#283D4F"/>
<path d="M258.898 188.604H41.103V192.486H258.898V188.604Z" fill="#283D4F"/>
<path opacity="0.3" d="M41.103 170.715L258.897 186.545V170.715H41.103Z" fill="#1E313F"/>
<path d="M53.3862 126.081H48.3228V160.888H53.3862V126.081Z" fill="#283D4F"/>
<path d="M251.207 126.081H246.144V160.888H251.207V126.081Z" fill="#283D4F"/>
<path d="M152.802 125.864C156.51 124.314 158.261 120.052 156.711 116.344C155.162 112.636 150.9 110.886 147.192 112.435C143.484 113.984 141.733 118.246 143.283 121.955C144.832 125.663 149.094 127.413 152.802 125.864Z" fill="#8CA4B6"/>
<path d="M150 125.15C153.317 125.15 156.005 122.461 156.005 119.145C156.005 115.828 153.317 113.139 150 113.139C146.683 113.139 143.995 115.828 143.995 119.145C143.995 122.461 146.683 125.15 150 125.15Z" fill="#ACC4D4"/>
<path d="M149.216 119.144C149.216 118.712 149.567 118.361 150 118.361C150.433 118.361 150.784 118.712 150.784 119.144C150.784 119.577 150.433 119.928 150 119.928C149.567 119.929 149.216 119.578 149.216 119.144Z" fill="#283D4F"/>
<path d="M150 116.221C150.433 116.221 150.784 115.871 150.784 115.438C150.784 115.005 150.433 114.654 150 114.654C149.567 114.654 149.216 115.005 149.216 115.438C149.216 115.871 149.567 116.221 150 116.221Z" fill="#283D4F"/>
<path d="M149.216 122.852C149.216 122.419 149.567 122.068 150 122.068C150.433 122.068 150.784 122.419 150.784 122.852C150.784 123.285 150.433 123.636 150 123.636C149.567 123.636 149.216 123.285 149.216 122.852Z" fill="#283D4F"/>
<path d="M153.707 118.361C154.14 118.361 154.491 118.712 154.491 119.144C154.491 119.577 154.14 119.928 153.707 119.928C153.275 119.928 152.924 119.577 152.924 119.144C152.923 118.712 153.274 118.361 153.707 118.361Z" fill="#283D4F"/>
<path d="M146.293 118.361C146.726 118.361 147.076 118.712 147.076 119.144C147.076 119.577 146.725 119.928 146.293 119.928C145.86 119.928 145.509 119.577 145.509 119.144C145.509 118.712 145.86 118.361 146.293 118.361Z" fill="#283D4F"/>
<path d="M28.977 237.858C24.774 234.789 31.4412 222.919 39.7926 223.045L28.977 237.858Z" fill="#466C0C"/>
<path d="M28.977 237.858C33.18 240.927 42.456 230.962 39.7926 223.045L28.977 237.858Z" fill="#466C0C"/>
<path d="M19.7334 242.159C14.379 245.689 3.5478 232.877 7.2924 223.289L19.7334 242.159Z" fill="#466C0C"/>
<path d="M19.7334 242.159C25.0878 238.628 17.5806 223.625 7.2924 223.289L19.7334 242.159Z" fill="#466C0C"/>
<path d="M25.0974 235.062H24.369V254.093H25.0974V235.062Z" fill="#466C0C"/>
<path d="M25.959 252.202L25.2594 251.998C25.3128 251.814 26.6358 247.417 32.2602 242.902L32.7162 243.471C27.2856 247.83 25.9716 252.159 25.959 252.202Z" fill="#466C0C"/>
<path d="M23.9316 252.202C23.919 252.159 22.6044 247.83 17.1738 243.472L17.6298 242.903C23.2542 247.418 24.5772 251.815 24.6312 251.999L23.9316 252.202Z" fill="#466C0C"/>
<path d="M22.5132 252.221L21.8022 252.061C21.8118 252.017 22.7484 247.591 20.0922 241.154L20.7654 240.876C23.517 247.543 22.5558 252.032 22.5132 252.221Z" fill="#466C0C"/>
<path d="M25.8882 251.709C25.8462 251.469 24.906 245.727 29.4378 236.804L30.0876 237.134C25.6764 245.819 26.5962 251.527 26.6058 251.584L25.8882 251.709Z" fill="#466C0C"/>
<path d="M24.7332 238.736C17.325 238.736 15.0258 219.494 24.7332 212.629V238.736Z" fill="#466C0C"/>
<path d="M24.7332 238.736C32.1414 238.736 34.4406 219.494 24.7332 212.629V238.736Z" fill="#578711"/>
<path d="M29.0706 246.23C25.1844 241.863 35.319 230.414 44.4582 232.533L29.0706 246.23Z" fill="#466C0C"/>
<path d="M29.0706 246.23C32.9568 250.596 45.504 241.857 44.4582 232.534L29.0706 246.23Z" fill="#578711"/>
<path d="M19.4286 244.599C17.0658 249.468 3.68701 244.842 2.27161 236.272L19.4286 244.599Z" fill="#466C0C"/>
<path d="M19.4286 244.599C21.7914 239.731 9.87961 232.083 2.27161 236.272L19.4286 244.599Z" fill="#578711"/>
<path d="M24.8466 250.08H15.6744L17.7486 264.489H24.8466H31.9452L34.0188 250.08H24.8466Z" fill="#354B61"/>
<path d="M35.235 247.684H14.9052V250.616H35.235V247.684Z" fill="#283D4F"/>
<path d="M16.404 255.147L16.8258 258.08H32.8674L33.2892 255.147H16.404Z" fill="#283D4F"/>
<path d="M282.187 237.858C277.984 234.789 284.651 222.919 293.002 223.045L282.187 237.858Z" fill="#466C0C"/>
<path d="M282.187 237.858C286.39 240.927 295.666 230.962 293.002 223.045L282.187 237.858Z" fill="#466C0C"/>
<path d="M272.942 242.159C267.588 245.689 256.757 232.877 260.501 223.289L272.942 242.159Z" fill="#466C0C"/>
<path d="M272.942 242.159C278.297 238.628 270.79 223.625 260.501 223.289L272.942 242.159Z" fill="#466C0C"/>
<path d="M278.306 235.062H277.578V254.093H278.306V235.062Z" fill="#466C0C"/>
<path d="M279.168 252.202L278.468 251.998C278.522 251.814 279.845 247.417 285.469 242.902L285.925 243.471C280.495 247.83 279.181 252.159 279.168 252.202Z" fill="#466C0C"/>
<path d="M277.141 252.202C277.128 252.159 275.814 247.83 270.383 243.472L270.839 242.903C276.464 247.418 277.786 251.815 277.84 251.999L277.141 252.202Z" fill="#466C0C"/>
<path d="M275.723 252.221L275.012 252.061C275.021 252.017 275.958 247.591 273.302 241.154L273.975 240.876C276.726 247.543 275.765 252.032 275.723 252.221Z" fill="#466C0C"/>
<path d="M279.097 251.709C279.055 251.469 278.115 245.727 282.647 236.804L283.297 237.134C278.885 245.819 279.805 251.527 279.815 251.584L279.097 251.709Z" fill="#466C0C"/>
<path d="M277.942 238.736C270.534 238.736 268.235 219.494 277.942 212.629V238.736Z" fill="#466C0C"/>
<path d="M277.942 238.736C285.35 238.736 287.65 219.494 277.942 212.629V238.736Z" fill="#578711"/>
<path d="M282.28 246.23C278.393 241.863 288.528 230.414 297.667 232.533L282.28 246.23Z" fill="#466C0C"/>
<path d="M282.28 246.23C286.166 250.596 298.713 241.857 297.667 232.534L282.28 246.23Z" fill="#578711"/>
<path d="M272.638 244.599C270.275 249.468 256.896 244.842 255.481 236.272L272.638 244.599Z" fill="#466C0C"/>
<path d="M272.638 244.599C275 239.731 263.089 232.083 255.481 236.272L272.638 244.599Z" fill="#578711"/>
<path d="M278.056 250.08H268.884L270.958 264.489H278.056H285.154L287.228 250.08H278.056Z" fill="#354B61"/>
<path d="M288.445 247.684H268.115V250.616H288.445V247.684Z" fill="#283D4F"/>
<path d="M269.613 255.147L270.035 258.08H286.076L286.499 255.147H269.613Z" fill="#283D4F"/>
</g>
<defs>
<linearGradient id="paint0_linear_802_30253" x1="49.8235" y1="33.0106" x2="49.8235" y2="144.614" gradientUnits="userSpaceOnUse">
<stop stop-color="white" stop-opacity="0.5"/>
<stop offset="1" stop-color="white" stop-opacity="0"/>
</linearGradient>
<linearGradient id="paint1_linear_802_30253" x1="250.177" y1="41.7512" x2="250.177" y2="146.661" gradientUnits="userSpaceOnUse">
<stop stop-color="white" stop-opacity="0.5"/>
<stop offset="1" stop-color="white" stop-opacity="0"/>
</linearGradient>
<linearGradient id="paint2_linear_802_30253" x1="150" y1="41.7512" x2="150" y2="146.661" gradientUnits="userSpaceOnUse">
<stop stop-color="white" stop-opacity="0.5"/>
<stop offset="1" stop-color="white" stop-opacity="0"/>
</linearGradient>
<clipPath id="clip0_802_30253">
<rect width="300" height="300" fill="white"/>
</clipPath>
</defs>
</svg>
