<svg width="31" height="29" viewBox="0 0 31 29" fill="none" xmlns="http://www.w3.org/2000/svg">
<path d="M0.0839844 22.2083H30.9173V28.375H0.0839844V22.2083ZM6.63607 6.79167H10.8757V5.25H6.25065V0.625H18.584V5.25H13.959V6.79167H24.4423C25.984 6.79167 27.5257 8.33333 27.834 9.875L28.6048 20.6667H2.39648L3.2444 9.875C3.2444 8.33333 4.78607 6.79167 6.63607 6.79167ZM17.0423 9.875V12.9583H24.7507V9.875H17.0423ZM6.25065 9.875V11.4167H9.33398V9.875H6.25065ZM10.8757 9.875V11.4167H13.959V9.875H10.8757ZM6.25065 12.9583V14.5H9.33398V12.9583H6.25065ZM10.8757 12.9583V14.5H13.959V12.9583H10.8757ZM6.25065 16.0417V17.5833H9.33398V16.0417H6.25065ZM10.8757 16.0417V17.5833H13.959V16.0417H10.8757ZM7.79232 2.16667V3.70833H17.0423V2.16667H7.79232Z" fill="#999393"/>
</svg>
