<svg width="100" height="100" viewBox="0 0 100 100" fill="none" xmlns="http://www.w3.org/2000/svg">
<rect width="100" height="100" rx="50" fill="url(#paint0_radial_437_1598)"/>
<path d="M31.9959 75.125C27.1912 75.125 23.1365 71.9099 21.8608 67.5112C21.3163 65.6335 21.9854 63.6777 23.0089 62.0125L40.5961 29.9032C44.7167 23.1989 54.4497 23.1989 58.5702 29.9032L76.1575 62.0125C77.1809 63.6777 77.8501 65.6335 77.3055 67.5112C76.0298 71.9099 71.9751 75.125 67.1705 75.125H31.9959Z" fill="#D93535"/>
<path d="M49.5832 52.8267V38.7392M49.5832 63.2684V63.3922M67.1705 75.125H31.9959C27.1912 75.125 23.1365 71.9099 21.8608 67.5112C21.3163 65.6335 21.9854 63.6777 23.0089 62.0125L40.5961 29.9032C44.7167 23.1989 54.4497 23.1989 58.5702 29.9032L76.1575 62.0125C77.1809 63.6777 77.8501 65.6335 77.3055 67.5112C76.0298 71.9099 71.9751 75.125 67.1705 75.125Z" stroke="#FEE2E2" stroke-width="5" stroke-linecap="round" stroke-linejoin="round"/>
<defs>
<radialGradient id="paint0_radial_437_1598" cx="0" cy="0" r="1" gradientUnits="userSpaceOnUse" gradientTransform="translate(50 56.25) rotate(180) scale(141.875 150.346)">
<stop offset="0.00415201" stop-color="#FCC3C3"/>
<stop offset="0.368318" stop-color="white"/>
</radialGradient>
</defs>
</svg>
