<svg width="120" height="120" viewBox="0 0 120 120" fill="none" xmlns="http://www.w3.org/2000/svg">
<rect width="120" height="120" rx="60" fill="url(#paint0_radial_437_1621)"/>
<path d="M61.4996 42.8636V34L49.6815 45.8182L61.4996 57.6364V48.7727C71.2792 48.7727 79.2269 56.7205 79.2269 66.5C79.2269 69.4841 78.4883 72.3205 77.1587 74.7727L81.4724 79.0864C83.7769 75.4523 85.136 71.1386 85.136 66.5C85.136 53.4409 74.5587 42.8636 61.4996 42.8636ZM61.4996 84.2273C51.7201 84.2273 43.7724 76.2795 43.7724 66.5C43.7724 63.5159 44.511 60.6795 45.8406 58.2273L41.5269 53.9136C39.2224 57.5477 37.8633 61.8614 37.8633 66.5C37.8633 79.5591 48.4406 90.1364 61.4996 90.1364V99L73.3178 87.1818L61.4996 75.3636V84.2273Z" fill="#EC8E37"/>
<defs>
<radialGradient id="paint0_radial_437_1621" cx="0" cy="0" r="1" gradientUnits="userSpaceOnUse" gradientTransform="translate(60 67.5) rotate(180) scale(170.25 180.415)">
<stop offset="0.00415201" stop-color="#FEE3C4"/>
<stop offset="0.368318" stop-color="white"/>
</radialGradient>
</defs>
</svg>
