<svg width="26" height="26" viewBox="0 0 26 26" fill="none" xmlns="http://www.w3.org/2000/svg">
<path d="M16.802 16.6234C17.4569 16.8417 18.1648 16.4877 18.3831 15.8328C18.6014 15.1779 18.2475 14.47 17.5926 14.2516L16.802 16.6234ZM13.541 14.2188H12.291C12.291 14.7568 12.6353 15.2345 13.1457 15.4046L13.541 14.2188ZM14.791 9.12261C14.791 8.43225 14.2314 7.87261 13.541 7.87261C12.8507 7.87261 12.291 8.43225 12.291 9.12261H14.791ZM17.1973 15.4375L17.5926 14.2516L13.9363 13.0329L13.541 14.2188L13.1457 15.4046L16.802 16.6234L17.1973 15.4375ZM13.541 14.2188H14.791V9.12261H13.541H12.291V14.2188H13.541ZM23.291 13H22.041C22.041 17.6944 18.2354 21.5 13.541 21.5V22.75V24C19.6161 24 24.541 19.0751 24.541 13H23.291ZM13.541 22.75V21.5C8.8466 21.5 5.04102 17.6944 5.04102 13H3.79102H2.54102C2.54102 19.0751 7.46588 24 13.541 24V22.75ZM3.79102 13H5.04102C5.04102 8.30558 8.8466 4.5 13.541 4.5V3.25V2C7.46588 2 2.54102 6.92487 2.54102 13H3.79102ZM13.541 3.25V4.5C18.2354 4.5 22.041 8.30558 22.041 13H23.291H24.541C24.541 6.92487 19.6161 2 13.541 2V3.25Z" fill="#656161"/>
</svg>
