<svg width="100" height="80" viewBox="0 0 100 80" fill="none" xmlns="http://www.w3.org/2000/svg">
<rect x="0.5" y="0.5" width="99" height="79" rx="7.5" fill="#007BFF" stroke="#007BFF"/>
<rect x="15" y="12" width="69" height="57" rx="6" fill="#007BFF"/>
<path d="M35.2074 54.1108H33.8778C33.8267 53.8267 33.7315 53.5767 33.5923 53.3608C33.4531 53.1449 33.2827 52.9616 33.081 52.8111C32.8793 52.6605 32.6534 52.5469 32.4034 52.4702C32.1563 52.3935 31.8935 52.3551 31.6151 52.3551C31.1122 52.3551 30.6619 52.4815 30.2642 52.7344C29.8693 52.9872 29.5568 53.358 29.3267 53.8466C29.0994 54.3352 28.9858 54.9318 28.9858 55.6364C28.9858 56.3466 29.0994 56.946 29.3267 57.4347C29.5568 57.9233 29.8707 58.2926 30.2685 58.5426C30.6662 58.7926 31.1136 58.9176 31.6108 58.9176C31.8864 58.9176 32.1477 58.8807 32.3949 58.8068C32.6449 58.7301 32.8707 58.6179 33.0724 58.4702C33.2741 58.3224 33.4446 58.142 33.5838 57.929C33.7259 57.7131 33.8239 57.4659 33.8778 57.1875L35.2074 57.1918C35.1364 57.6207 34.9986 58.0156 34.794 58.3764C34.5923 58.7344 34.3324 59.044 34.0142 59.3054C33.6989 59.5639 33.3381 59.7642 32.9318 59.9062C32.5256 60.0483 32.0824 60.1193 31.6023 60.1193C30.8466 60.1193 30.1733 59.9403 29.5824 59.5824C28.9915 59.2216 28.5256 58.706 28.1847 58.0355C27.8466 57.3651 27.6776 56.5653 27.6776 55.6364C27.6776 54.7045 27.848 53.9048 28.1889 53.2372C28.5298 52.5668 28.9957 52.0526 29.5866 51.6946C30.1776 51.3338 30.8494 51.1534 31.6023 51.1534C32.0653 51.1534 32.4972 51.2202 32.8977 51.3537C33.3011 51.4844 33.6634 51.6776 33.9844 51.9332C34.3054 52.1861 34.571 52.4957 34.7812 52.8622C34.9915 53.2259 35.1335 53.642 35.2074 54.1108ZM39.4379 60.1321C38.8242 60.1321 38.2887 59.9915 37.8313 59.7102C37.3739 59.429 37.0188 59.0355 36.766 58.5298C36.5131 58.0241 36.3867 57.4332 36.3867 56.7571C36.3867 56.0781 36.5131 55.4844 36.766 54.9759C37.0188 54.4673 37.3739 54.0724 37.8313 53.7912C38.2887 53.5099 38.8242 53.3693 39.4379 53.3693C40.0515 53.3693 40.587 53.5099 41.0444 53.7912C41.5018 54.0724 41.8569 54.4673 42.1097 54.9759C42.3626 55.4844 42.489 56.0781 42.489 56.7571C42.489 57.4332 42.3626 58.0241 42.1097 58.5298C41.8569 59.0355 41.5018 59.429 41.0444 59.7102C40.587 59.9915 40.0515 60.1321 39.4379 60.1321ZM39.4421 59.0625C39.8398 59.0625 40.1694 58.9574 40.4308 58.7472C40.6921 58.5369 40.8853 58.2571 41.0103 57.9077C41.1381 57.5582 41.2021 57.1733 41.2021 56.7528C41.2021 56.3352 41.1381 55.9517 41.0103 55.6023C40.8853 55.25 40.6921 54.9673 40.4308 54.7543C40.1694 54.5412 39.8398 54.4347 39.4421 54.4347C39.0415 54.4347 38.7092 54.5412 38.445 54.7543C38.1836 54.9673 37.989 55.25 37.8612 55.6023C37.7362 55.9517 37.6737 56.3352 37.6737 56.7528C37.6737 57.1733 37.7362 57.5582 37.8612 57.9077C37.989 58.2571 38.1836 58.5369 38.445 58.7472C38.7092 58.9574 39.0415 59.0625 39.4421 59.0625ZM48.0575 57.2855V53.4545H49.3359V60H48.0831V58.8665H48.0149C47.8643 59.2159 47.6229 59.5071 47.2905 59.7401C46.9609 59.9702 46.5504 60.0852 46.0589 60.0852C45.6385 60.0852 45.2663 59.9929 44.9425 59.8082C44.6214 59.6207 44.3686 59.3438 44.1839 58.9773C44.0021 58.6108 43.9112 58.1577 43.9112 57.6179V53.4545H45.1854V57.4645C45.1854 57.9105 45.3089 58.2656 45.5561 58.5298C45.8033 58.794 46.1243 58.9261 46.5192 58.9261C46.7578 58.9261 46.995 58.8665 47.2308 58.7472C47.4695 58.6278 47.6669 58.4474 47.8232 58.206C47.9822 57.9645 48.0604 57.6577 48.0575 57.2855ZM51.0479 62.4545V53.4545H52.2923V54.5156H52.3988C52.4727 54.3793 52.5792 54.2216 52.7184 54.0426C52.8576 53.8636 53.0508 53.7074 53.2979 53.5739C53.5451 53.4375 53.8718 53.3693 54.2781 53.3693C54.8065 53.3693 55.2781 53.5028 55.6928 53.7699C56.1076 54.0369 56.4329 54.4219 56.6687 54.9247C56.9073 55.4276 57.0266 56.0327 57.0266 56.7401C57.0266 57.4474 56.9087 58.054 56.6729 58.5597C56.4371 59.0625 56.1133 59.4503 55.7013 59.723C55.2894 59.9929 54.8192 60.1278 54.2908 60.1278C53.8931 60.1278 53.5678 60.0611 53.315 59.9276C53.065 59.794 52.869 59.6378 52.7269 59.4588C52.5849 59.2798 52.4755 59.1207 52.3988 58.9815H52.3221V62.4545H51.0479ZM52.2965 56.7273C52.2965 57.1875 52.3633 57.5909 52.4968 57.9375C52.6303 58.2841 52.8235 58.5554 53.0763 58.7514C53.3292 58.9446 53.6388 59.0412 54.0053 59.0412C54.386 59.0412 54.7042 58.9403 54.9599 58.7386C55.2156 58.5341 55.4087 58.2571 55.5394 57.9077C55.6729 57.5582 55.7397 57.1648 55.7397 56.7273C55.7397 56.2955 55.6744 55.9077 55.5437 55.5639C55.4158 55.2202 55.2227 54.9489 54.9641 54.75C54.7085 54.5511 54.3888 54.4517 54.0053 54.4517C53.636 54.4517 53.3235 54.5469 53.0678 54.7372C52.815 54.9276 52.6232 55.1932 52.4925 55.5341C52.3619 55.875 52.2965 56.2727 52.2965 56.7273ZM61.2113 60.1321C60.5977 60.1321 60.0621 59.9915 59.6048 59.7102C59.1474 59.429 58.7923 59.0355 58.5394 58.5298C58.2866 58.0241 58.1602 57.4332 58.1602 56.7571C58.1602 56.0781 58.2866 55.4844 58.5394 54.9759C58.7923 54.4673 59.1474 54.0724 59.6048 53.7912C60.0621 53.5099 60.5977 53.3693 61.2113 53.3693C61.8249 53.3693 62.3604 53.5099 62.8178 53.7912C63.2752 54.0724 63.6303 54.4673 63.8832 54.9759C64.136 55.4844 64.2624 56.0781 64.2624 56.7571C64.2624 57.4332 64.136 58.0241 63.8832 58.5298C63.6303 59.0355 63.2752 59.429 62.8178 59.7102C62.3604 59.9915 61.8249 60.1321 61.2113 60.1321ZM61.2156 59.0625C61.6133 59.0625 61.9428 58.9574 62.2042 58.7472C62.4656 58.5369 62.6587 58.2571 62.7837 57.9077C62.9116 57.5582 62.9755 57.1733 62.9755 56.7528C62.9755 56.3352 62.9116 55.9517 62.7837 55.6023C62.6587 55.25 62.4656 54.9673 62.2042 54.7543C61.9428 54.5412 61.6133 54.4347 61.2156 54.4347C60.815 54.4347 60.4826 54.5412 60.2184 54.7543C59.957 54.9673 59.7624 55.25 59.6346 55.6023C59.5096 55.9517 59.4471 56.3352 59.4471 56.7528C59.4471 57.1733 59.5096 57.5582 59.6346 57.9077C59.7624 58.2571 59.957 58.5369 60.2184 58.7472C60.4826 58.9574 60.815 59.0625 61.2156 59.0625ZM66.9588 56.1136V60H65.6847V53.4545H66.9077V54.5199H66.9886C67.1392 54.1733 67.375 53.8949 67.696 53.6847C68.0199 53.4744 68.4276 53.3693 68.919 53.3693C69.3651 53.3693 69.7557 53.4631 70.0909 53.6506C70.4261 53.8352 70.6861 54.1108 70.8707 54.4773C71.0554 54.8437 71.1477 55.2969 71.1477 55.8366V60H69.8736V55.9901C69.8736 55.5156 69.75 55.1449 69.5028 54.8778C69.2557 54.608 68.9162 54.473 68.4844 54.473C68.1889 54.473 67.9261 54.5369 67.696 54.6648C67.4688 54.7926 67.2884 54.9801 67.1548 55.2273C67.0241 55.4716 66.9588 55.767 66.9588 56.1136Z" fill="white"/>
<path d="M54.3543 25.6525L54.3479 25.6525M57.5229 20.8514L51.7226 20.4052C51.2083 20.3657 50.7024 20.5528 50.3377 20.9175L40.9179 30.3374C40.2279 31.0274 40.2279 32.146 40.9179 32.836L47.1644 39.0825C47.8544 39.7725 48.9731 39.7725 49.663 39.0825L59.0829 29.6627C59.4476 29.298 59.6347 28.7921 59.5952 28.2779L59.149 22.4775C59.0822 21.6086 58.3918 20.9183 57.5229 20.8514Z" stroke="white" stroke-width="2" stroke-linecap="round" stroke-linejoin="round"/>
</svg>
