<svg width="100" height="80" viewBox="0 0 100 80" fill="none" xmlns="http://www.w3.org/2000/svg">
<rect width="100" height="80" rx="8" fill="#4C5F7D"/>
<path d="M34.3949 44.1108H33.0653C33.0142 43.8267 32.919 43.5767 32.7798 43.3608C32.6406 43.1449 32.4702 42.9616 32.2685 42.8111C32.0668 42.6605 31.8409 42.5469 31.5909 42.4702C31.3438 42.3935 31.081 42.3551 30.8026 42.3551C30.2997 42.3551 29.8494 42.4815 29.4517 42.7344C29.0568 42.9872 28.7443 43.358 28.5142 43.8466C28.2869 44.3352 28.1733 44.9318 28.1733 45.6364C28.1733 46.3466 28.2869 46.946 28.5142 47.4347C28.7443 47.9233 29.0582 48.2926 29.456 48.5426C29.8537 48.7926 30.3011 48.9176 30.7983 48.9176C31.0739 48.9176 31.3352 48.8807 31.5824 48.8068C31.8324 48.7301 32.0582 48.6179 32.2599 48.4702C32.4616 48.3224 32.6321 48.142 32.7713 47.929C32.9134 47.7131 33.0114 47.4659 33.0653 47.1875L34.3949 47.1918C34.3239 47.6207 34.1861 48.0156 33.9815 48.3764C33.7798 48.7344 33.5199 49.044 33.2017 49.3054C32.8864 49.5639 32.5256 49.7642 32.1193 49.9062C31.7131 50.0483 31.2699 50.1193 30.7898 50.1193C30.0341 50.1193 29.3608 49.9403 28.7699 49.5824C28.179 49.2216 27.7131 48.706 27.3722 48.0355C27.0341 47.3651 26.8651 46.5653 26.8651 45.6364C26.8651 44.7045 27.0355 43.9048 27.3764 43.2372C27.7173 42.5668 28.1832 42.0526 28.7741 41.6946C29.3651 41.3338 30.0369 41.1534 30.7898 41.1534C31.2528 41.1534 31.6847 41.2202 32.0852 41.3537C32.4886 41.4844 32.8509 41.6776 33.1719 41.9332C33.4929 42.1861 33.7585 42.4957 33.9688 42.8622C34.179 43.2259 34.321 43.642 34.3949 44.1108ZM40.0146 47.2855V43.4545H41.293V50H40.0401V48.8665H39.9719C39.8214 49.2159 39.5799 49.5071 39.2475 49.7401C38.918 49.9702 38.5075 50.0852 38.016 50.0852C37.5955 50.0852 37.2234 49.9929 36.8995 49.8082C36.5785 49.6207 36.3256 49.3438 36.141 48.9773C35.9592 48.6108 35.8683 48.1577 35.8683 47.6179V43.4545H37.1424V47.4645C37.1424 47.9105 37.266 48.2656 37.5131 48.5298C37.7603 48.794 38.0813 48.9261 38.4762 48.9261C38.7148 48.9261 38.9521 48.8665 39.1879 48.7472C39.4265 48.6278 39.6239 48.4474 39.7802 48.206C39.9393 47.9645 40.0174 47.6577 40.0146 47.2855ZM47.9098 45.0526L46.755 45.2571C46.7067 45.1094 46.63 44.9687 46.5249 44.8352C46.4226 44.7017 46.2834 44.5923 46.1072 44.5071C45.9311 44.4219 45.7109 44.3793 45.4467 44.3793C45.0859 44.3793 44.7848 44.4602 44.5433 44.6222C44.3018 44.7812 44.1811 44.9872 44.1811 45.2401C44.1811 45.4588 44.2621 45.6349 44.424 45.7685C44.5859 45.902 44.8473 46.0114 45.2081 46.0966L46.2479 46.3352C46.8501 46.4744 47.299 46.6889 47.5945 46.9787C47.8899 47.2685 48.0376 47.6449 48.0376 48.108C48.0376 48.5 47.924 48.8494 47.6967 49.1562C47.4723 49.4602 47.1584 49.6989 46.755 49.8722C46.3544 50.0455 45.8899 50.1321 45.3615 50.1321C44.6286 50.1321 44.0305 49.9759 43.5675 49.6634C43.1044 49.348 42.8203 48.9006 42.7152 48.321L43.9467 48.1335C44.0234 48.4545 44.1811 48.6974 44.4197 48.8622C44.6584 49.0241 44.9695 49.1051 45.353 49.1051C45.7706 49.1051 46.1044 49.0185 46.3544 48.8452C46.6044 48.669 46.7294 48.4545 46.7294 48.2017C46.7294 47.9972 46.6527 47.8253 46.4993 47.6861C46.3487 47.5469 46.1172 47.4418 45.8047 47.3707L44.6967 47.1278C44.0859 46.9886 43.6342 46.767 43.3416 46.4631C43.0518 46.1591 42.907 45.7741 42.907 45.3082C42.907 44.9219 43.0149 44.5838 43.2308 44.294C43.4467 44.0043 43.745 43.7784 44.1257 43.6165C44.5064 43.4517 44.9425 43.3693 45.4339 43.3693C46.1413 43.3693 46.6982 43.5227 47.1044 43.8295C47.5107 44.1335 47.7791 44.5412 47.9098 45.0526ZM52.494 43.4545V44.4773H48.9187V43.4545H52.494ZM49.8775 41.8864H51.1516V48.0781C51.1516 48.3253 51.1886 48.5114 51.2624 48.6364C51.3363 48.7585 51.4315 48.8423 51.5479 48.8878C51.6673 48.9304 51.7965 48.9517 51.9357 48.9517C52.038 48.9517 52.1275 48.9446 52.2042 48.9304C52.2809 48.9162 52.3406 48.9048 52.3832 48.8963L52.6133 49.9489C52.5394 49.9773 52.4343 50.0057 52.2979 50.0341C52.1616 50.0653 51.9911 50.0824 51.7866 50.0852C51.4513 50.0909 51.1388 50.0312 50.8491 49.9062C50.5593 49.7812 50.3249 49.5881 50.146 49.3267C49.967 49.0653 49.8775 48.7372 49.8775 48.3423V41.8864ZM56.5902 50.1321C55.9766 50.1321 55.4411 49.9915 54.9837 49.7102C54.5263 49.429 54.1712 49.0355 53.9183 48.5298C53.6655 48.0241 53.5391 47.4332 53.5391 46.7571C53.5391 46.0781 53.6655 45.4844 53.9183 44.9759C54.1712 44.4673 54.5263 44.0724 54.9837 43.7912C55.4411 43.5099 55.9766 43.3693 56.5902 43.3693C57.2038 43.3693 57.7393 43.5099 58.1967 43.7912C58.6541 44.0724 59.0092 44.4673 59.2621 44.9759C59.5149 45.4844 59.6413 46.0781 59.6413 46.7571C59.6413 47.4332 59.5149 48.0241 59.2621 48.5298C59.0092 49.0355 58.6541 49.429 58.1967 49.7102C57.7393 49.9915 57.2038 50.1321 56.5902 50.1321ZM56.5945 49.0625C56.9922 49.0625 57.3217 48.9574 57.5831 48.7472C57.8445 48.5369 58.0376 48.2571 58.1626 47.9077C58.2905 47.5582 58.3544 47.1733 58.3544 46.7528C58.3544 46.3352 58.2905 45.9517 58.1626 45.6023C58.0376 45.25 57.8445 44.9673 57.5831 44.7543C57.3217 44.5412 56.9922 44.4347 56.5945 44.4347C56.1939 44.4347 55.8615 44.5412 55.5973 44.7543C55.3359 44.9673 55.1413 45.25 55.0135 45.6023C54.8885 45.9517 54.826 46.3352 54.826 46.7528C54.826 47.1733 54.8885 47.5582 55.0135 47.9077C55.1413 48.2571 55.3359 48.5369 55.5973 48.7472C55.8615 48.9574 56.1939 49.0625 56.5945 49.0625ZM61.0636 50V43.4545H62.2866V44.5199H62.3675C62.5039 44.1591 62.7269 43.8778 63.0366 43.6761C63.3462 43.4716 63.717 43.3693 64.1488 43.3693C64.5863 43.3693 64.9528 43.4716 65.2482 43.6761C65.5465 43.8807 65.7667 44.1619 65.9087 44.5199H65.9769C66.1332 44.1705 66.3817 43.892 66.7227 43.6847C67.0636 43.4744 67.4698 43.3693 67.9414 43.3693C68.5352 43.3693 69.0195 43.5554 69.3945 43.9276C69.7724 44.2997 69.9613 44.8608 69.9613 45.6108V50H68.6871V45.7301C68.6871 45.2869 68.5664 44.9659 68.3249 44.767C68.0835 44.5682 67.7951 44.4688 67.4599 44.4688C67.0451 44.4688 66.7227 44.5966 66.4925 44.8523C66.2624 45.1051 66.1474 45.4304 66.1474 45.8281V50H64.8775V45.6491C64.8775 45.294 64.7667 45.0085 64.5451 44.7926C64.3235 44.5767 64.0352 44.4688 63.68 44.4688C63.4386 44.4688 63.2156 44.5327 63.011 44.6605C62.8093 44.7855 62.646 44.9602 62.521 45.1847C62.3988 45.4091 62.3377 45.669 62.3377 45.9645V50H61.0636Z" fill="white"/>
<path d="M39.6369 56.2727V65H38.3201V56.2727H39.6369ZM44.5076 58.4545V59.4773H40.9324V58.4545H44.5076ZM41.8912 56.8864H43.1653V63.0781C43.1653 63.3253 43.2022 63.5114 43.2761 63.6364C43.35 63.7585 43.4451 63.8423 43.5616 63.8878C43.6809 63.9304 43.8102 63.9517 43.9494 63.9517C44.0517 63.9517 44.1412 63.9446 44.2179 63.9304C44.2946 63.9162 44.3542 63.9048 44.3968 63.8963L44.627 64.9489C44.5531 64.9773 44.448 65.0057 44.3116 65.0341C44.1752 65.0653 44.0048 65.0824 43.8002 65.0852C43.465 65.0909 43.1525 65.0312 42.8627 64.9062C42.573 64.7812 42.3386 64.5881 42.1596 64.3267C41.9806 64.0653 41.8912 63.7372 41.8912 63.3423V56.8864ZM48.6678 65.1321C48.0229 65.1321 47.4675 64.9943 47.0016 64.7188C46.5385 64.4403 46.1806 64.0497 45.9277 63.5469C45.6777 63.0412 45.5527 62.4489 45.5527 61.7699C45.5527 61.0994 45.6777 60.5085 45.9277 59.9972C46.1806 59.4858 46.5328 59.0866 46.9846 58.7997C47.4391 58.5128 47.9703 58.3693 48.5783 58.3693C48.9476 58.3693 49.3056 58.4304 49.6522 58.5526C49.9988 58.6747 50.3098 58.8665 50.5854 59.1278C50.861 59.3892 51.0783 59.7287 51.2374 60.1463C51.3965 60.5611 51.476 61.0653 51.476 61.6591V62.1108H46.2729V61.1562H50.2275C50.2275 60.821 50.1593 60.5241 50.0229 60.2656C49.8865 60.0043 49.6948 59.7983 49.4476 59.6477C49.2033 59.4972 48.9164 59.4219 48.5868 59.4219C48.2289 59.4219 47.9164 59.5099 47.6493 59.6861C47.3851 59.8594 47.1806 60.0866 47.0357 60.3679C46.8936 60.6463 46.8226 60.9489 46.8226 61.2756V62.0213C46.8226 62.4588 46.8993 62.831 47.0527 63.1378C47.209 63.4446 47.4263 63.679 47.7047 63.8409C47.9831 64 48.3084 64.0795 48.6806 64.0795C48.9221 64.0795 49.1422 64.0455 49.3411 63.9773C49.54 63.9062 49.7118 63.8011 49.8567 63.6619C50.0016 63.5227 50.1124 63.3509 50.1891 63.1463L51.3951 63.3636C51.2985 63.7187 51.1252 64.0298 50.8752 64.2969C50.628 64.5611 50.3169 64.767 49.9419 64.9148C49.5698 65.0597 49.1451 65.1321 48.6678 65.1321ZM52.8897 65V58.4545H54.1127V59.5199H54.1937C54.3301 59.1591 54.5531 58.8778 54.8627 58.6761C55.1724 58.4716 55.5431 58.3693 55.975 58.3693C56.4125 58.3693 56.7789 58.4716 57.0744 58.6761C57.3727 58.8807 57.5929 59.1619 57.7349 59.5199H57.8031C57.9593 59.1705 58.2079 58.892 58.5488 58.6847C58.8897 58.4744 59.296 58.3693 59.7676 58.3693C60.3613 58.3693 60.8457 58.5554 61.2207 58.9276C61.5985 59.2997 61.7875 59.8608 61.7875 60.6108V65H60.5133V60.7301C60.5133 60.2869 60.3926 59.9659 60.1511 59.767C59.9096 59.5682 59.6213 59.4688 59.286 59.4688C58.8713 59.4688 58.5488 59.5966 58.3187 59.8523C58.0886 60.1051 57.9735 60.4304 57.9735 60.8281V65H56.7037V60.6491C56.7037 60.294 56.5929 60.0085 56.3713 59.7926C56.1497 59.5767 55.8613 59.4688 55.5062 59.4688C55.2647 59.4688 55.0417 59.5327 54.8372 59.6605C54.6355 59.7855 54.4721 59.9602 54.3471 60.1847C54.225 60.4091 54.1639 60.669 54.1639 60.9645V65H52.8897Z" fill="white"/>
<path d="M55.025 35L54.725 33.5C54.525 33.4167 54.3377 33.3293 54.163 33.238C53.9883 33.1467 53.809 33.034 53.625 32.9L52.175 33.35L51.175 31.65L52.325 30.65C52.2917 30.45 52.275 30.2333 52.275 30C52.275 29.7667 52.2917 29.55 52.325 29.35L51.175 28.35L52.175 26.65L53.625 27.1C53.8083 26.9667 53.9877 26.8543 54.163 26.763C54.3383 26.6717 54.5257 26.584 54.725 26.5L55.025 25H57.025L57.325 26.5C57.525 26.5833 57.7127 26.671 57.888 26.763C58.0633 26.855 58.2423 26.9673 58.425 27.1L59.875 26.65L60.875 28.35L59.725 29.35C59.7583 29.55 59.775 29.7667 59.775 30C59.775 30.2333 59.7583 30.45 59.725 30.65L60.875 31.65L59.875 33.35L58.425 32.9C58.2417 33.0333 58.0627 33.146 57.888 33.238C57.7133 33.33 57.5257 33.4173 57.325 33.5L57.025 35H55.025ZM43 34C42.45 34 41.9793 33.8043 41.588 33.413C41.1967 33.0217 41.0007 32.5507 41 32V18C41 17.45 41.196 16.9793 41.588 16.588C41.98 16.1967 42.4507 16.0007 43 16H57C57.55 16 58.021 16.196 58.413 16.588C58.805 16.98 59.0007 17.4507 59 18V23.65C58.6833 23.5 58.3583 23.379 58.025 23.287C57.6917 23.195 57.35 23.1247 57 23.076V18H43V27H47.2C47.35 27.45 47.6 27.8417 47.95 28.175C48.3 28.5083 48.6917 28.7417 49.125 28.875C48.975 29.775 48.996 30.6667 49.188 31.55C49.38 32.4333 49.7423 33.25 50.275 34H43ZM56.025 32C56.575 32 57.046 31.8043 57.438 31.413C57.83 31.0217 58.0257 30.5507 58.025 30C58.0243 29.4493 57.8287 28.9787 57.438 28.588C57.0473 28.1973 56.5763 28.0013 56.025 28C55.4737 27.9987 55.003 28.1947 54.613 28.588C54.223 28.9813 54.027 29.452 54.025 30C54.023 30.548 54.219 31.019 54.613 31.413C55.007 31.807 55.4777 32.0027 56.025 32Z" fill="white"/>
</svg>
