<svg width="25" height="24" viewBox="0 0 25 24" fill="none" xmlns="http://www.w3.org/2000/svg">
<rect x="0.509375" y="0.4" width="23.2" height="23.2" rx="7.6" stroke="#F44336" stroke-width="0.8"/>
<path d="M10.6944 8C10.7977 7.70724 10.9892 7.45372 11.2427 7.2744C11.4961 7.09508 11.7989 6.99878 12.1094 6.99878C12.4198 6.99878 12.7226 7.09508 12.9761 7.2744C13.2295 7.45372 13.4211 7.70724 13.5244 8M16.3594 9H7.85938M15.5259 10.25L15.2959 13.7C15.2074 15.027 15.1634 15.6905 14.7309 16.095C14.2984 16.4995 13.6329 16.5 12.3029 16.5H11.9159C10.5859 16.5 9.92037 16.5 9.48787 16.095C9.05537 15.6905 9.01087 15.027 8.92287 13.7L8.69287 10.25M10.8594 11.5L11.1094 14M13.3594 11.5L13.1094 14" stroke="#F44336" stroke-width="0.8" stroke-linecap="round"/>
</svg>
