<svg width="17" height="16" viewBox="0 0 17 16" fill="none" xmlns="http://www.w3.org/2000/svg">
<path d="M5.81862 10.4L10.8058 5.59997M6.20229 5.9662L6.19249 5.95668M10.4349 10.0818L10.4251 10.0722M5.48811 2.92486L4.78304 2.96619C3.86772 3.01984 3.13784 3.72232 3.0821 4.60328L3.03916 5.28188C3.01453 5.67115 2.85523 6.04129 2.58666 6.33331L2.11846 6.84238C1.51064 7.50325 1.51064 8.4967 2.11846 9.15757L2.58666 9.66664C2.85523 9.95866 3.01453 10.3288 3.03916 10.7181L3.0821 11.3967C3.13784 12.2776 3.86772 12.9801 4.78304 13.0338L5.48811 13.0751C5.89257 13.0988 6.27714 13.2521 6.58055 13.5106L7.10948 13.9612C7.79613 14.5462 8.82833 14.5462 9.51497 13.9612L10.0439 13.5106C10.3473 13.2521 10.7319 13.0988 11.1363 13.0751L11.8414 13.0338C12.7567 12.9801 13.4866 12.2776 13.5424 11.3967L13.5853 10.7181C13.6099 10.3288 13.7692 9.95866 14.0378 9.66664L14.506 9.15757C15.1138 8.4967 15.1138 7.50325 14.506 6.84238L14.0378 6.33331C13.7692 6.04129 13.6099 5.67115 13.5853 5.28188L13.5424 4.60328C13.4866 3.72232 12.7567 3.01984 11.8414 2.96619L11.1363 2.92486C10.7319 2.90115 10.3473 2.74784 10.0439 2.48934L9.51497 2.03872C8.82833 1.45373 7.79613 1.45373 7.10948 2.03872L6.58055 2.48934C6.27714 2.74784 5.89257 2.90115 5.48811 2.92486Z" stroke="#036A07" stroke-width="1.5" stroke-linecap="round"/>
</svg>
