<svg width="40" height="40" viewBox="0 0 40 40" fill="none" xmlns="http://www.w3.org/2000/svg">
<path d="M14.8421 23.75C15.3307 23.75 15.7992 23.5525 16.1447 23.2008C16.4901 22.8492 16.6842 22.3723 16.6842 21.875C16.6842 21.3777 16.4901 20.9008 16.1447 20.5492C15.7992 20.1975 15.3307 20 14.8421 20C14.3535 20 13.885 20.1975 13.5395 20.5492C13.1941 20.9008 13 21.3777 13 21.875C13 22.3723 13.1941 22.8492 13.5395 23.2008C13.885 23.5525 14.3535 23.75 14.8421 23.75ZM14.8421 29C15.3307 29 15.7992 28.8025 16.1447 28.4508C16.4901 28.0992 16.6842 27.6223 16.6842 27.125C16.6842 26.6277 16.4901 26.1508 16.1447 25.7992C15.7992 25.4475 15.3307 25.25 14.8421 25.25C14.3535 25.25 13.885 25.4475 13.5395 25.7992C13.1941 26.1508 13 26.6277 13 27.125C13 27.6223 13.1941 28.0992 13.5395 28.4508C13.885 28.8025 14.3535 29 14.8421 29ZM21.8421 21.875C21.8421 22.3723 21.648 22.8492 21.3026 23.2008C20.9571 23.5525 20.4886 23.75 20 23.75C19.5114 23.75 19.0429 23.5525 18.6974 23.2008C18.352 22.8492 18.1579 22.3723 18.1579 21.875C18.1579 21.3777 18.352 20.9008 18.6974 20.5492C19.0429 20.1975 19.5114 20 20 20C20.4886 20 20.9571 20.1975 21.3026 20.5492C21.648 20.9008 21.8421 21.3777 21.8421 21.875ZM20 29C20.4886 29 20.9571 28.8025 21.3026 28.4508C21.648 28.0992 21.8421 27.6223 21.8421 27.125C21.8421 26.6277 21.648 26.1508 21.3026 25.7992C20.9571 25.4475 20.4886 25.25 20 25.25C19.5114 25.25 19.0429 25.4475 18.6974 25.7992C18.352 26.1508 18.1579 26.6277 18.1579 27.125C18.1579 27.6223 18.352 28.0992 18.6974 28.4508C19.0429 28.8025 19.5114 29 20 29ZM27 21.875C27 22.3723 26.8059 22.8492 26.4605 23.2008C26.115 23.5525 25.6465 23.75 25.1579 23.75C24.6693 23.75 24.2008 23.5525 23.8553 23.2008C23.5099 22.8492 23.3158 22.3723 23.3158 21.875C23.3158 21.3777 23.5099 20.9008 23.8553 20.5492C24.2008 20.1975 24.6693 20 25.1579 20C25.6465 20 26.115 20.1975 26.4605 20.5492C26.8059 20.9008 27 21.3777 27 21.875Z" fill="black"/>
<path fill-rule="evenodd" clip-rule="evenodd" d="M13.334 5.4165C13.6655 5.4165 13.9834 5.5482 14.2179 5.78262C14.4523 6.01704 14.584 6.33498 14.584 6.6665V7.9165H25.4173V6.6665C25.4173 6.33498 25.549 6.01704 25.7834 5.78262C26.0179 5.5482 26.3358 5.4165 26.6673 5.4165C26.9988 5.4165 27.3168 5.5482 27.5512 5.78262C27.7856 6.01704 27.9173 6.33498 27.9173 6.6665V7.92984C28.1707 7.9365 28.4068 7.94873 28.6256 7.9665C29.259 8.0165 29.8523 8.12984 30.414 8.4165C31.2766 8.85595 31.9779 9.55725 32.4173 10.4198C32.704 10.9815 32.8173 11.5748 32.8673 12.2082C32.9173 12.8165 32.9173 13.5582 32.9173 14.4498V27.2165C32.9173 28.1082 32.9173 28.8498 32.8673 29.4582C32.8173 30.0915 32.704 30.6848 32.4173 31.2465C31.9783 32.1088 31.2776 32.8101 30.4157 33.2498C29.8523 33.5365 29.259 33.6498 28.6256 33.6998C28.0173 33.7498 27.2757 33.7498 26.3857 33.7498H13.6173C12.7257 33.7498 11.984 33.7498 11.3757 33.6998C10.7423 33.6498 10.149 33.5365 9.58732 33.2498C8.72524 32.8113 8.024 32.1112 7.58398 31.2498C7.29732 30.6865 7.18398 30.0932 7.13398 29.4598C7.08398 28.8515 7.08398 28.1098 7.08398 27.2198V14.4498C7.08398 13.5582 7.08398 12.8165 7.13398 12.2082C7.18398 11.5748 7.29732 10.9815 7.58398 10.4198C8.02344 9.55725 8.72473 8.85595 9.58732 8.4165C10.149 8.12984 10.7423 8.0165 11.3757 7.9665C11.5945 7.94873 11.8307 7.9365 12.084 7.92984V6.6665C12.084 6.50235 12.1163 6.33981 12.1791 6.18815C12.242 6.03649 12.334 5.89869 12.4501 5.78262C12.5662 5.66655 12.704 5.57447 12.8556 5.51165C13.0073 5.44884 13.1698 5.4165 13.334 5.4165ZM12.084 10.8332V10.4298C11.9154 10.435 11.7471 10.4445 11.579 10.4582C11.1007 10.4965 10.8723 10.5665 10.7223 10.6432C10.3297 10.843 10.0105 11.1622 9.81065 11.5548C9.73398 11.7048 9.66398 11.9332 9.62565 12.4115C9.58565 12.9048 9.58398 13.5448 9.58398 14.4998V15.4165H30.4173V14.4998C30.4173 13.5465 30.4173 12.9048 30.3757 12.4115C30.3373 11.9332 30.2673 11.7048 30.1907 11.5548C29.9908 11.1622 29.6716 10.843 29.279 10.6432C29.129 10.5665 28.9007 10.4965 28.4207 10.4582C28.2531 10.4445 28.0853 10.4351 27.9173 10.4298V10.8332C27.9173 11.1647 27.7856 11.4826 27.5512 11.7171C27.3168 11.9515 26.9988 12.0832 26.6673 12.0832C26.3358 12.0832 26.0179 11.9515 25.7834 11.7171C25.549 11.4826 25.4173 11.1647 25.4173 10.8332V10.4165H14.584V10.8332C14.584 11.1647 14.4523 11.4826 14.2179 11.7171C13.9834 11.9515 13.6655 12.0832 13.334 12.0832C13.0025 12.0832 12.6845 11.9515 12.4501 11.7171C12.2157 11.4826 12.084 11.1647 12.084 10.8332ZM30.4173 17.0832H9.58398V27.1665C9.58398 28.1198 9.58398 28.7615 9.62565 29.2532C9.66398 29.7332 9.73398 29.9615 9.81065 30.1115C10.0107 30.5048 10.329 30.8232 10.7223 31.0232C10.8723 31.0998 11.1007 31.1698 11.579 31.2082C12.0723 31.2482 12.7123 31.2498 13.6673 31.2498H26.334C27.2873 31.2498 27.929 31.2498 28.4207 31.2082C28.9007 31.1698 29.129 31.0998 29.279 31.0232C29.6716 30.8233 29.9908 30.5041 30.1907 30.1115C30.2673 29.9615 30.3373 29.7332 30.3757 29.2532C30.4157 28.7615 30.4173 28.1198 30.4173 27.1665V17.0832Z" fill="black"/>
<path fill-rule="evenodd" clip-rule="evenodd" d="M16.25 12.9165C16.25 12.585 16.3817 12.267 16.6161 12.0326C16.8505 11.7982 17.1685 11.6665 17.5 11.6665H22.5C22.8315 11.6665 23.1495 11.7982 23.3839 12.0326C23.6183 12.267 23.75 12.585 23.75 12.9165C23.75 13.248 23.6183 13.566 23.3839 13.8004C23.1495 14.0348 22.8315 14.1665 22.5 14.1665H17.5C17.1685 14.1665 16.8505 14.0348 16.6161 13.8004C16.3817 13.566 16.25 13.248 16.25 12.9165Z" fill="black"/>
</svg>
