<svg width="100" height="80" viewBox="0 0 100 80" fill="none" xmlns="http://www.w3.org/2000/svg">
<rect x="0.5" y="0.5" width="99" height="79" rx="7.5" fill="#D93535" stroke="#D9D9D9"/>
<path d="M27.9588 63V54.2727H31.0696C31.7486 54.2727 32.3111 54.3963 32.7571 54.6435C33.2031 54.8906 33.5369 55.2287 33.7585 55.6577C33.9801 56.0838 34.0909 56.5639 34.0909 57.098C34.0909 57.6349 33.9787 58.1179 33.7543 58.5469C33.5327 58.973 33.1974 59.3111 32.7486 59.5611C32.3026 59.8082 31.7415 59.9318 31.0653 59.9318H28.9261V58.8153H30.946C31.375 58.8153 31.723 58.7415 31.9901 58.5938C32.2571 58.4432 32.4531 58.2386 32.5781 57.9801C32.7031 57.7216 32.7656 57.4276 32.7656 57.098C32.7656 56.7685 32.7031 56.4759 32.5781 56.2202C32.4531 55.9645 32.2557 55.7642 31.9858 55.6193C31.7188 55.4744 31.3665 55.402 30.929 55.402H29.2756V63H27.9588ZM37.3786 63.1449C36.9638 63.1449 36.5888 63.0682 36.2536 62.9148C35.9183 62.7585 35.6527 62.5327 35.4567 62.2372C35.2635 61.9418 35.1669 61.5795 35.1669 61.1506C35.1669 60.7812 35.2379 60.4773 35.38 60.2386C35.522 60 35.7138 59.8111 35.9553 59.6719C36.1967 59.5327 36.4666 59.4276 36.7649 59.3565C37.0632 59.2855 37.3672 59.2315 37.6768 59.1946C38.0689 59.1491 38.3871 59.1122 38.6314 59.0838C38.8757 59.0526 39.0533 59.0028 39.1641 58.9347C39.2749 58.8665 39.3303 58.7557 39.3303 58.6023V58.5724C39.3303 58.2003 39.2251 57.9119 39.0149 57.7074C38.8075 57.5028 38.4979 57.4006 38.0859 57.4006C37.657 57.4006 37.3189 57.4957 37.0717 57.6861C36.8274 57.8736 36.6584 58.0824 36.5646 58.3125L35.3672 58.0398C35.5092 57.642 35.7166 57.321 35.9893 57.0767C36.2649 56.8295 36.5817 56.6506 36.9396 56.5398C37.2976 56.4261 37.674 56.3693 38.0689 56.3693C38.3303 56.3693 38.6072 56.4006 38.8999 56.4631C39.1953 56.5227 39.4709 56.6335 39.7266 56.7955C39.9851 56.9574 40.1967 57.1889 40.3615 57.4901C40.5263 57.7884 40.6087 58.1761 40.6087 58.6534V63H39.3643V62.1051H39.3132C39.2308 62.2699 39.1072 62.4318 38.9425 62.5909C38.7777 62.75 38.5661 62.8821 38.3075 62.9872C38.049 63.0923 37.7393 63.1449 37.3786 63.1449ZM37.6555 62.1222C38.0078 62.1222 38.3089 62.0526 38.5589 61.9134C38.8118 61.7741 39.0036 61.5923 39.1342 61.3679C39.2678 61.1406 39.3345 60.8977 39.3345 60.6392V59.7955C39.2891 59.8409 39.201 59.8835 39.0703 59.9233C38.9425 59.9602 38.7962 59.9929 38.6314 60.0213C38.4666 60.0469 38.3061 60.071 38.1499 60.0938C37.9936 60.1136 37.8629 60.1307 37.7578 60.1449C37.5107 60.1761 37.2848 60.2287 37.0803 60.3026C36.8786 60.3764 36.7166 60.483 36.5945 60.6222C36.4751 60.7585 36.4155 60.9403 36.4155 61.1676C36.4155 61.483 36.532 61.7216 36.7649 61.8835C36.9979 62.0426 37.2947 62.1222 37.6555 62.1222ZM42.8768 65.4545C42.6864 65.4545 42.5131 65.4389 42.3569 65.4077C42.2006 65.3793 42.0842 65.348 42.0075 65.3139L42.3143 64.2699C42.5472 64.3324 42.7546 64.3594 42.9364 64.3509C43.1183 64.3423 43.2788 64.2741 43.418 64.1463C43.56 64.0185 43.685 63.8097 43.793 63.5199L43.9506 63.0852L41.5558 56.4545H42.9194L44.5771 61.5341H44.6452L46.3029 56.4545H47.6708L44.9734 63.8736C44.8484 64.2145 44.6893 64.5028 44.4961 64.7386C44.3029 64.9773 44.0728 65.1563 43.8058 65.2756C43.5387 65.3949 43.229 65.4545 42.8768 65.4545ZM59.7273 58.6364C59.7273 59.5682 59.5568 60.3693 59.2159 61.0398C58.875 61.7074 58.4077 62.2216 57.8139 62.5824C57.223 62.9403 56.5511 63.1193 55.7983 63.1193C55.0426 63.1193 54.3679 62.9403 53.7741 62.5824C53.1832 62.2216 52.7173 61.706 52.3764 61.0355C52.0355 60.3651 51.8651 59.5653 51.8651 58.6364C51.8651 57.7045 52.0355 56.9048 52.3764 56.2372C52.7173 55.5668 53.1832 55.0526 53.7741 54.6946C54.3679 54.3338 55.0426 54.1534 55.7983 54.1534C56.5511 54.1534 57.223 54.3338 57.8139 54.6946C58.4077 55.0526 58.875 55.5668 59.2159 56.2372C59.5568 56.9048 59.7273 57.7045 59.7273 58.6364ZM58.4233 58.6364C58.4233 57.9261 58.3082 57.3281 58.0781 56.8423C57.8509 56.3537 57.5384 55.9844 57.1406 55.7344C56.7457 55.4815 56.2983 55.3551 55.7983 55.3551C55.2955 55.3551 54.8466 55.4815 54.4517 55.7344C54.0568 55.9844 53.7443 56.3537 53.5142 56.8423C53.2869 57.3281 53.1733 57.9261 53.1733 58.6364C53.1733 59.3466 53.2869 59.946 53.5142 60.4347C53.7443 60.9205 54.0568 61.2898 54.4517 61.5426C54.8466 61.7926 55.2955 61.9176 55.7983 61.9176C56.2983 61.9176 56.7457 61.7926 57.1406 61.5426C57.5384 61.2898 57.8509 60.9205 58.0781 60.4347C58.3082 59.946 58.4233 59.3466 58.4233 58.6364ZM65.413 60.2855V56.4545H66.6914V63H65.4386V61.8665H65.3704C65.2198 62.2159 64.9783 62.5071 64.646 62.7401C64.3164 62.9702 63.9059 63.0852 63.4144 63.0852C62.994 63.0852 62.6218 62.9929 62.2979 62.8082C61.9769 62.6207 61.7241 62.3438 61.5394 61.9773C61.3576 61.6108 61.2667 61.1577 61.2667 60.6179V56.4545H62.5408V60.4645C62.5408 60.9105 62.6644 61.2656 62.9116 61.5298C63.1587 61.794 63.4798 61.9261 63.8746 61.9261C64.1133 61.9261 64.3505 61.8665 64.5863 61.7472C64.8249 61.6278 65.0224 61.4474 65.1786 61.206C65.3377 60.9645 65.4158 60.6577 65.413 60.2855ZM71.4588 56.4545V57.4773H67.8835V56.4545H71.4588ZM68.8423 54.8864H70.1165V61.0781C70.1165 61.3253 70.1534 61.5114 70.2273 61.6364C70.3011 61.7585 70.3963 61.8423 70.5128 61.8878C70.6321 61.9304 70.7614 61.9517 70.9006 61.9517C71.0028 61.9517 71.0923 61.9446 71.169 61.9304C71.2457 61.9162 71.3054 61.9048 71.348 61.8963L71.5781 62.9489C71.5043 62.9773 71.3991 63.0057 71.2628 63.0341C71.1264 63.0653 70.956 63.0824 70.7514 63.0852C70.4162 63.0909 70.1037 63.0312 69.8139 62.9062C69.5241 62.7812 69.2898 62.5881 69.1108 62.3267C68.9318 62.0653 68.8423 61.7372 68.8423 61.3423V54.8864Z" fill="white"/>
<path d="M46.8186 39.8648C46.4253 39.9948 46.2119 40.419 46.3418 40.8123C46.4718 41.2056 46.896 41.419 47.2893 41.289L46.8186 39.8648ZM54.3277 41.0577L54.2603 40.3107H54.2603L54.3277 41.0577ZM58.692 40.0962L59.0186 40.7713L58.692 40.0962ZM62.8622 36.3351L62.2813 35.8606V35.8606L62.8622 36.3351ZM60.01 33.9817L60.538 34.5144L60.01 33.9817ZM58.0894 35.8859L58.6175 36.4185L58.0894 35.8859ZM52.873 35.9808C52.4588 35.9808 52.123 36.3166 52.123 36.7308C52.123 37.145 52.4588 37.4808 52.873 37.4808V35.9808ZM62.4187 33.7453L62.0052 34.371L62.4187 33.7453ZM48.53 33.1144L48.8631 33.7864L48.53 33.1144ZM53.7501 32.641L53.9459 31.917L53.7501 32.641ZM55.7886 33.1922L55.5928 33.9162L55.7886 33.1922ZM56.4345 35.6036L55.9065 35.071L56.4345 35.6036ZM54.7695 36.1982C54.4754 36.4898 54.4733 36.9647 54.765 37.2588C55.0566 37.553 55.5315 37.555 55.8256 37.2634L54.7695 36.1982ZM47.0539 40.5769L47.2893 41.289C47.5079 41.2168 47.8708 41.19 48.4103 41.2281C48.9346 41.2652 49.5404 41.3557 50.2117 41.4602C51.5107 41.6625 53.0703 41.9243 54.3952 41.8047L54.3277 41.0577L54.2603 40.3107C53.1606 40.4101 51.8106 40.1911 50.4426 39.9781C49.7804 39.875 49.1133 39.7741 48.5161 39.7319C47.9343 39.6907 47.3273 39.6967 46.8186 39.8648L47.0539 40.5769ZM54.3277 41.0577L54.3952 41.8047C56.2908 41.6334 57.1385 41.681 59.0186 40.7713L58.692 40.0962L58.3654 39.421C56.7743 40.1908 56.2112 40.1345 54.2603 40.3107L54.3277 41.0577ZM58.692 40.0962L59.0186 40.7713C60.6953 39.9601 62.3958 38.0914 63.443 36.8096L62.8622 36.3351L62.2813 35.8606C61.2269 37.1514 59.7103 38.7703 58.3654 39.421L58.692 40.0962ZM60.01 33.9817L59.482 33.4491L57.5614 35.3533L58.0894 35.8859L58.6175 36.4185L60.538 34.5144L60.01 33.9817ZM56.0321 36.7308V35.9808H52.873V36.7308V37.4808H56.0321V36.7308ZM58.0894 35.8859L57.5614 35.3533C57.1569 35.7543 56.6069 35.9808 56.0321 35.9808V36.7308V37.4808C57.0006 37.4808 57.9307 37.0994 58.6175 36.4185L58.0894 35.8859ZM62.4187 33.7453L62.8323 33.1196C61.7796 32.4238 60.3782 32.5605 59.482 33.4491L60.01 33.9817L60.538 34.5144C60.9286 34.1271 61.5436 34.0659 62.0052 34.371L62.4187 33.7453ZM62.8622 36.3351L63.443 36.8096C64.4165 35.6179 64.0558 33.9283 62.8323 33.1196L62.4187 33.7453L62.0052 34.371C62.5509 34.7316 62.6461 35.414 62.2813 35.8606L62.8622 36.3351ZM41.7198 31.9231V32.6731H45.5992V31.9231V31.1731H41.7198V31.9231ZM46.569 32.8846H45.819V41.5385H46.569H47.319V32.8846H46.569ZM45.5992 42.5V41.75H41.7198V42.5V43.25H45.5992V42.5ZM40.75 41.5385H41.5V32.8846H40.75H40V41.5385H40.75ZM41.7198 42.5V41.75C41.5923 41.75 41.5 41.6492 41.5 41.5385H40.75H40C40 42.4898 40.7761 43.25 41.7198 43.25V42.5ZM46.569 41.5385H45.819C45.819 41.6492 45.7267 41.75 45.5992 41.75V42.5V43.25C46.5429 43.25 47.319 42.4898 47.319 41.5385H46.569ZM45.5992 31.9231V32.6731C45.7267 32.6731 45.819 32.7739 45.819 32.8846H46.569H47.319C47.319 31.9333 46.5429 31.1731 45.5992 31.1731V31.9231ZM41.7198 31.9231V31.1731C40.7761 31.1731 40 31.9333 40 32.8846H40.75H41.5C41.5 32.7739 41.5923 32.6731 41.7198 32.6731V31.9231ZM47.0539 33.8462L47.3871 34.5181L48.8631 33.7864L48.53 33.1144L48.1969 32.4425L46.7208 33.1742L47.0539 33.8462ZM51.5661 32.4038V33.1538H51.9638V32.4038V31.6538H51.5661V32.4038ZM53.7501 32.641L53.5543 33.365L55.5928 33.9162L55.7886 33.1922L55.9844 32.4682L53.9459 31.917L53.7501 32.641ZM56.4345 35.6036L55.9065 35.071L54.7695 36.1982L55.2976 36.7308L55.8256 37.2634L56.9625 36.1362L56.4345 35.6036ZM55.7886 33.1922L55.5928 33.9162C56.1187 34.0584 56.2813 34.6994 55.9065 35.071L56.4345 35.6036L56.9625 36.1362C58.1674 34.9416 57.6138 32.9088 55.9844 32.4682L55.7886 33.1922ZM51.9638 32.4038V33.1538C52.5012 33.1538 53.036 33.2249 53.5543 33.365L53.7501 32.641L53.9459 31.917C53.2998 31.7423 52.6333 31.6538 51.9638 31.6538V32.4038ZM48.53 33.1144L48.8631 33.7864C49.7021 33.3705 50.6275 33.1538 51.5661 33.1538V32.4038V31.6538C50.3968 31.6538 49.2433 31.9237 48.1969 32.4425L48.53 33.1144ZM59.1769 25.1923H58.4269C58.4269 26.8962 57.032 28.2885 55.2976 28.2885V29.0385V29.7885C57.8482 29.7885 59.9269 27.7368 59.9269 25.1923H59.1769ZM55.2976 29.0385V28.2885C53.5632 28.2885 52.1682 26.8962 52.1682 25.1923H51.4182H50.6682C50.6682 27.7368 52.7469 29.7885 55.2976 29.7885V29.0385ZM51.4182 25.1923H52.1682C52.1682 23.4884 53.5632 22.0962 55.2976 22.0962V21.3462V20.5962C52.7469 20.5962 50.6682 22.6479 50.6682 25.1923H51.4182ZM55.2976 21.3462V22.0962C57.032 22.0962 58.4269 23.4884 58.4269 25.1923H59.1769H59.9269C59.9269 22.6479 57.8482 20.5962 55.2976 20.5962V21.3462ZM51.4182 25.1923V24.4423C49.6838 24.4423 48.2889 23.05 48.2889 21.3462H47.5389H46.7889C46.7889 23.8906 48.8676 25.9423 51.4182 25.9423V25.1923ZM47.5389 21.3462H48.2889C48.2889 19.6423 49.6838 18.25 51.4182 18.25V17.5V16.75C48.8676 16.75 46.7889 18.8017 46.7889 21.3462H47.5389ZM51.4182 17.5V18.25C53.1526 18.25 54.5476 19.6423 54.5476 21.3462H55.2976H56.0476C56.0476 18.8017 53.9688 16.75 51.4182 16.75V17.5Z" fill="white"/>
</svg>
