<svg width="300" height="300" viewBox="0 0 300 300" fill="none" xmlns="http://www.w3.org/2000/svg">
<g clip-path="url(#clip0_802_29974)">
<path d="M300 0H0V300H300V0Z" fill="#E9F7FF"/>
<path d="M138.614 224.86C138.614 224.86 90.3828 229.144 65.529 212.381C39.8268 195.047 80.1252 166.31 66.0522 136.6C51.9792 106.89 63.3666 69.3162 119.184 76.7802C180.194 84.9378 191.946 41.9808 229.382 62.0166C258.801 77.7624 217.782 118.961 239.4 152.179C269.906 199.053 231.373 224.945 182.129 224.711C174.278 224.674 138.614 224.86 138.614 224.86Z" fill="#BBD2EB"/>
<path d="M48.813 161.292C47.3352 161.779 46.5948 163.448 47.0166 164.946C47.0166 164.946 47.5332 166.804 47.8248 167.875C47.9364 168.284 47.6964 168.704 47.2878 168.819L44.217 169.683C43.2672 169.95 42.7134 170.937 42.981 171.887L43.047 172.122C43.3308 173.129 44.3778 173.717 45.3858 173.433L45.8844 173.292C46.3758 173.154 46.8864 173.441 47.025 173.932L47.5398 175.762C47.6808 176.263 47.3892 176.783 46.8882 176.924L46.338 177.078C45.3678 177.351 44.8026 178.359 45.0756 179.33L45.165 179.646C45.4302 180.588 46.4094 181.138 47.3514 180.872L50.4084 180.012C50.8422 179.89 51.2928 180.143 51.4146 180.576L53.7492 188.871L52.7436 189.155C52.0878 189.339 51.7056 190.02 51.8898 190.677L52.0974 191.415C52.2822 192.071 52.9632 192.453 53.6196 192.269L54.6252 191.985L55.185 193.975L54.1794 194.258C53.5236 194.443 53.1414 195.125 53.3256 195.78L53.5332 196.518C53.718 197.175 54.399 197.556 55.0548 197.372L56.0604 197.088L57.5658 202.437C57.5694 202.45 57.5634 202.464 57.5514 202.469C51.8022 205.265 48.5466 211.131 50.0928 216.627C51.8682 222.935 59.298 226.363 66.6876 224.283C74.0772 222.204 78.6282 215.404 76.8528 209.096C75.3036 203.592 69.4512 200.283 63.0768 200.908C63.0636 200.909 63.0516 200.901 63.048 200.888L61.5438 195.545L62.5758 195.255C63.2316 195.07 63.6138 194.389 63.4296 193.733L63.222 192.995C63.0372 192.339 62.3562 191.957 61.6998 192.141L60.6672 192.432L60.1074 190.442L61.1394 190.152C61.7952 189.967 62.1774 189.286 61.9932 188.63L61.785 187.892C61.6002 187.235 60.9192 186.854 60.2634 187.038L59.2308 187.328L52.4466 163.224C52.0122 161.669 50.364 160.781 48.813 161.292ZM71.8116 210.516C72.918 214.446 70.0824 218.683 65.4786 219.978C60.8748 221.274 56.2458 219.138 55.1394 215.208C54.033 211.278 56.8686 207.041 61.4724 205.745C66.0768 204.45 70.7058 206.586 71.8116 210.516Z" fill="#B4D8F9"/>
<path d="M48.1086 122.992C49.0128 122.992 49.7454 123.724 49.7454 124.629C49.7454 125.533 49.0128 126.265 48.1086 126.265C47.2044 126.265 46.4718 125.533 46.4718 124.629C46.4718 123.725 47.2044 122.992 48.1086 122.992Z" fill="#DE001D"/>
<path d="M48.1086 117.407C49.0128 117.407 49.7454 118.139 49.7454 119.044C49.7454 119.948 49.0128 120.68 48.1086 120.68C47.2044 120.68 46.4718 119.948 46.4718 119.044C46.4718 118.14 47.2044 117.407 48.1086 117.407Z" fill="#DE001D"/>
<path d="M48.1086 111.889C49.0128 111.889 49.7454 112.621 49.7454 113.525C49.7454 114.43 49.0128 115.162 48.1086 115.162C47.2044 115.162 46.4718 114.429 46.4718 113.525C46.4718 112.621 47.2044 111.889 48.1086 111.889Z" fill="#DE001D"/>
<path d="M216.32 224.699C216.32 224.699 217.466 214.675 223.652 214.973C227.239 215.146 224.904 209.362 227.329 208.38C229.754 207.397 232.712 209.652 234.352 207.193C235.993 204.734 238.535 202.873 242.287 204.962C246.04 207.051 248.225 203.29 250.568 206.949C252.912 210.608 248.345 213.61 243.312 213.466C238.279 213.322 240.136 218.471 235.271 217.83C230.407 217.188 231.746 223.734 227.75 223.307C224.949 223.008 224.115 225.149 222.331 224.857C221.572 224.733 218.267 225.267 216.32 224.699Z" fill="#9FCCFB"/>
<path d="M224.831 218.031C224.831 218.024 224.833 218.017 224.835 218.009C224.847 217.967 226.113 213.83 231.242 213.111C234.743 212.62 235.647 211.979 236.899 211.092C237.452 210.7 238.079 210.256 239.024 209.767C242.069 208.19 246.25 209.495 246.427 209.551C246.493 209.572 246.529 209.642 246.508 209.708C246.487 209.774 246.416 209.81 246.35 209.789C246.308 209.776 242.09 208.46 239.138 209.989C238.209 210.47 237.59 210.908 237.044 211.296C235.811 212.17 234.838 212.86 231.277 213.359C226.313 214.055 225.087 218.04 225.076 218.08C225.056 218.146 224.987 218.184 224.921 218.165C224.861 218.147 224.824 218.09 224.831 218.031Z" fill="white"/>
<path d="M204.135 224.549C204.135 224.549 196.525 211.044 206.716 207.68C212.625 205.729 205.253 197.825 208.566 194.729C211.879 191.633 218.064 193.441 219.189 188.444C220.314 183.446 223.269 178.856 230.638 179.902C238.007 180.949 239.204 173.506 245.27 177.968C251.336 182.43 245.813 190.125 237.583 193.021C229.352 195.916 235.556 203.092 227.289 205.078C219.022 207.064 225.257 216.821 218.528 218.614C211.801 220.406 219.424 225.491 204.135 224.549Z" fill="#9FCCFB"/>
<path d="M207.989 219.196C207.983 219.185 207.979 219.173 207.976 219.16C207.959 219.086 206.301 211.707 214.93 205.104C220.82 200.597 221.85 198.686 223.276 196.041C223.906 194.873 224.619 193.548 225.867 191.814C229.891 186.224 238.734 183.587 239.108 183.477C239.248 183.437 239.382 183.499 239.406 183.618C239.431 183.736 239.338 183.864 239.198 183.906C239.109 183.932 230.189 186.593 226.288 192.012C225.06 193.718 224.355 195.026 223.733 196.181C222.329 198.785 221.221 200.841 215.23 205.426C206.878 211.817 208.462 218.931 208.478 219.002C208.507 219.119 208.417 219.249 208.278 219.293C208.154 219.332 208.034 219.289 207.989 219.196Z" fill="white"/>
<path d="M49.4178 224.819H248.397" stroke="#1C004F" stroke-width="0.5" stroke-miterlimit="10" stroke-linecap="round"/>
<path d="M179.563 216.633H66.3804C64.3656 216.633 62.7324 215 62.7324 212.985V113.36C62.7324 111.345 64.3656 109.712 66.3804 109.712H179.563C181.577 109.712 183.211 111.345 183.211 113.36V212.985C183.211 215 181.577 216.633 179.563 216.633Z" fill="#81C0EF"/>
<path d="M171.792 208.286H74.1509C73.0391 208.286 72.1379 207.385 72.1379 206.273V120.072C72.1379 118.96 73.0391 118.059 74.1509 118.059H171.792C172.904 118.059 173.805 118.96 173.805 120.072V206.273C173.805 207.385 172.904 208.286 171.792 208.286Z" fill="white"/>
<path d="M86.4941 224.668H77.3975L74.7983 216.467H88.5479L86.4941 224.668Z" fill="#81C0EF"/>
<path d="M167.322 224.667H158.225L155.626 216.467H169.376L167.322 224.667Z" fill="#81C0EF"/>
<path d="M74.151 208.286H171.792C172.516 208.286 173.146 207.899 173.501 207.325L158.268 194.08H89.6232L72.9078 207.845C73.251 208.117 73.6788 208.286 74.151 208.286Z" fill="#E4F1FF"/>
<path d="M143.105 205.184C152.972 205.184 160.97 203.431 160.97 201.268C160.97 199.106 152.972 197.353 143.105 197.353C133.239 197.353 125.241 199.106 125.241 201.268C125.241 203.431 133.239 205.184 143.105 205.184Z" fill="#9FCCFB"/>
<path d="M125.241 201.339H160.97V149.03H125.241V201.339Z" fill="#9FCCFB"/>
<path d="M125.241 149.03C125.241 151.192 133.239 152.945 143.105 152.945C152.972 152.945 160.97 151.192 160.97 149.03C160.97 146.867 152.972 145.114 143.105 145.114C133.24 145.114 125.241 146.867 125.241 149.03Z" fill="#8CC2F2"/>
<mask id="mask0_802_29974" style="mask-type:luminance" maskUnits="userSpaceOnUse" x="125" y="149" width="36" height="53">
<path d="M125.241 201.339H160.97V149.951H125.241V201.339Z" fill="white"/>
</mask>
<g mask="url(#mask0_802_29974)">
<path d="M124.515 157.238C124.515 159.401 132.876 161.154 143.19 161.154C153.504 161.154 161.866 159.401 161.866 157.238" stroke="white" stroke-width="0.5" stroke-miterlimit="10"/>
</g>
<mask id="mask1_802_29974" style="mask-type:luminance" maskUnits="userSpaceOnUse" x="125" y="149" width="36" height="53">
<path d="M125.241 201.339H160.97V149.951H125.241V201.339Z" fill="white"/>
</mask>
<g mask="url(#mask1_802_29974)">
<path d="M124.515 166.729C124.515 168.891 132.876 170.645 143.19 170.645C153.504 170.645 161.866 168.891 161.866 166.729" stroke="white" stroke-width="0.5" stroke-miterlimit="10"/>
</g>
<mask id="mask2_802_29974" style="mask-type:luminance" maskUnits="userSpaceOnUse" x="125" y="149" width="36" height="53">
<path d="M125.241 201.339H160.97V149.951H125.241V201.339Z" fill="white"/>
</mask>
<g mask="url(#mask2_802_29974)">
<path d="M124.515 175.679C124.515 177.842 132.876 179.595 143.19 179.595C153.504 179.595 161.866 177.842 161.866 175.679" stroke="white" stroke-width="0.5" stroke-miterlimit="10"/>
</g>
<mask id="mask3_802_29974" style="mask-type:luminance" maskUnits="userSpaceOnUse" x="125" y="149" width="36" height="53">
<path d="M125.241 201.339H160.97V149.951H125.241V201.339Z" fill="white"/>
</mask>
<g mask="url(#mask3_802_29974)">
<path d="M124.515 184.262C124.515 186.425 132.876 188.178 143.19 188.178C153.504 188.178 161.866 186.425 161.866 184.262" stroke="white" stroke-width="0.5" stroke-miterlimit="10"/>
</g>
<mask id="mask4_802_29974" style="mask-type:luminance" maskUnits="userSpaceOnUse" x="125" y="149" width="36" height="53">
<path d="M125.241 201.339H160.97V149.951H125.241V201.339Z" fill="white"/>
</mask>
<g mask="url(#mask4_802_29974)">
<path d="M124.515 192.899C124.515 195.062 132.876 196.815 143.19 196.815C153.504 196.815 161.866 195.062 161.866 192.899" stroke="white" stroke-width="0.5" stroke-miterlimit="10"/>
</g>
<path d="M128.891 196.558V202.027" stroke="#81C0EF" stroke-width="0.5" stroke-miterlimit="10" stroke-linecap="round"/>
<path d="M128.891 187.891V193.938" stroke="#81C0EF" stroke-width="0.5" stroke-miterlimit="10" stroke-linecap="round"/>
<path d="M128.891 179.451V185.724" stroke="#81C0EF" stroke-width="0.5" stroke-miterlimit="10" stroke-linecap="round"/>
<path d="M128.891 170.525V176.798" stroke="#81C0EF" stroke-width="0.5" stroke-miterlimit="10" stroke-linecap="round"/>
<path d="M128.891 160.791V168.164" stroke="#81C0EF" stroke-width="0.5" stroke-miterlimit="10" stroke-linecap="round"/>
<path d="M128.891 153.254V157.992" stroke="#81C0EF" stroke-width="0.5" stroke-miterlimit="10" stroke-linecap="round"/>
<path d="M132.271 197.503V202.973" stroke="#81C0EF" stroke-width="0.5" stroke-miterlimit="10" stroke-linecap="round"/>
<path d="M132.271 188.837V194.884" stroke="#81C0EF" stroke-width="0.5" stroke-miterlimit="10" stroke-linecap="round"/>
<path d="M132.271 180.396V186.67" stroke="#81C0EF" stroke-width="0.5" stroke-miterlimit="10" stroke-linecap="round"/>
<path d="M132.271 171.471V177.745" stroke="#81C0EF" stroke-width="0.5" stroke-miterlimit="10" stroke-linecap="round"/>
<path d="M132.271 161.737V169.111" stroke="#81C0EF" stroke-width="0.5" stroke-miterlimit="10" stroke-linecap="round"/>
<path d="M132.271 154.201V158.938" stroke="#81C0EF" stroke-width="0.5" stroke-miterlimit="10" stroke-linecap="round"/>
<path d="M136.055 198.067V203.536" stroke="#81C0EF" stroke-width="0.5" stroke-miterlimit="10" stroke-linecap="round"/>
<path d="M136.055 189.4V195.448" stroke="#81C0EF" stroke-width="0.5" stroke-miterlimit="10" stroke-linecap="round"/>
<path d="M136.055 180.96V187.234" stroke="#81C0EF" stroke-width="0.5" stroke-miterlimit="10" stroke-linecap="round"/>
<path d="M136.055 172.035V178.309" stroke="#81C0EF" stroke-width="0.5" stroke-miterlimit="10" stroke-linecap="round"/>
<path d="M136.055 162.301V169.674" stroke="#81C0EF" stroke-width="0.5" stroke-miterlimit="10" stroke-linecap="round"/>
<path d="M136.055 154.764V159.502" stroke="#81C0EF" stroke-width="0.5" stroke-miterlimit="10" stroke-linecap="round"/>
<path d="M157.718 196.602V202.071" stroke="#81C0EF" stroke-width="0.5" stroke-miterlimit="10" stroke-linecap="round"/>
<path d="M157.718 187.935V193.982" stroke="#81C0EF" stroke-width="0.5" stroke-miterlimit="10" stroke-linecap="round"/>
<path d="M157.718 179.495V185.768" stroke="#81C0EF" stroke-width="0.5" stroke-miterlimit="10" stroke-linecap="round"/>
<path d="M157.718 170.57V176.843" stroke="#81C0EF" stroke-width="0.5" stroke-miterlimit="10" stroke-linecap="round"/>
<path d="M157.718 160.836V168.209" stroke="#81C0EF" stroke-width="0.5" stroke-miterlimit="10" stroke-linecap="round"/>
<path d="M157.718 153.299V158.037" stroke="#81C0EF" stroke-width="0.5" stroke-miterlimit="10" stroke-linecap="round"/>
<path d="M153.95 197.439V202.908" stroke="#81C0EF" stroke-width="0.5" stroke-miterlimit="10" stroke-linecap="round"/>
<path d="M153.95 188.772V194.819" stroke="#81C0EF" stroke-width="0.5" stroke-miterlimit="10" stroke-linecap="round"/>
<path d="M153.95 180.333V186.606" stroke="#81C0EF" stroke-width="0.5" stroke-miterlimit="10" stroke-linecap="round"/>
<path d="M153.95 171.407V177.68" stroke="#81C0EF" stroke-width="0.5" stroke-miterlimit="10" stroke-linecap="round"/>
<path d="M153.95 161.673V169.046" stroke="#81C0EF" stroke-width="0.5" stroke-miterlimit="10" stroke-linecap="round"/>
<path d="M153.95 154.136V158.874" stroke="#81C0EF" stroke-width="0.5" stroke-miterlimit="10" stroke-linecap="round"/>
<path d="M149.764 197.858V203.327" stroke="#81C0EF" stroke-width="0.5" stroke-miterlimit="10" stroke-linecap="round"/>
<path d="M149.764 189.191V195.238" stroke="#81C0EF" stroke-width="0.5" stroke-miterlimit="10" stroke-linecap="round"/>
<path d="M149.764 180.75V187.024" stroke="#81C0EF" stroke-width="0.5" stroke-miterlimit="10" stroke-linecap="round"/>
<path d="M149.764 171.826V178.099" stroke="#81C0EF" stroke-width="0.5" stroke-miterlimit="10" stroke-linecap="round"/>
<path d="M149.764 162.092V169.465" stroke="#81C0EF" stroke-width="0.5" stroke-miterlimit="10" stroke-linecap="round"/>
<path d="M149.764 154.555V159.293" stroke="#81C0EF" stroke-width="0.5" stroke-miterlimit="10" stroke-linecap="round"/>
<path d="M145.474 198.067V203.536" stroke="#81C0EF" stroke-width="0.5" stroke-miterlimit="10" stroke-linecap="round"/>
<path d="M145.474 189.4V195.448" stroke="#81C0EF" stroke-width="0.5" stroke-miterlimit="10" stroke-linecap="round"/>
<path d="M145.474 180.96V187.234" stroke="#81C0EF" stroke-width="0.5" stroke-miterlimit="10" stroke-linecap="round"/>
<path d="M145.474 172.035V178.309" stroke="#81C0EF" stroke-width="0.5" stroke-miterlimit="10" stroke-linecap="round"/>
<path d="M145.474 162.301V169.674" stroke="#81C0EF" stroke-width="0.5" stroke-miterlimit="10" stroke-linecap="round"/>
<path d="M145.474 154.764V159.502" stroke="#81C0EF" stroke-width="0.5" stroke-miterlimit="10" stroke-linecap="round"/>
<path d="M140.869 197.962V203.431" stroke="#81C0EF" stroke-width="0.5" stroke-miterlimit="10" stroke-linecap="round"/>
<path d="M140.869 189.296V195.343" stroke="#81C0EF" stroke-width="0.5" stroke-miterlimit="10" stroke-linecap="round"/>
<path d="M140.869 180.855V187.129" stroke="#81C0EF" stroke-width="0.5" stroke-miterlimit="10" stroke-linecap="round"/>
<path d="M140.869 171.93V178.204" stroke="#81C0EF" stroke-width="0.5" stroke-miterlimit="10" stroke-linecap="round"/>
<path d="M140.869 162.196V169.57" stroke="#81C0EF" stroke-width="0.5" stroke-miterlimit="10" stroke-linecap="round"/>
<path d="M140.869 154.66V159.397" stroke="#81C0EF" stroke-width="0.5" stroke-miterlimit="10" stroke-linecap="round"/>
<path d="M71.8895 121.766L71.8685 205.276C71.8685 207.827 73.1279 208.299 75.3335 209.42L125.077 234.33V92.5591L74.4899 117.403C72.3593 118.45 71.8895 119.318 71.8895 121.766Z" fill="#8CC2F2"/>
<path d="M125.077 92.5591L136.985 95.4823C139.327 96.0577 140.982 98.2297 140.982 100.73V225.934C140.982 228.4 139.372 230.551 137.071 231.159L125.077 234.33V92.5591Z" fill="#B7DAF9"/>
<path d="M71.9315 148.128H69.9593C68.6129 148.128 67.5215 147.037 67.5215 145.69V130.323C67.5215 128.976 68.6129 127.885 69.9593 127.885H71.9315C73.2779 127.885 74.3693 128.976 74.3693 130.323V145.69C74.3693 147.037 73.2779 148.128 71.9315 148.128Z" fill="#E4F1FF"/>
<path d="M71.8656 198.052H69.8934C68.547 198.052 67.4556 196.961 67.4556 195.615V180.247C67.4556 178.9 68.547 177.809 69.8934 177.809H71.8656C73.212 177.809 74.3034 178.9 74.3034 180.247V195.615C74.3034 196.961 73.212 198.052 71.8656 198.052Z" fill="#E4F1FF"/>
<path d="M102.823 141.026H94.293V185.182H102.823C107.227 185.182 110.798 175.297 110.798 163.103C110.798 150.91 107.227 141.026 102.823 141.026Z" fill="#5972EB"/>
<path d="M93.9791 185.033C99.6174 185.033 104.188 175.234 104.188 163.146C104.188 151.058 99.6174 141.258 93.9791 141.258C88.3409 141.258 83.7701 151.058 83.7701 163.146C83.7701 175.234 88.3409 185.033 93.9791 185.033Z" fill="white"/>
<path d="M92.3178 149.085H85.6284V177.125H92.3178C95.7726 177.125 98.5728 170.849 98.5728 163.106C98.5728 155.362 95.7726 149.085 92.3178 149.085Z" fill="#5972EB"/>
<path d="M85.6284 177.125C89.0829 177.125 91.8834 170.848 91.8834 163.105C91.8834 155.362 89.0829 149.085 85.6284 149.085C82.1738 149.085 79.3734 155.362 79.3734 163.105C79.3734 170.848 82.1738 177.125 85.6284 177.125Z" fill="#4164E5"/>
<path d="M92.4551 115.171L77.6885 122.757" stroke="white" stroke-width="0.5" stroke-miterlimit="10" stroke-linecap="round"/>
<path d="M120.149 115.573V109.45V104.23C120.149 102.73 118.562 101.761 117.229 102.447L105.033 108.711L101.869 110.337" stroke="white" stroke-width="0.5" stroke-miterlimit="10" stroke-linecap="round"/>
<path d="M120.149 162.273V140.029" stroke="white" stroke-width="0.5" stroke-miterlimit="10" stroke-linecap="round"/>
<path d="M100.109 214.914L108.591 219.357L117.072 223.799C118.472 224.533 120.149 223.517 120.149 221.938V193.094V171.118" stroke="white" stroke-width="0.5" stroke-miterlimit="10" stroke-linecap="round"/>
<path d="M88.011 208.578L92.7876 211.08" stroke="white" stroke-width="0.5" stroke-miterlimit="10" stroke-linecap="round"/>
<path d="M85.6013 174.997C83.9783 174.997 82.5629 172.568 81.8177 168.97" stroke="white" stroke-width="0.5" stroke-miterlimit="10" stroke-linecap="round"/>
<path d="M89.6418 167.506C89.3958 169.2 89.0112 170.703 88.5258 171.909" stroke="white" stroke-width="0.5" stroke-miterlimit="10" stroke-linecap="round"/>
<path d="M81.2832 164.441C81.2664 164.017 81.2574 163.586 81.2574 163.149C81.2574 156.605 83.202 151.301 85.6008 151.301C86.2008 151.301 86.772 151.633 87.2916 152.232" stroke="white" stroke-width="0.5" stroke-miterlimit="10" stroke-linecap="round"/>
<path d="M108.532 152.452C107.777 148.536 106.608 145.323 105.187 143.262" stroke="white" stroke-width="0.5" stroke-miterlimit="10" stroke-linecap="round"/>
<path d="M109.467 162.833C109.467 161.343 109.414 159.888 109.312 158.481" stroke="white" stroke-width="0.5" stroke-miterlimit="10" stroke-linecap="round"/>
<path d="M107.677 176.771C108.134 175.22 108.517 173.492 108.809 171.632" stroke="white" stroke-width="0.5" stroke-miterlimit="10" stroke-linecap="round"/>
<path d="M103.864 183.918C104.932 182.999 105.903 181.475 106.726 179.491" stroke="white" stroke-width="0.5" stroke-miterlimit="10" stroke-linecap="round"/>
<path d="M204.522 125.295C208.409 115.552 203.662 104.502 193.919 100.614C184.176 96.7264 173.126 101.473 169.238 111.217C165.35 120.96 170.097 132.01 179.841 135.898C189.584 139.785 200.634 135.038 204.522 125.295Z" fill="#C5E3F9"/>
<path d="M200.503 122.074C198.191 129.706 190.132 134.02 182.498 131.709C174.865 129.398 170.552 121.337 172.863 113.705C175.174 106.072 183.234 101.758 190.867 104.069C198.5 106.38 202.814 114.44 200.503 122.074Z" fill="#71B7E2"/>
<path d="M200.719 122.767C198.439 130.297 190.487 134.553 182.956 132.273C175.426 129.993 171.17 122.04 173.45 114.51C175.73 106.98 183.682 102.724 191.213 105.004C198.743 107.284 202.999 115.237 200.719 122.767Z" fill="#FF725E"/>
<path d="M200.719 122.767C198.439 130.297 190.487 134.553 182.956 132.273C175.426 129.993 171.17 122.04 173.45 114.51C175.73 106.98 183.682 102.724 191.213 105.004C198.743 107.284 202.999 115.237 200.719 122.767Z" fill="#B4D8F9"/>
<path d="M187.985 117.621L189.041 114.133C189.047 114.134 189.053 114.137 189.058 114.138C189.643 114.392 190.222 114.743 190.766 115.182C191.203 115.608 191.468 115.993 191.468 115.993L191.548 115.899L192.466 114.806L192.677 114.555L192.254 113.714L191.914 113.757C191.267 113.145 190.489 112.583 189.608 112.263L190.189 110.345L189.737 109.682L189.591 110.163L188.771 109.915L188.18 111.868C185.405 111.311 183.661 112.462 183.127 114.225C182.399 116.627 184.268 117.872 186.044 118.919L184.998 122.376C183.721 121.857 182.576 120.963 181.939 120.015L180.633 121.526C181.296 122.576 182.771 123.626 184.433 124.242L183.994 125.691L183.316 125.498L183.852 126.161L185.269 126.59L185.855 124.654C188.653 125.199 190.409 124.071 190.943 122.308C191.671 119.907 189.763 118.668 187.985 117.621ZM186.679 116.829C185.765 116.232 185.137 115.627 185.388 114.797C185.618 114.037 186.325 113.572 187.61 113.753L186.679 116.829ZM186.426 122.772L187.352 119.713C188.3 120.321 188.941 120.948 188.684 121.795C188.459 122.538 187.745 122.963 186.426 122.772Z" fill="#71B7E2"/>
<path d="M185.413 124.004L184.827 125.94L183.41 125.511L183.991 123.592C182.328 122.976 180.853 121.926 180.19 120.875L181.496 119.365C182.134 120.313 183.278 121.206 184.556 121.725L185.602 118.268C183.825 117.22 181.957 115.975 182.684 113.573C183.218 111.81 184.963 110.659 187.738 111.216L188.329 109.263L189.746 109.692L189.166 111.611C190.424 112.068 191.605 112.84 192.356 113.728L191.119 115.259C190.365 114.446 189.485 113.859 188.601 113.478L187.544 116.969C189.321 118.017 191.23 119.255 190.502 121.657C189.968 123.421 188.21 124.549 185.413 124.004ZM186.236 116.177L187.168 113.1C185.883 112.919 185.176 113.384 184.946 114.145C184.694 114.974 185.322 115.579 186.236 116.177ZM188.242 121.143C188.498 120.296 187.858 119.668 186.91 119.061L185.983 122.12C187.303 122.312 188.017 121.887 188.242 121.143Z" fill="white"/>
<path d="M209.434 258.607C235.751 258.607 257.086 254.378 257.086 249.162C257.086 243.945 235.751 239.716 209.434 239.716C183.117 239.716 161.783 243.945 161.783 249.162C161.783 254.378 183.117 258.607 209.434 258.607Z" fill="#E4F1FF"/>
<path d="M229.586 224.724L231.478 226.504L236.327 228.094L236.917 220.957L233.912 217.672L229.586 224.724Z" fill="#F7C2A0"/>
<path d="M231.284 226.268C231.284 226.268 234.129 227.582 236.917 220.957C236.917 220.957 241.198 222.441 244.19 222.009C247.183 221.576 246.643 227.822 243.333 230.724C240.022 233.626 241.023 237.925 238.418 241.203C235.814 244.482 228.824 247.226 228.837 244.626C228.85 242.026 233.218 234.216 231.38 231.048C229.544 227.881 231.284 226.268 231.284 226.268Z" fill="#DE001D"/>
<path d="M194.465 235.686L194.284 238.277L196.122 243.038L202.021 238.977L202.661 234.571L194.465 235.686Z" fill="#F7C2A0"/>
<path d="M200.87 80.6714C200.87 80.6714 197.13 101.883 207.232 102.396C217.334 102.908 219.106 92.9108 219.106 92.9108C219.106 92.9108 222.4 93.8648 222.577 90.9278C222.731 88.3886 221.022 87.7568 220.328 89.2058L219.382 75.443L209.303 74.606L200.87 80.6714Z" fill="#F7C2A0"/>
<path d="M219.106 92.9106L217.952 106.889L216.439 108.608C213.53 111.916 208.119 112.339 206.842 108.124V106.526L207.058 99.9132L219.106 92.9106Z" fill="#F7C2A0"/>
<path d="M206.979 102.343C206.979 102.343 210.384 102.46 213.919 101.026C213.919 101.026 210.009 104.747 206.912 104.231L206.979 102.343Z" fill="#F18884"/>
<path d="M219.475 75.5517C219.475 75.5517 218.078 70.3425 214.433 70.9173C210.788 71.4921 209.168 72.9549 203.998 70.9089C198.828 68.8629 193.727 75.7419 198.378 80.3361C201.684 83.6019 204.156 82.2729 205.693 81.0765C206.336 80.5755 207.256 80.6235 207.815 81.2493C208.459 81.9705 209.639 82.6797 211.558 81.8919C221.474 77.8221 211.043 89.6463 220.097 91.6701C220.097 91.6701 227.31 76.8939 219.475 75.5517Z" fill="#1E004C"/>
<path d="M201.479 155.714C200.337 155.646 199.315 156.414 199.066 157.53C197.167 166.036 189.702 199.914 190.131 205.134C190.489 209.481 190.753 227.257 190.837 233.542C190.853 234.783 191.84 235.792 193.081 235.837L203.931 236.234C205.208 236.28 206.285 235.293 206.344 234.017C206.662 227.067 207.59 206.503 207.641 202.043C207.644 201.73 207.711 201.426 207.838 201.139C209.224 198 217.583 179.136 219.08 176.968C220.713 174.603 225.188 169.357 225.25 165.023C225.287 162.48 224.836 160.18 224.458 158.714C224.204 157.732 223.351 157.026 222.34 156.965L201.479 155.714Z" fill="#1F2228"/>
<path d="M221.102 171.419L216.565 197.257C216.426 198.046 216.703 198.85 217.297 199.388L235.283 215.653C236.291 216.565 236.308 218.143 235.318 219.076L228.525 225.481C227.722 226.238 226.502 226.33 225.598 225.7C220.805 222.358 206.398 212.233 203.668 209.413C200.863 206.517 201.753 198.189 202.074 195.81C202.13 195.394 202.299 195.003 202.561 194.675L221.102 171.419Z" fill="#1F2228"/>
<path d="M206.371 233.814C206.435 232.188 206.528 229.856 206.642 226.981C206.848 221.2 207.131 213.234 207.443 204.435C207.492 202.985 207.54 201.558 207.587 200.173L207.576 200.214C212.902 189.565 217.286 180.741 219.121 176.985L219.118 176.99C219.557 176.372 219.895 175.897 220.13 175.565C220.236 175.411 220.319 175.29 220.382 175.199C220.438 175.116 220.464 175.074 220.461 175.072C220.457 175.07 220.424 175.108 220.363 175.188C220.295 175.276 220.205 175.393 220.09 175.542C219.846 175.869 219.496 176.337 219.041 176.946L219.039 176.948L219.037 176.952C217.126 180.678 212.684 189.48 207.348 200.124L207.338 200.144L207.337 200.166C207.29 201.551 207.241 202.978 207.191 204.428C206.908 213.227 206.651 221.194 206.464 226.975C206.383 229.852 206.318 232.184 206.273 233.811C206.255 234.608 206.333 234.61 206.371 233.814Z" fill="#455A64"/>
<path d="M234.932 130.468C234.476 128.504 233.371 126.762 232.284 125.064C230.535 126.146 228.643 126.994 226.672 127.581L227.249 137.75C229.513 137.82 232.027 137.697 233.642 136.11C235.079 134.696 235.389 132.432 234.932 130.468Z" fill="#F7C2A0"/>
<path d="M227.73 112.56L222.785 123.775C224.603 125.559 226.041 127.728 226.978 130.096C229.935 128.646 232.645 126.692 234.955 124.345C232.529 120.973 229.719 114.138 227.73 112.56Z" fill="#4A8EC1"/>
<path d="M201.803 110.103L197.128 147.465C196.9 149.281 195.725 157.197 197.501 157.645C204.356 162.822 213.991 162.422 225.589 163.073C227.023 163.321 226.711 154.765 226.728 153.31C226.788 148.164 226.999 137.033 227.73 130.096C228.535 122.449 230.583 116.205 227.73 112.559C224.877 108.913 219.898 106.368 219.898 106.368L218.061 105.217C218.061 105.217 216.86 106.999 206.942 107.154L206.06 107.582L201.803 110.103Z" fill="#4A8EC1"/>
<path d="M210.249 113.242C210.213 113.268 209.917 112.822 209.309 112.228C208.706 111.636 207.752 110.916 206.54 110.467C205.328 110.018 204.136 109.943 203.293 110C202.444 110.054 201.93 110.199 201.919 110.157C201.915 110.142 202.038 110.088 202.27 110.019C202.502 109.949 202.846 109.872 203.278 109.821C204.136 109.716 205.373 109.764 206.63 110.229C207.886 110.694 208.855 111.463 209.438 112.102C209.733 112.422 209.944 112.704 210.074 112.908C210.204 113.112 210.263 113.233 210.249 113.242Z" fill="#263238"/>
<path d="M194.5 130.947L193.749 133.445L179.513 127.286L176.436 132.011C176.436 132.011 187.94 140.076 191.769 142.226C195.941 144.567 199.084 144.348 200.893 140.904C202.862 137.154 203.809 133.674 203.809 133.674L194.5 130.947Z" fill="#F7C2A0"/>
<path d="M181.727 128.421L179.846 127.122C178.845 124.15 176.986 118.76 176.436 118.922C175.831 119.099 175.579 119.631 175.753 120.776C176.169 123.52 175.487 124.729 173.885 124.367C173.333 124.242 168.54 123.476 168.54 123.476C168.54 123.476 167.217 124.233 168.547 125.529C168.547 125.529 167.9 127.219 169.665 127.628C169.665 127.628 169.885 129.542 171.211 129.621C171.211 129.621 172.627 130.412 175.603 131.512L177.991 132.945L181.727 128.421Z" fill="#F7C2A0"/>
<path d="M194.344 237.979C194.344 237.979 195.127 241.013 202.021 238.977C202.021 238.977 203.582 243.232 205.811 245.274C208.04 247.317 202.863 250.853 198.521 250.127C194.179 249.401 191.484 252.898 187.297 252.956C183.11 253.015 176.561 249.34 178.583 247.705C180.604 246.07 189.415 244.507 190.704 241.08C191.993 237.652 194.344 237.979 194.344 237.979Z" fill="#DE001D"/>
<path d="M243.916 223.871C243.916 223.871 244.663 226.103 242.54 228.878C240.418 231.653 239.031 234.738 238.003 238.577C236.975 242.415 230.982 243.729 230.982 243.729" stroke="#B70825" stroke-width="0.5" stroke-miterlimit="10" stroke-linecap="round"/>
<path d="M231.695 238.75C231.695 238.75 232.729 236.702 238.399 237.152" stroke="#B70825" stroke-width="0.5" stroke-miterlimit="10" stroke-linecap="round"/>
<path d="M239.638 223.719C239.638 223.719 238.891 229.646 232.46 233.136" stroke="#B70825" stroke-width="0.5" stroke-miterlimit="10" stroke-linecap="round"/>
<path d="M204.196 246.24C204.196 246.24 202.94 248.232 199.448 248.345C195.956 248.459 192.691 249.338 189.068 250.971C185.446 252.605 180.635 248.797 180.635 248.797" stroke="#B70825" stroke-width="0.5" stroke-miterlimit="10" stroke-linecap="round"/>
<path d="M184.94 246.197C184.94 246.197 187.181 245.702 190.421 250.376" stroke="#B70825" stroke-width="0.5" stroke-miterlimit="10" stroke-linecap="round"/>
<path d="M201.605 242.832C201.605 242.832 196.543 246.006 189.771 243.236" stroke="#B70825" stroke-width="0.5" stroke-miterlimit="10" stroke-linecap="round"/>
<path d="M216.809 89.9757C216.809 89.9757 220.73 87.1773 222.012 88.7637C222.924 89.8917 220.502 92.5809 220.502 92.5809L216.888 92.2251L216.809 89.9757Z" fill="#F7C2A0"/>
<path d="M193.34 130.559L207.322 134.599C207.634 134.689 207.958 134.509 208.042 134.195C208.568 132.228 210.329 125.595 211.249 121.417C212.442 115.999 211.484 113.184 207.875 110.67C206.972 110.041 206.033 109.728 205.13 109.611C202.281 109.242 199.555 110.908 198.395 113.537C197.753 114.989 196.943 117.157 195.99 120.373C194.777 124.466 193.467 128.906 193.105 130.133C193.051 130.316 193.157 130.507 193.34 130.559Z" fill="#4A8EC1"/>
<path d="M210.442 113.106C209.821 112.224 208.97 111.434 207.875 110.67C206.972 110.042 206.033 109.728 205.13 109.611" stroke="white" stroke-width="0.5" stroke-miterlimit="10" stroke-linecap="round"/>
<path d="M211.249 121.417C211.738 119.193 211.866 117.408 211.596 115.902" stroke="white" stroke-width="0.5" stroke-miterlimit="10" stroke-linecap="round"/>
<path d="M200.824 132.722L207.321 134.599C207.633 134.689 207.957 134.509 208.041 134.195C208.453 132.659 209.616 128.277 210.544 124.441" stroke="white" stroke-width="0.5" stroke-miterlimit="10" stroke-linecap="round"/>
<path d="M193.34 130.56L198.041 131.918" stroke="white" stroke-width="0.5" stroke-miterlimit="10" stroke-linecap="round"/>
<path d="M227.73 130.096C227.73 130.096 227.74 121.167 226.468 117.987" stroke="white" stroke-width="0.5" stroke-miterlimit="10" stroke-linecap="round"/>
<path d="M193.735 133.457C193.735 133.457 195.323 135.171 195.065 136.591" stroke="#F18884" stroke-width="0.5" stroke-miterlimit="10" stroke-linecap="round"/>
<path d="M168.855 125.546C169.833 125.819 171.334 126.228 172.266 126.182" stroke="#F18884" stroke-width="0.5" stroke-miterlimit="10" stroke-linecap="round"/>
<path d="M169.901 127.661C169.901 127.661 171.629 128.252 172.857 128.162" stroke="#F18884" stroke-width="0.5" stroke-miterlimit="10" stroke-linecap="round"/>
<path d="M157.04 73.1054C159.285 65.4755 154.92 57.4702 147.291 55.2249C139.661 52.9796 131.655 57.3446 129.41 64.9745C127.165 72.6043 131.53 80.6097 139.16 82.855C146.789 85.1003 154.795 80.7352 157.04 73.1054Z" fill="#B4D8F9"/>
<path d="M153.947 69.1499C153.754 75.1931 148.699 79.9355 142.655 79.7417C136.611 79.5485 131.87 74.4929 132.063 68.4491C132.257 62.4059 137.312 57.6635 143.356 57.8573C149.399 58.0511 154.141 63.1067 153.947 69.1499Z" fill="#71B7E2"/>
<path d="M154.241 69.6162C154.051 75.5784 149.063 80.2566 143.101 80.0658C137.138 79.875 132.46 74.8872 132.651 68.925C132.842 62.9628 137.83 58.2846 143.792 58.4754C149.755 58.6662 154.433 63.654 154.241 69.6162Z" fill="#FF725E"/>
<path d="M154.241 69.6162C154.051 75.5784 149.063 80.2566 143.101 80.0658C137.138 79.875 132.46 74.8872 132.651 68.925C132.842 62.9628 137.83 58.2846 143.792 58.4754C149.755 58.6662 154.433 63.654 154.241 69.6162Z" fill="#B4D8F9"/>
<path d="M142.969 71.6199L143.363 69.9231C143.378 69.8589 143.431 69.8025 143.497 69.7809L144.877 69.3333C144.943 69.3117 144.997 69.2553 145.011 69.1911L145.297 67.9587C145.323 67.8483 145.229 67.7691 145.116 67.8057L143.986 68.1723C143.873 68.2089 143.779 68.1291 143.804 68.0193L144.893 63.3327C144.913 63.2463 144.859 63.1737 144.772 63.1707L142.306 63.0855C142.219 63.0825 142.132 63.1503 142.112 63.2373L140.776 69.1137C140.761 69.1785 140.708 69.2355 140.641 69.2565L139.175 69.7323C139.109 69.7539 139.055 69.8103 139.041 69.8745L138.755 71.1069C138.729 71.2173 138.823 71.2965 138.936 71.2599L140.162 70.8621C140.275 70.8255 140.369 70.9047 140.344 71.0145L139.756 73.5987C139.736 73.6851 139.79 73.7571 139.877 73.7601L147.35 74.0175C147.437 74.0205 147.524 73.9527 147.544 73.8663L147.953 72.1059C147.973 72.0195 147.919 71.9469 147.832 71.9439L143.09 71.7807C143.003 71.7789 142.948 71.7063 142.969 71.6199Z" fill="#71B7E2"/>
<path d="M142.678 71.2298L143.072 69.533C143.087 69.4688 143.141 69.4118 143.206 69.3908L144.587 68.9432C144.653 68.9216 144.706 68.8652 144.721 68.801L145.007 67.5686C145.033 67.4582 144.938 67.379 144.826 67.4156L143.695 67.7822C143.582 67.8188 143.489 67.739 143.514 67.6292L144.602 62.9426C144.622 62.8562 144.568 62.7836 144.481 62.7806L142.016 62.6954C141.929 62.6924 141.842 62.7602 141.822 62.8472L140.485 68.7236C140.47 68.7884 140.417 68.8454 140.351 68.8664L138.884 69.3422C138.818 69.3638 138.765 69.4202 138.751 69.4844L138.464 70.7168C138.439 70.8272 138.533 70.9064 138.646 70.8698L139.872 70.472C139.984 70.4354 140.078 70.5146 140.053 70.6244L139.465 73.2092C139.445 73.2956 139.5 73.3676 139.586 73.3706L147.06 73.628C147.147 73.631 147.234 73.5632 147.254 73.4768L147.662 71.7164C147.682 71.63 147.628 71.5574 147.541 71.5544L142.799 71.3912C142.712 71.3888 142.658 71.3162 142.678 71.2298Z" fill="white"/>
<path d="M166.295 91.4616L169.274 83.6868C169.341 83.5116 169.219 83.3232 169.031 83.313L160.525 82.8564C160.295 82.8444 160.147 83.1 160.274 83.2902L161.675 85.3752C160.162 86.5446 154.913 90.2064 150.73 88.308C150.476 88.1934 150.229 88.4754 150.376 88.71C151.592 90.6468 155.494 94.848 164.543 89.6466L165.802 91.521C165.927 91.7082 166.214 91.6734 166.295 91.4616Z" fill="#4E6CFC"/>
<path d="M151.889 46.8005C152.124 46.9493 152.408 46.7033 152.294 46.4507C151.356 44.3657 148.068 39.6683 138.389 43.5773L137.4 41.5481C137.302 41.3459 137.012 41.3411 136.903 41.5397L132.885 48.8315C132.794 48.9959 132.889 49.1993 133.073 49.2347L141.437 50.8547C141.664 50.8985 141.845 50.6657 141.745 50.4599L140.645 48.2021C142.304 47.2523 148.006 44.3459 151.889 46.8005Z" fill="#4E6CFC"/>
<path d="M169.413 73.7705C174.91 68.0225 174.707 58.9061 168.959 53.4086C163.211 47.9111 154.095 48.1142 148.597 53.8623C143.1 59.6103 143.303 68.7266 149.051 74.2241C154.799 79.7216 163.915 79.5185 169.413 73.7705Z" fill="#C5E3F9"/>
<path d="M169.166 67.2195C167.125 72.9105 160.856 75.8691 155.165 73.8273C149.473 71.7855 146.515 65.5173 148.557 59.8257C150.599 54.1341 156.867 51.1761 162.559 53.2179C168.25 55.2597 171.208 61.5285 169.166 67.2195Z" fill="#71B7E2"/>
<path d="M169.303 67.7539C167.289 73.3687 161.105 76.2877 155.49 74.2729C149.875 72.2581 146.957 66.0739 148.971 60.4591C150.985 54.8443 157.169 51.9259 162.785 53.9401C168.4 55.9549 171.318 62.1391 169.303 67.7539Z" fill="#FF725E"/>
<path d="M169.303 67.7539C167.289 73.3687 161.105 76.2877 155.49 74.2729C149.875 72.2581 146.957 66.0739 148.971 60.4591C150.985 54.8443 157.169 51.9259 162.785 53.9401C168.4 55.9549 171.318 62.1391 169.303 67.7539Z" fill="#B4D8F9"/>
<path d="M161.491 64.9826C161.581 65.0594 161.669 65.1308 161.753 65.2076C162.254 65.6648 162.55 66.2228 162.573 66.9074C162.587 67.337 162.484 67.742 162.264 68.1152C161.828 68.855 161.168 69.2246 160.327 69.302C159.956 69.3362 159.589 69.3218 159.224 69.2486C159.091 69.2222 158.958 69.1982 158.827 69.1658C158.758 69.1484 158.733 69.176 158.712 69.2366C158.584 69.6008 158.453 69.9644 158.323 70.328C158.282 70.4438 158.282 70.4438 158.17 70.4036C157.92 70.3142 157.669 70.2242 157.419 70.1348C157.314 70.0976 157.313 70.0976 157.35 69.9956C157.476 69.6416 157.601 69.287 157.729 68.9336C157.751 68.8724 157.745 68.8436 157.679 68.8214C157.468 68.7512 157.258 68.6768 157.049 68.6C156.985 68.5766 156.955 68.588 156.932 68.6558C156.81 69.0062 156.683 69.3548 156.559 69.704C156.519 69.8144 156.52 69.8132 156.412 69.7748C156.157 69.683 155.903 69.59 155.647 69.5024C155.576 69.4784 155.565 69.4478 155.59 69.3794C155.716 69.0362 155.838 68.6912 155.961 68.3468C156.004 68.2274 156.004 68.2274 155.887 68.186C155.249 67.958 154.612 67.7288 153.973 67.5032C153.902 67.4786 153.888 67.4516 153.914 67.382C154.052 67.0028 154.189 66.6224 154.322 66.2408C154.348 66.1652 154.381 66.1562 154.451 66.182C154.739 66.2882 155.029 66.3896 155.318 66.4922C155.521 66.5648 155.626 66.5066 155.696 66.3014C155.806 65.9798 155.925 65.6612 156.04 65.3414C156.513 64.0172 156.986 62.6924 157.46 61.3682C157.526 61.1828 157.594 60.998 157.658 60.812C157.729 60.608 157.682 60.512 157.481 60.4394C157.192 60.3362 156.904 60.2306 156.613 60.131C156.541 60.1058 156.524 60.0764 156.551 60.0026C156.689 59.6282 156.821 59.252 156.956 58.8764C156.989 58.7828 156.991 58.7822 157.088 58.817C157.729 59.0456 158.369 59.2748 159.01 59.504C159.109 59.5394 159.11 59.5394 159.145 59.4416C159.277 59.0732 159.409 58.7054 159.539 58.3358C159.561 58.2728 159.585 58.2494 159.654 58.2746C159.93 58.3766 160.207 58.4744 160.484 58.5722C160.544 58.5932 160.517 58.631 160.505 58.6646C160.373 59.0354 160.24 59.4062 160.108 59.777C160.07 59.882 160.07 59.882 160.178 59.9204C160.38 59.9924 160.583 60.0614 160.784 60.137C160.849 60.1616 160.874 60.143 160.896 60.0818C161.026 59.7128 161.158 59.3444 161.29 58.976C161.326 58.8764 161.329 58.8752 161.427 58.91C161.69 59.0036 161.951 59.0996 162.215 59.1896C162.28 59.2118 162.289 59.2406 162.267 59.3018C162.127 59.6888 161.989 60.077 161.85 60.4646C161.81 60.5762 161.811 60.575 161.916 60.6212C162.708 60.971 163.231 61.5524 163.434 62.4014C163.516 62.7446 163.501 63.0878 163.4 63.4292C163.315 63.7166 163.196 63.9854 163.007 64.2188C162.697 64.6016 162.301 64.8452 161.814 64.9364C161.709 64.9562 161.603 64.967 161.491 64.9826ZM157.823 66.0074C157.687 66.3878 157.552 66.7682 157.414 67.1486C157.396 67.2008 157.388 67.2368 157.456 67.259C157.957 67.4204 158.455 67.5908 158.959 67.7438C159.128 67.7948 159.309 67.8236 159.485 67.8278C159.97 67.8392 160.352 67.646 160.583 67.2062C160.693 66.9968 160.765 66.7724 160.744 66.5294C160.708 66.1016 160.478 65.786 160.128 65.5688C159.878 65.414 159.604 65.2928 159.331 65.1806C159.013 65.0492 158.683 64.943 158.359 64.826C158.258 64.79 158.258 64.79 158.223 64.8884C158.09 65.261 157.957 65.6342 157.823 66.0074ZM159.163 62.2136C159.049 62.531 158.937 62.8496 158.821 63.1664C158.796 63.233 158.812 63.2618 158.877 63.284C159.138 63.374 159.395 63.4754 159.658 63.5594C159.862 63.6242 160.07 63.677 160.28 63.7208C160.486 63.764 160.695 63.7706 160.9 63.7082C161.188 63.6212 161.376 63.4244 161.498 63.1562C161.663 62.7938 161.668 62.4428 161.409 62.12C161.22 61.8842 160.967 61.7246 160.694 61.61C160.343 61.463 159.982 61.3418 159.626 61.2044C159.551 61.175 159.524 61.1978 159.5 61.2674C159.389 61.5836 159.275 61.8986 159.163 62.2136Z" fill="#71B7E2"/>
<path d="M161.685 64.4469C161.774 64.5237 161.863 64.5951 161.947 64.6719C162.447 65.1291 162.744 65.6871 162.767 66.3717C162.781 66.8013 162.677 67.2063 162.457 67.5795C162.022 68.3193 161.362 68.6889 160.52 68.7663C160.15 68.8005 159.782 68.7855 159.417 68.7129C159.284 68.6865 159.151 68.6625 159.02 68.6301C158.951 68.6127 158.926 68.6403 158.905 68.7009C158.777 69.0651 158.646 69.4287 158.516 69.7923C158.475 69.9081 158.475 69.9081 158.363 69.8679C158.113 69.7785 157.862 69.6885 157.612 69.5997C157.507 69.5625 157.507 69.5625 157.543 69.4605C157.669 69.1065 157.794 68.7519 157.922 68.3985C157.945 68.3373 157.939 68.3085 157.872 68.2863C157.661 68.2161 157.451 68.1417 157.243 68.0649C157.178 68.0415 157.148 68.0529 157.125 68.1207C157.003 68.4711 156.877 68.8197 156.752 69.1689C156.712 69.2787 156.713 69.2781 156.605 69.2397C156.35 69.1479 156.096 69.0549 155.84 68.9673C155.769 68.9433 155.758 68.9127 155.783 68.8443C155.909 68.5011 156.031 68.1561 156.154 67.8117C156.197 67.6923 156.197 67.6923 156.08 67.6509C155.443 67.4229 154.805 67.1937 154.166 66.9681C154.096 66.9435 154.081 66.9165 154.107 66.8469C154.246 66.4677 154.382 66.0873 154.515 65.7057C154.541 65.6301 154.574 65.6211 154.645 65.6469C154.933 65.7531 155.222 65.8545 155.511 65.9571C155.715 66.0297 155.819 65.9715 155.889 65.7663C155.999 65.4447 156.118 65.1261 156.233 64.8063C156.706 63.4821 157.18 62.1573 157.653 60.8331C157.719 60.6477 157.787 60.4629 157.852 60.2769C157.922 60.0729 157.876 59.9769 157.674 59.9043C157.385 59.8011 157.097 59.6955 156.807 59.5959C156.735 59.5707 156.718 59.5407 156.745 59.4675C156.883 59.0931 157.015 58.7169 157.15 58.3413C157.183 58.2477 157.184 58.2471 157.282 58.2819C157.923 58.5105 158.563 58.7397 159.204 58.9689C159.303 59.0043 159.304 59.0043 159.338 58.9065C159.47 58.5381 159.603 58.1703 159.733 57.8007C159.755 57.7377 159.779 57.7143 159.848 57.7395C160.124 57.8415 160.401 57.9393 160.678 58.0371C160.738 58.0581 160.712 58.0953 160.7 58.1295C160.568 58.5003 160.435 58.8711 160.303 59.2419C160.265 59.3469 160.265 59.3475 160.372 59.3853C160.574 59.4573 160.778 59.5263 160.979 59.6019C161.044 59.6265 161.069 59.6079 161.09 59.5467C161.22 59.1777 161.353 58.8093 161.485 58.4409C161.521 58.3413 161.523 58.3395 161.621 58.3749C161.884 58.4685 162.146 58.5645 162.409 58.6551C162.475 58.6773 162.484 58.7061 162.461 58.7673C162.321 59.1543 162.183 59.5425 162.044 59.9301C162.004 60.0423 162.005 60.0405 162.11 60.0861C162.902 60.4359 163.425 61.0173 163.628 61.8663C163.711 62.2095 163.696 62.5527 163.595 62.8941C163.51 63.1815 163.39 63.4509 163.201 63.6837C162.892 64.0665 162.495 64.3101 162.008 64.4013C161.903 64.4205 161.797 64.4313 161.685 64.4469ZM158.017 65.4717C157.88 65.8521 157.745 66.2325 157.608 66.6129C157.589 66.6651 157.582 66.7011 157.65 66.7233C158.151 66.8847 158.649 67.0551 159.153 67.2081C159.322 67.2597 159.503 67.2879 159.68 67.2921C160.165 67.3035 160.547 67.1103 160.778 66.6705C160.888 66.4611 160.96 66.2367 160.939 65.9937C160.901 65.5659 160.673 65.2503 160.322 65.0331C160.072 64.8783 159.799 64.7577 159.526 64.6449C159.207 64.5135 158.878 64.4073 158.553 64.2903C158.453 64.2543 158.452 64.2543 158.417 64.3527C158.284 64.7253 158.15 65.0985 158.017 65.4717ZM159.356 61.6779C159.243 61.9953 159.131 62.3139 159.014 62.6307C158.99 62.6973 159.005 62.7261 159.071 62.7483C159.332 62.8383 159.589 62.9397 159.851 63.0237C160.055 63.0885 160.264 63.1407 160.473 63.1851C160.679 63.2283 160.888 63.2349 161.093 63.1725C161.38 63.0849 161.569 62.8887 161.691 62.6205C161.856 62.2581 161.861 61.9071 161.602 61.5849C161.413 61.3491 161.16 61.1895 160.886 61.0743C160.535 60.9273 160.174 60.8061 159.819 60.6693C159.743 60.6399 159.717 60.6627 159.693 60.7323C159.583 61.0479 159.469 61.3629 159.356 61.6779Z" fill="white"/>
<path d="M98.973 82.5225C98.8218 82.5225 98.6736 82.5321 98.5254 82.5423C98.031 79.0233 95.016 76.3125 91.3608 76.3125C90.369 76.3125 89.424 76.5129 88.563 76.8741C87.4272 73.5255 84.2646 71.1123 80.5314 71.1123C75.8442 71.1123 72.045 74.9115 72.045 79.5987C68.526 79.5987 65.673 82.4517 65.673 85.9707C65.673 89.4897 68.526 92.3427 72.045 92.3427L98.973 92.3697C102.086 92.3697 104.609 90.1653 104.609 87.4467C104.609 84.7269 102.086 82.5225 98.973 82.5225Z" fill="#81C0EF"/>
<path d="M85.0968 92.4326C84.984 95.3312 82.6008 97.6634 79.6716 97.6832C79.6062 97.6838 79.5414 97.6826 79.4766 97.6808C78.8232 97.6622 78.1974 97.5284 77.6196 97.298C77.0418 97.0676 76.512 96.7418 76.05 96.3392C75.9324 96.2372 75.8196 96.1304 75.711 96.0182C75.2178 95.5082 74.8218 94.904 74.556 94.2332C74.4918 94.0724 74.4348 93.9074 74.3862 93.74C74.271 93.3452 74.2002 92.9312 74.1774 92.5052C74.2902 89.6066 76.6734 87.2732 79.6032 87.254C79.9734 87.2516 80.3364 87.2864 80.6874 87.3554C80.8662 87.3902 81.0426 87.434 81.2154 87.4862C81.921 87.6986 82.5666 88.0508 83.121 88.5098C83.2404 88.6088 83.3562 88.7132 83.4678 88.823C83.8998 89.2472 84.2622 89.7428 84.5352 90.2906C84.801 90.8252 84.9816 91.4078 85.0608 92.0228C85.0776 92.1578 85.0896 92.2946 85.0968 92.4326Z" fill="white"/>
<path d="M84.5418 92.4363C84.4404 95.0403 82.2996 97.1355 79.668 97.1529C79.6092 97.1535 79.551 97.1523 79.4928 97.1505C78.9054 97.1337 78.3438 97.0137 77.8242 96.8067C77.3046 96.5997 76.8288 96.3069 76.4142 95.9451C76.3086 95.8533 76.2072 95.7573 76.1094 95.6565C75.6666 95.1981 75.3108 94.6551 75.072 94.0527C75.0144 93.9087 74.9634 93.7605 74.9196 93.6099C74.8158 93.2547 74.7522 92.8833 74.7324 92.5005C74.8338 89.8965 76.9746 87.8007 79.6062 87.7833C79.9392 87.7809 80.2644 87.8127 80.58 87.8739C80.7402 87.9051 80.8992 87.9447 81.054 87.9915C81.6876 88.1823 82.2678 88.4985 82.7658 88.9113C82.8732 89.0001 82.977 89.0943 83.0772 89.1927C83.4654 89.5737 83.7912 90.0189 84.036 90.5115C84.2748 90.9915 84.4374 91.5153 84.5082 92.0679C84.5244 92.1891 84.5352 92.3127 84.5418 92.4363Z" fill="#9FCCFB"/>
<path d="M80.136 94.6122L80.1402 95.2758L79.2972 95.2812L79.293 94.647C78.6948 94.6152 78.1134 94.4574 77.7534 94.2384L78.201 93.207C78.597 93.4374 79.1244 93.5838 79.5852 93.5808C79.986 93.5784 80.1288 93.4932 80.1276 93.3498C80.124 92.8236 77.8128 93.2634 77.8026 91.7028C77.7984 91.0272 78.285 90.4554 79.2648 90.3114L79.2606 89.6592L80.1036 89.6538L80.1078 90.2934C80.5506 90.3324 80.982 90.4428 81.324 90.6324L80.9064 91.6578C80.4924 91.4514 80.103 91.3524 79.7382 91.3548C79.3254 91.3578 79.1946 91.4778 79.1958 91.6212C79.1994 92.1234 81.5106 91.6896 81.5208 93.2328C81.5244 93.8796 81.0618 94.4448 80.136 94.6122Z" fill="white"/>
</g>
<defs>
<clipPath id="clip0_802_29974">
<rect width="300" height="300" fill="white"/>
</clipPath>
</defs>
</svg>
