<svg width="28" height="28" viewBox="0 0 28 28" fill="white" xmlns="http://www.w3.org/2000/svg">
<path d="M14 0.5625C14.2486 0.5625 14.4871 0.661272 14.6629 0.837087C14.8387 1.0129 14.9375 1.25136 14.9375 1.5V2.75C14.9375 2.99864 14.8387 3.2371 14.6629 3.41291C14.4871 3.58873 14.2486 3.6875 14 3.6875C13.7514 3.6875 13.5129 3.58873 13.3371 3.41291C13.1613 3.2371 13.0625 2.99864 13.0625 2.75V1.5C13.0625 1.25136 13.1613 1.0129 13.3371 0.837087C13.5129 0.661272 13.7514 0.5625 14 0.5625ZM14 6.8125C12.0938 6.8125 10.2656 7.56975 8.91767 8.91767C7.56975 10.2656 6.8125 12.0938 6.8125 14C6.8125 15.9062 7.56975 17.7344 8.91767 19.0823C10.2656 20.4302 12.0938 21.1875 14 21.1875C15.9062 21.1875 17.7344 20.4302 19.0823 19.0823C20.4302 17.7344 21.1875 15.9062 21.1875 14C21.1875 12.0938 20.4302 10.2656 19.0823 8.91767C17.7344 7.56975 15.9062 6.8125 14 6.8125ZM5.825 4.49875C5.64827 4.32789 5.4115 4.23328 5.16568 4.2353C4.91987 4.23732 4.68469 4.33581 4.51079 4.50955C4.33688 4.68329 4.23818 4.91838 4.23592 5.16419C4.23367 5.41 4.32806 5.64686 4.49875 5.82375L5.3825 6.7075C5.46833 6.79961 5.57183 6.87349 5.68683 6.92473C5.80183 6.97597 5.92597 7.00352 6.05185 7.00574C6.17773 7.00796 6.30276 6.9848 6.4195 6.93765C6.53623 6.8905 6.64227 6.82032 6.7313 6.7313C6.82032 6.64227 6.8905 6.53623 6.93765 6.4195C6.9848 6.30276 7.00796 6.17773 7.00574 6.05185C7.00352 5.92597 6.97597 5.80183 6.92473 5.68683C6.87349 5.57183 6.79961 5.46833 6.7075 5.3825L5.825 4.49875ZM27.4375 14C27.4375 14.2486 27.3387 14.4871 27.1629 14.6629C26.9871 14.8387 26.7486 14.9375 26.5 14.9375H25.25C25.0014 14.9375 24.7629 14.8387 24.5871 14.6629C24.4113 14.4871 24.3125 14.2486 24.3125 14C24.3125 13.7514 24.4113 13.5129 24.5871 13.3371C24.7629 13.1613 25.0014 13.0625 25.25 13.0625H26.5C26.7486 13.0625 26.9871 13.1613 27.1629 13.3371C27.3387 13.5129 27.4375 13.7514 27.4375 14ZM23.5012 5.825C23.5908 5.73856 23.6623 5.63515 23.7115 5.52079C23.7607 5.40644 23.7866 5.28343 23.7877 5.15895C23.7889 5.03447 23.7652 4.91101 23.7181 4.79577C23.671 4.68054 23.6015 4.57583 23.5135 4.48776C23.4255 4.3997 23.3209 4.33004 23.2057 4.28285C23.0905 4.23565 22.9671 4.21187 22.8426 4.2129C22.7181 4.21392 22.5951 4.23972 22.4807 4.2888C22.3663 4.33788 22.2628 4.40925 22.1763 4.49875L21.2925 5.3825C21.2004 5.46833 21.1265 5.57183 21.0753 5.68683C21.024 5.80183 20.9965 5.92597 20.9943 6.05185C20.992 6.17773 21.0152 6.30276 21.0623 6.4195C21.1095 6.53623 21.1797 6.64227 21.2687 6.7313C21.3577 6.82032 21.4638 6.8905 21.5805 6.93765C21.6972 6.9848 21.8223 7.00796 21.9482 7.00574C22.074 7.00352 22.1982 6.97597 22.3132 6.92473C22.4282 6.87349 22.5317 6.79961 22.6175 6.7075L23.5012 5.825ZM14 24.3125C14.2486 24.3125 14.4871 24.4113 14.6629 24.5871C14.8387 24.7629 14.9375 25.0014 14.9375 25.25V26.5C14.9375 26.7486 14.8387 26.9871 14.6629 27.1629C14.4871 27.3387 14.2486 27.4375 14 27.4375C13.7514 27.4375 13.5129 27.3387 13.3371 27.1629C13.1613 26.9871 13.0625 26.7486 13.0625 26.5V25.25C13.0625 25.0014 13.1613 24.7629 13.3371 24.5871C13.5129 24.4113 13.7514 24.3125 14 24.3125ZM22.6175 21.2925C22.5317 21.2004 22.4282 21.1265 22.3132 21.0753C22.1982 21.024 22.074 20.9965 21.9482 20.9943C21.8223 20.992 21.6972 21.0152 21.5805 21.0623C21.4638 21.1095 21.3577 21.1797 21.2687 21.2687C21.1797 21.3577 21.1095 21.4638 21.0623 21.5805C21.0152 21.6972 20.992 21.8223 20.9943 21.9482C20.9965 22.074 21.024 22.1982 21.0753 22.3132C21.1265 22.4282 21.2004 22.5317 21.2925 22.6175L22.1763 23.5012C22.2621 23.5934 22.3656 23.6672 22.4806 23.7185C22.5956 23.7697 22.7197 23.7973 22.8456 23.7995C22.9715 23.8017 23.0965 23.7786 23.2132 23.7314C23.33 23.6843 23.436 23.6141 23.525 23.525C23.6141 23.436 23.6843 23.33 23.7314 23.2132C23.7786 23.0965 23.8017 22.9715 23.7995 22.8456C23.7973 22.7197 23.7697 22.5956 23.7185 22.4806C23.6672 22.3656 23.5934 22.2621 23.5012 22.1763L22.6175 21.2925ZM3.6875 14C3.6875 14.2486 3.58873 14.4871 3.41291 14.6629C3.2371 14.8387 2.99864 14.9375 2.75 14.9375H1.5C1.25136 14.9375 1.0129 14.8387 0.837087 14.6629C0.661272 14.4871 0.5625 14.2486 0.5625 14C0.5625 13.7514 0.661272 13.5129 0.837087 13.3371C1.0129 13.1613 1.25136 13.0625 1.5 13.0625H2.75C2.99864 13.0625 3.2371 13.1613 3.41291 13.3371C3.58873 13.5129 3.6875 13.7514 3.6875 14ZM6.7075 22.6175C6.8731 22.4398 6.96325 22.2047 6.95897 21.9618C6.95468 21.719 6.85629 21.4872 6.68453 21.3155C6.51276 21.1437 6.28103 21.0453 6.03815 21.041C5.79528 21.0367 5.56022 21.1269 5.3825 21.2925L4.49875 22.1763C4.33315 22.354 4.243 22.589 4.24728 22.8319C4.25157 23.0748 4.34996 23.3065 4.52172 23.4783C4.69349 23.65 4.92522 23.7484 5.1681 23.7527C5.41097 23.757 5.64603 23.6668 5.82375 23.5012L6.7075 22.6175Z" fill="#FFFF00"/>
</svg>
