<svg width="12" height="12" viewBox="0 0 12 12" fill="none" xmlns="http://www.w3.org/2000/svg">
<path d="M4.66712 9.5741C4.39624 9.79947 4.35665 10.2059 4.61863 10.4415C4.96718 10.7551 5.36441 11.0121 5.79605 11.2018C6.42304 11.4774 7.10549 11.6036 7.78957 11.5703C8.47366 11.5371 9.14066 11.3453 9.73797 11.0102C10.3353 10.6751 10.8466 10.2058 11.2315 9.63932C11.6164 9.07283 11.8644 8.42465 11.956 7.7459C12.0476 7.06716 11.9802 6.37643 11.7592 5.72818C11.5381 5.07993 11.1695 4.49191 10.6824 4.01049C10.347 3.67907 9.96176 3.40441 9.54193 3.19582C9.22635 3.03903 8.86307 3.22552 8.75331 3.56037C8.64354 3.89521 8.83075 4.25035 9.1366 4.42534C9.37255 4.56033 9.59078 4.72579 9.7854 4.91812C10.1319 5.26058 10.3941 5.67886 10.5514 6.13999C10.7086 6.60112 10.7565 7.09247 10.6914 7.57529C10.6263 8.05811 10.4498 8.51919 10.176 8.92216C9.9022 9.32513 9.53851 9.65897 9.11362 9.89735C8.68872 10.1357 8.21425 10.2721 7.72763 10.2958C7.24102 10.3194 6.75556 10.2297 6.30955 10.0336C6.05906 9.9235 5.82486 9.78155 5.61246 9.6119C5.33713 9.39199 4.93801 9.34873 4.66712 9.5741Z" fill="#FE6464"/>
<path d="M5.95732 3.60884C5.84283 3.27558 5.47694 3.09424 5.16361 3.25546C4.45383 3.62068 3.85239 4.17337 3.42793 4.85873C3.00348 5.54409 2.77666 6.3288 2.76594 7.12696C2.76121 7.4793 3.08658 7.72607 3.43594 7.68007C3.7853 7.63408 4.0244 7.31157 4.04975 6.96011C4.08609 6.4563 4.24354 5.96535 4.51279 5.5306C4.78204 5.09585 5.1514 4.73615 5.58625 4.47914C5.8896 4.29985 6.0718 3.9421 5.95732 3.60884Z" fill="#FE6464"/>
<path d="M8.8414 4.4207C8.8414 6.86218 6.86218 8.8414 4.4207 8.8414C1.97921 8.8414 0 6.86218 0 4.4207C0 1.97921 1.97921 0 4.4207 0C6.86218 0 8.8414 1.97921 8.8414 4.4207ZM1.27606 4.4207C1.27606 6.15743 2.68396 7.56534 4.4207 7.56534C6.15743 7.56534 7.56534 6.15743 7.56534 4.4207C7.56534 2.68396 6.15743 1.27606 4.4207 1.27606C2.68396 1.27606 1.27606 2.68396 1.27606 4.4207Z" fill="#FE6464"/>
</svg>
