<svg width="24" height="24" viewBox="0 0 24 24" fill="none" xmlns="http://www.w3.org/2000/svg">
<path d="M24.0001 12C23.9996 11.8522 23.9583 11.7075 23.8806 11.5818C23.8029 11.4561 23.6919 11.3544 23.56 11.2879L19.3911 9.19944L23.56 7.11101C23.6911 7.04387 23.8011 6.94185 23.8779 6.8162C23.9547 6.69055 23.9953 6.54614 23.9953 6.39887C23.9953 6.2516 23.9547 6.10719 23.8779 5.98154C23.8011 5.85589 23.6911 5.75387 23.56 5.68673L12.3577 0.0855945C12.246 0.0293157 12.1227 0 11.9977 0C11.8726 0 11.7493 0.0293157 11.6376 0.0855945L0.435319 5.68673C0.304252 5.75387 0.194257 5.85589 0.11745 5.98154C0.0406418 6.10719 0 6.2516 0 6.39887C0 6.54614 0.0406418 6.69055 0.11745 6.8162C0.194257 6.94185 0.304252 7.04387 0.435319 7.11101L4.60416 9.19944L0.435319 11.2879C0.304252 11.355 0.194257 11.457 0.11745 11.5827C0.0406418 11.7083 0 11.8527 0 12C0 12.1473 0.0406418 12.2917 0.11745 12.4173C0.194257 12.543 0.304252 12.645 0.435319 12.7121L4.60416 14.8006L0.435319 16.889C0.304252 16.9561 0.194257 17.0582 0.11745 17.1838C0.0406418 17.3095 0 17.4539 0 17.6011C0 17.7484 0.0406418 17.8928 0.11745 18.0185C0.194257 18.1441 0.304252 18.2461 0.435319 18.3133L11.6376 23.9144C11.7493 23.9707 11.8726 24 11.9977 24C12.1227 24 12.246 23.9707 12.3577 23.9144L23.56 18.3133C23.6911 18.2461 23.8011 18.1441 23.8779 18.0185C23.9547 17.8928 23.9953 17.7484 23.9953 17.6011C23.9953 17.4539 23.9547 17.3095 23.8779 17.1838C23.8011 17.0582 23.6911 16.9561 23.56 16.889L19.3911 14.8006L23.56 12.7121C23.6919 12.6457 23.8029 12.5439 23.8806 12.4182C23.9583 12.2925 23.9996 12.1478 24.0001 12ZM11.9977 1.69392L21.4076 6.39887L11.9977 11.1038L2.58775 6.39887L11.9977 1.69392ZM21.4076 17.6011L11.9977 22.3061L2.58775 17.6011L6.39652 15.6967L11.6376 18.3133C11.7493 18.3696 11.8726 18.3989 11.9977 18.3989C12.1227 18.3989 12.246 18.3696 12.3577 18.3133L17.5988 15.6967L21.4076 17.6011ZM11.9977 16.705L2.58775 12L6.39652 10.0956L11.6376 12.7121C11.7493 12.7684 11.8726 12.7977 11.9977 12.7977C12.1227 12.7977 12.246 12.7684 12.3577 12.7121L17.5988 10.0956L21.4076 12L11.9977 16.705Z" fill="white"/>
</svg>
