<svg width="57" height="57" viewBox="0 0 57 57" fill="none" xmlns="http://www.w3.org/2000/svg">
<path d="M38.309 17.4251C39.0904 17.4385 39.7131 18.0828 39.6997 18.8642L39.602 24.5718C39.5886 25.3533 38.9443 25.9759 38.1628 25.9625L32.4552 25.8648C31.6738 25.8514 31.0512 25.2071 31.0646 24.4257L31.1623 18.7181C31.1757 17.9366 31.82 17.314 32.6014 17.3274L38.309 17.4251Z" stroke="#C4C7D1" stroke-width="2"/>
<path d="M38.0779 30.9266C38.8593 30.94 39.4819 31.5843 39.4685 32.3657L39.3708 38.0734C39.3574 38.8548 38.7131 39.4774 37.9317 39.464L32.2241 39.3663C31.4426 39.3529 30.82 38.7086 30.8334 37.9272L30.9311 32.2196C30.9445 31.4382 31.5888 30.8155 32.3702 30.8289L38.0779 30.9266Z" stroke="#C4C7D1" stroke-width="2"/>
<path d="M24.8075 17.194C25.5889 17.2073 26.2115 17.8516 26.1982 18.6331L26.1004 24.3407C26.0871 25.1221 25.4427 25.7447 24.6613 25.7314L18.9537 25.6336C18.1723 25.6203 17.5497 24.9759 17.563 24.1945L17.6608 18.4869C17.6741 17.7055 18.3184 17.0829 19.0999 17.0962L24.8075 17.194Z" stroke="#C4C7D1" stroke-width="2"/>
<path d="M24.5763 30.6955C25.3578 30.7089 25.9804 31.3532 25.967 32.1346L25.8693 37.8422C25.8559 38.6236 25.2116 39.2463 24.4302 39.2329L18.7225 39.1352C17.9411 39.1218 17.3185 38.4775 17.3319 37.696L17.4296 31.9884C17.443 31.207 18.0873 30.5844 18.8687 30.5978L24.5763 30.6955Z" stroke="#C4C7D1" stroke-width="2"/>
</svg>
