<svg width="25" height="25" viewBox="0 0 25 25" fill="none" xmlns="http://www.w3.org/2000/svg">
<path d="M22.309 1.4249C23.0904 1.43828 23.7131 2.08259 23.6997 2.86401L23.602 8.57163C23.5886 9.35305 22.9443 9.97567 22.1628 9.96229L16.4552 9.86458C15.6738 9.8512 15.0512 9.20689 15.0646 8.42547L15.1623 2.71784C15.1757 1.93642 15.82 1.3138 16.6014 1.32718L22.309 1.4249Z" stroke="#C4C7D1" stroke-width="2"/>
<path d="M22.0779 14.9264C22.8593 14.9398 23.4819 15.5841 23.4685 16.3655L23.3708 22.0732C23.3574 22.8546 22.7131 23.4772 21.9317 23.4638L16.2241 23.3661C15.4426 23.3527 14.82 22.7084 14.8334 21.927L14.9311 16.2194C14.9445 15.4379 15.5888 14.8153 16.3702 14.8287L22.0779 14.9264Z" stroke="#C4C7D1" stroke-width="2"/>
<path d="M8.80749 1.19374C9.58891 1.20712 10.2115 1.85143 10.1982 2.63285L10.1004 8.34048C10.0871 9.1219 9.44275 9.74452 8.66132 9.73114L2.9537 9.63342C2.17228 9.62005 1.54966 8.97573 1.56304 8.19431L1.66076 2.48669C1.67413 1.70527 2.31845 1.08265 3.09987 1.09603L8.80749 1.19374Z" stroke="#C4C7D1" stroke-width="2"/>
<path d="M8.57634 14.6953C9.35776 14.7086 9.98038 15.353 9.967 16.1344L9.86928 21.842C9.8559 22.6234 9.21159 23.246 8.43017 23.2327L2.72255 23.1349C1.94113 23.1216 1.31851 22.4773 1.33189 21.6958L1.4296 15.9882C1.44298 15.2068 2.08729 14.5842 2.86871 14.5975L8.57634 14.6953Z" stroke="#C4C7D1" stroke-width="2"/>
</svg>
