<svg width="34" height="34" viewBox="0 0 34 34" fill="none" xmlns="http://www.w3.org/2000/svg">
<path fill-rule="evenodd" clip-rule="evenodd" d="M19.7938 4.19378C19.0813 1.26874 14.9187 1.26874 14.2062 4.19378C14.0998 4.63332 13.8911 5.04153 13.5972 5.3852C13.3032 5.72886 12.9323 5.99828 12.5146 6.17151C12.0968 6.34474 11.6441 6.4169 11.1932 6.38211C10.7423 6.34732 10.306 6.20657 9.91978 5.97131C7.3472 4.40379 4.40336 7.34758 5.97091 9.92012C6.98344 11.5814 6.08528 13.7489 4.19522 14.2083C1.26826 14.919 1.26826 19.0834 4.19522 19.7922C4.63489 19.8987 5.04317 20.1075 5.38685 20.4017C5.73052 20.6958 5.99985 21.067 6.17292 21.485C6.34599 21.9029 6.4179 22.3558 6.3828 22.8069C6.34769 23.2579 6.20656 23.6942 5.97091 24.0803C4.40336 26.6529 7.3472 29.5967 9.91978 28.0292C10.3059 27.7935 10.7423 27.6524 11.1933 27.6173C11.6443 27.5822 12.0972 27.6541 12.5152 27.8271C12.9332 28.0002 13.3043 28.2695 13.5985 28.6132C13.8927 28.9569 14.1015 29.3652 14.208 29.8048C14.9187 32.7317 19.0832 32.7317 19.792 29.8048C19.8988 29.3654 20.1079 28.9574 20.4021 28.614C20.6964 28.2705 21.0675 28.0014 21.4853 27.8283C21.9031 27.6553 22.3559 27.5833 22.8068 27.6182C23.2577 27.6531 23.694 27.7939 24.0802 28.0292C26.6528 29.5967 29.5966 26.6529 28.0291 24.0803C27.7939 23.6941 27.6531 23.2578 27.6182 22.8069C27.5833 22.356 27.6553 21.9033 27.8283 21.4855C28.0013 21.0676 28.2705 20.6965 28.6139 20.4023C28.9573 20.1081 29.3653 19.899 29.8048 19.7922C32.7317 19.0815 32.7317 14.9171 29.8048 14.2083C29.3651 14.1018 28.9568 13.893 28.6132 13.5988C28.2695 13.3046 28.0001 12.9335 27.8271 12.5155C27.654 12.0975 27.5821 11.6446 27.6172 11.1936C27.6523 10.7426 27.7934 10.3063 28.0291 9.92012C29.5966 7.34758 26.6528 4.40379 24.0802 5.97131C23.6941 6.20697 23.2577 6.34809 22.8067 6.3832C22.3557 6.4183 21.9028 6.34639 21.4848 6.17333C21.0668 6.00026 20.6957 5.73093 20.4015 5.38726C20.1073 5.04359 19.8985 4.63531 19.792 4.19566L19.7938 4.19378Z" stroke="#C4C7D1" stroke-width="2.5"/>
<path d="M20.3333 17C20.3333 18.8409 18.8409 20.3333 17 20.3333C15.1591 20.3333 13.6667 18.8409 13.6667 17C13.6667 15.1591 15.1591 13.6667 17 13.6667C18.8409 13.6667 20.3333 15.1591 20.3333 17Z" stroke="#C4C7D1" stroke-width="2.5"/>
</svg>
