<?xml version="1.0" encoding="UTF-8"?>
<svg version="1.1" xmlns="http://www.w3.org/2000/svg" width="64" height="64">
<path d="M0 0 C1.40737679 -0.02893593 1.40737679 -0.02893593 2.84318542 -0.05845642 C7.14606924 -0.11621825 11.44878477 -0.1654966 15.75195312 -0.19628906 C18.01870982 -0.21785252 20.28538362 -0.25193537 22.55175781 -0.29882812 C25.82305017 -0.36590096 29.09261848 -0.39330313 32.36450195 -0.41235352 C33.37204025 -0.44018417 34.37957855 -0.46801483 35.41764832 -0.49668884 C41.5209987 -0.47893877 44.8370427 0.3999476 49.23957825 4.72276306 C51.48023729 7.41179138 51.62088945 9.31147433 51.68652344 12.73095703 C51.70581406 13.66920822 51.72510468 14.60745941 51.74497986 15.57414246 C51.80274169 19.87702627 51.85202004 24.1797418 51.8828125 28.48291016 C51.90437595 30.74966685 51.93845881 33.01634065 51.98535156 35.28271484 C52.05242439 38.55400721 52.07982657 41.82357551 52.09887695 45.09545898 C52.12670761 46.10299728 52.15453827 47.11053558 52.18321228 48.14860535 C52.16546221 54.25195573 51.28657583 57.56799973 46.96376038 61.97053528 C44.27473206 64.21119432 42.3750491 64.35184648 38.95556641 64.41748047 C38.01731522 64.43677109 37.07906403 64.45606171 36.11238098 64.47593689 C31.80949716 64.53369872 27.50678164 64.58297707 23.20361328 64.61376953 C20.93685659 64.63533298 18.67018278 64.66941584 16.40380859 64.71630859 C13.13251623 64.78338143 9.86294793 64.8107836 6.59106445 64.82983398 C5.58352615 64.85766464 4.57598785 64.8854953 3.53791809 64.91416931 C-2.56543229 64.89641924 -5.8814763 64.01753287 -10.28401184 59.69471741 C-12.52467088 57.00568909 -12.66532305 55.10600613 -12.73095703 51.68652344 C-12.75024765 50.74827225 -12.76953827 49.81002106 -12.78941345 48.84333801 C-12.84717528 44.5404542 -12.89645363 40.23773867 -12.92724609 35.93457031 C-12.94880955 33.66781362 -12.9828924 31.40113981 -13.02978516 29.13476562 C-13.09685799 25.86347326 -13.12426017 22.59390496 -13.14331055 19.32202148 C-13.1711412 18.31448318 -13.19897186 17.30694489 -13.22764587 16.26887512 C-13.2098958 10.16552474 -12.33100943 6.84948073 -8.00819397 2.44694519 C-5.31916566 0.20628615 -3.4194827 0.06563398 0 0 Z " fill="#FEFEFE" transform="translate(12.522216796875,-0.208740234375)"/>
<path d="M0 0 C1.40737679 -0.02893593 1.40737679 -0.02893593 2.84318542 -0.05845642 C7.14606924 -0.11621825 11.44878477 -0.1654966 15.75195312 -0.19628906 C18.01870982 -0.21785252 20.28538362 -0.25193537 22.55175781 -0.29882812 C25.82305017 -0.36590096 29.09261848 -0.39330313 32.36450195 -0.41235352 C33.37204025 -0.44018417 34.37957855 -0.46801483 35.41764832 -0.49668884 C41.5209987 -0.47893877 44.8370427 0.3999476 49.23957825 4.72276306 C51.48023729 7.41179138 51.62088945 9.31147433 51.68652344 12.73095703 C51.70581406 13.66920822 51.72510468 14.60745941 51.74497986 15.57414246 C51.80274169 19.87702627 51.85202004 24.1797418 51.8828125 28.48291016 C51.90437595 30.74966685 51.93845881 33.01634065 51.98535156 35.28271484 C52.05242439 38.55400721 52.07982657 41.82357551 52.09887695 45.09545898 C52.12670761 46.10299728 52.15453827 47.11053558 52.18321228 48.14860535 C52.16546221 54.25195573 51.28657583 57.56799973 46.96376038 61.97053528 C44.27473206 64.21119432 42.3750491 64.35184648 38.95556641 64.41748047 C38.01731522 64.43677109 37.07906403 64.45606171 36.11238098 64.47593689 C31.80949716 64.53369872 27.50678164 64.58297707 23.20361328 64.61376953 C20.93685659 64.63533298 18.67018278 64.66941584 16.40380859 64.71630859 C13.13251623 64.78338143 9.86294793 64.8107836 6.59106445 64.82983398 C5.58352615 64.85766464 4.57598785 64.8854953 3.53791809 64.91416931 C-2.56543229 64.89641924 -5.8814763 64.01753287 -10.28401184 59.69471741 C-12.52467088 57.00568909 -12.66532305 55.10600613 -12.73095703 51.68652344 C-12.75024765 50.74827225 -12.76953827 49.81002106 -12.78941345 48.84333801 C-12.84717528 44.5404542 -12.89645363 40.23773867 -12.92724609 35.93457031 C-12.94880955 33.66781362 -12.9828924 31.40113981 -13.02978516 29.13476562 C-13.09685799 25.86347326 -13.12426017 22.59390496 -13.14331055 19.32202148 C-13.1711412 18.31448318 -13.19897186 17.30694489 -13.22764587 16.26887512 C-13.2098958 10.16552474 -12.33100943 6.84948073 -8.00819397 2.44694519 C-5.31916566 0.20628615 -3.4194827 0.06563398 0 0 Z M-7.5222168 8.20874023 C-8.66033469 10.48497602 -8.66015019 11.77458125 -8.68334961 14.30371094 C-8.69295715 15.14831375 -8.7025647 15.99291656 -8.71246338 16.8631134 C-8.71671326 17.77767807 -8.72096313 18.69224274 -8.7253418 19.63452148 C-8.73104187 20.57426315 -8.73674194 21.51400482 -8.74261475 22.48222351 C-8.75207153 24.47365185 -8.75860142 26.46509589 -8.76245117 28.45654297 C-8.77214456 31.49857037 -8.80315652 34.53991872 -8.8347168 37.58178711 C-8.84124804 39.51602789 -8.84649804 41.4502735 -8.8503418 43.38452148 C-8.8626886 44.29301346 -8.8750354 45.20150543 -8.88775635 46.13752747 C-8.87077859 50.96909487 -8.7384493 54.32881827 -5.5222168 58.20874023 C-2.44556356 60.25984239 -1.78985278 60.46181796 1.6862793 60.48339844 C2.53080658 60.49293045 3.37533386 60.50246246 4.24545288 60.51228333 C5.15485626 60.51137192 6.06425964 60.51046051 7.0012207 60.50952148 C7.93954742 60.51380661 8.87787415 60.51809174 9.84463501 60.52250671 C11.83009026 60.52825063 13.81556656 60.52874983 15.80102539 60.52441406 C18.83427011 60.52125949 21.86653448 60.54469379 24.8996582 60.57006836 C26.82934447 60.57234192 28.75903336 60.57304458 30.6887207 60.57202148 C31.59407562 60.58123123 32.49943054 60.59044098 33.43222046 60.59992981 C38.25142818 60.56464923 41.60627927 60.41026647 45.4777832 57.20874023 C47.54026549 54.1150168 47.73311469 53.41673528 47.76831055 49.90844727 C47.78107025 49.04389923 47.79382996 48.1793512 47.80697632 47.28860474 C47.80920197 46.35732758 47.81142761 45.42605042 47.8137207 44.46655273 C47.8203775 43.50602997 47.8270343 42.5455072 47.83389282 41.55587769 C47.84402006 39.52335526 47.84870982 37.49079958 47.84838867 35.45825195 C47.85275698 32.35238647 47.88906252 29.24794753 47.92700195 26.14233398 C47.93287109 24.16707842 47.93683983 22.19181612 47.9387207 20.21655273 C47.95309174 19.28932404 47.96746277 18.36209534 47.98226929 17.4067688 C47.95217521 13.14764471 47.86621575 10.83367929 45.57397461 7.14575195 C42.67922165 4.47081951 41.12638099 4.08127836 37.29101562 4.03173828 C36.42639206 4.01890305 35.56176849 4.00606781 34.67094421 3.99284363 C33.26628654 3.98176323 33.26628654 3.98176323 31.83325195 3.97045898 C30.87131424 3.96238724 29.90937653 3.95431549 28.91828918 3.94599915 C26.87978928 3.93215413 24.84126615 3.92143385 22.80273438 3.91357422 C19.68810984 3.89636635 16.57454803 3.85248447 13.46020508 3.80834961 C11.48039518 3.79822232 9.50057625 3.78970633 7.52075195 3.78295898 C6.5903862 3.7654509 5.66002045 3.74794281 4.70146179 3.72990417 C-0.63900965 3.74777887 -3.7051065 4.06892156 -7.5222168 8.20874023 Z " fill="#FD6464" transform="translate(12.522216796875,-0.208740234375)"/>
<path d="M0 0 C0.99 0 1.98 0 3 0 C3 3.63 3 7.26 3 11 C6.3 11 9.6 11 13 11 C13 12.32 13 13.64 13 15 C9.7 15 6.4 15 3 15 C3 18.3 3 21.6 3 25 C1.68 25 0.36 25 -1 25 C-1 21.7 -1 18.4 -1 15 C-4.3 15 -7.6 15 -11 15 C-11.33 13.68 -11.66 12.36 -12 11 C-8.37 11 -4.74 11 -1 11 C-1.020625 9.370625 -1.04125 7.74125 -1.0625 6.0625 C-1.08386068 4.37500659 -1.07205511 2.68608966 -1 1 C-0.67 0.67 -0.34 0.34 0 0 Z " fill="#FE6565" transform="translate(31,19)"/>
</svg>
