<?xml version="1.0" encoding="UTF-8"?>
<svg version="1.1" xmlns="http://www.w3.org/2000/svg" width="114" height="114">
<path d="M0 0 C0.78052734 0.00322266 1.56105469 0.00644531 2.36523438 0.00976562 C3.53022461 -0.0144043 3.53022461 -0.0144043 4.71875 -0.0390625 C10.44574373 -0.04399531 10.44574373 -0.04399531 12.64916992 1.63037109 C14.73048112 4.38452168 14.35983577 7.45105719 14.30273438 10.75976562 C14.31046875 12.07847656 14.31820312 13.3971875 14.32617188 14.75585938 C13.92773438 18.32226562 13.92773438 18.32226562 12.90429688 20.76757812 C9.83768922 23.17965292 6.65533886 22.86257322 2.92773438 22.75976562 C2.20328125 22.76685547 1.47882812 22.77394531 0.73242188 22.78125 C-4.54464242 22.71796417 -4.54464242 22.71796417 -6.7800293 21.04150391 C-9.03819189 18.03716214 -8.45957449 14.36555276 -8.38476562 10.75976562 C-8.38798828 9.97923828 -8.39121094 9.19871094 -8.39453125 8.39453125 C-8.32675911 1.25381238 -7.14071887 0.06777214 0 0 Z " fill="#FFFFFF" transform="translate(41.072265625,31.677734375)"/>
<path d="M0 0 C0.78052734 0.00128906 1.56105469 0.00257812 2.36523438 0.00390625 C8.15634586 0.09384586 8.15634586 0.09384586 10.4375 2.375 C10.66302341 5.23065359 10.76178763 7.9575351 10.75 10.8125 C10.76611328 11.58916016 10.78222656 12.36582031 10.79882812 13.16601562 C10.80376147 18.89362388 10.80376147 18.89362388 9.12939453 21.09423828 C6.37504618 23.17927601 3.31298312 22.84744038 0 22.8125 C-1.97806641 22.84150391 -1.97806641 22.84150391 -3.99609375 22.87109375 C-7.5625 22.375 -7.5625 22.375 -10.0078125 20.78515625 C-12.1115819 17.52378509 -12.06129429 15.23245414 -12 11.375 C-11.99871094 10.158125 -11.99742188 8.94125 -11.99609375 7.6875 C-10.97543975 -0.10992876 -7.10284179 -0.22399003 0 0 Z " fill="#FFFFFF" transform="translate(43.5625,58.625)"/>
<path d="M0 0 C1.8253125 0.00193359 1.8253125 0.00193359 3.6875 0.00390625 C8.81835489 0.67551579 8.81835489 0.67551579 11 3.4375 C11.35054055 6.43491879 11.46907307 9.01689356 11.375 12 C11.37371094 12.78052734 11.37242188 13.56105469 11.37109375 14.36523438 C11.28115414 20.15634586 11.28115414 20.15634586 9 22.4375 C6.14434641 22.66302341 3.4174649 22.76178763 0.5625 22.75 C-0.60249023 22.77416992 -0.60249023 22.77416992 -1.79101562 22.79882812 C-7.51862388 22.80376147 -7.51862388 22.80376147 -9.71923828 21.12939453 C-11.80427601 18.37504618 -11.47244038 15.31298312 -11.4375 12 C-11.45683594 10.68128906 -11.47617187 9.36257812 -11.49609375 8.00390625 C-11 4.4375 -11 4.4375 -9.41015625 1.9921875 C-6.14878509 -0.1115819 -3.85745414 -0.06129429 0 0 Z " fill="#FFFFFF" transform="translate(70,58.5625)"/>
<path d="M0 0 C1.97806641 -0.02900391 1.97806641 -0.02900391 3.99609375 -0.05859375 C7.5625 0.4375 7.5625 0.4375 10.0078125 2.02734375 C12.1115819 5.28871491 12.06129429 7.58004586 12 11.4375 C11.99871094 12.654375 11.99742188 13.87125 11.99609375 15.125 C11.32448421 20.25585489 11.32448421 20.25585489 8.5625 22.4375 C5.56508121 22.78804055 2.98310644 22.90657307 0 22.8125 C-0.78052734 22.81121094 -1.56105469 22.80992188 -2.36523438 22.80859375 C-8.15634586 22.71865414 -8.15634586 22.71865414 -10.4375 20.4375 C-10.66302341 17.58184641 -10.76178763 14.8549649 -10.75 12 C-10.76611328 11.22333984 -10.78222656 10.44667969 -10.79882812 9.64648438 C-10.80376147 3.91887612 -10.80376147 3.91887612 -9.12939453 1.71826172 C-6.37504618 -0.36677601 -3.31298312 -0.03494038 0 0 Z " fill="#FFFFFF" transform="translate(70.4375,31.5625)"/>
</svg>
