<?xml version="1.0" encoding="UTF-8"?>
<svg version="1.1" xmlns="http://www.w3.org/2000/svg" width="56" height="52">
<path d="M0 0 C1.05960938 0.00676758 1.05960938 0.00676758 2.140625 0.01367188 C3.88545275 0.02546125 5.630237 0.04339676 7.375 0.0625 C7.75718767 1.71864657 8.08895102 3.38707024 8.375 5.0625 C4.80817757 8.62932243 -1.5935703 6.70311216 -6.625 7.0625 C-6.625 19.6025 -6.625 32.1425 -6.625 45.0625 C0.305 45.5575 0.305 45.5575 7.375 46.0625 C7.705 47.7125 8.035 49.3625 8.375 51.0625 C5.45678537 51.19760253 2.54482348 51.2966305 -0.375 51.375 C-1.2 51.41689453 -2.025 51.45878906 -2.875 51.50195312 C-4.07382812 51.52612305 -4.07382812 51.52612305 -5.296875 51.55078125 C-6.0300293 51.57696533 -6.76318359 51.60314941 -7.51855469 51.63012695 C-10.93266886 50.71012053 -11.8721728 49.08139283 -13.625 46.0625 C-14.19250091 43.03550696 -14.18610404 40.07303487 -14.15625 37 C-14.1600769 36.13109131 -14.16390381 35.26218262 -14.16784668 34.36694336 C-14.17056179 32.53465614 -14.16322867 30.7023299 -14.14648438 28.87011719 C-14.12506798 26.07138353 -14.14629855 23.27521667 -14.171875 20.4765625 C-14.16923165 18.69270269 -14.16410652 16.90884447 -14.15625 15.125 C-14.16434692 14.29154053 -14.17244385 13.45808105 -14.18078613 12.59936523 C-14.11594496 8.5659545 -13.93045218 6.54334488 -11.71679688 3.05859375 C-8.02414756 -0.46511083 -4.85671362 -0.05824472 0 0 Z " fill="#FD6363" transform="translate(14.625,0.9375)"/>
<path d="M0 0 C5.2633937 0.36130903 7.78717348 3.11933841 11.3125 6.6875 C11.86228516 7.20505859 12.41207031 7.72261719 12.97851562 8.25585938 C15.52489315 10.7959105 16.85577937 12.42689291 17.74609375 15.96484375 C16.64395104 20.44842953 14.04027171 22.76086703 10.75 25.875 C10.16347656 26.46796875 9.57695313 27.0609375 8.97265625 27.671875 C4.53483223 32 4.53483223 32 0 32 C-0.33 30.68 -0.66 29.36 -1 28 C1.31 25.36 3.62 22.72 6 20 C-6.87 19.505 -6.87 19.505 -20 19 C-20.33 17.35 -20.66 15.7 -21 14 C-19.22509454 12.22509454 -16.62215098 12.76500027 -14.21484375 12.68359375 C-12.46010742 12.62075195 -12.46010742 12.62075195 -10.66992188 12.55664062 C-9.43822266 12.51732422 -8.20652344 12.47800781 -6.9375 12.4375 C-5.08415039 12.37272461 -5.08415039 12.37272461 -3.19335938 12.30664062 C-0.12902665 12.20015802 2.93539073 12.09814576 6 12 C5.48308594 11.46890625 4.96617188 10.9378125 4.43359375 10.390625 C3.44552734 9.33101562 3.44552734 9.33101562 2.4375 8.25 C1.77621094 7.55390625 1.11492188 6.8578125 0.43359375 6.140625 C-1 4 -1 4 -0.71484375 1.734375 C-0.47894531 1.16203125 -0.24304688 0.5896875 0 0 Z " fill="#FD6363" transform="translate(39,11)"/>
</svg>
