<?xml version="1.0" encoding="UTF-8"?>
<svg version="1.1" xmlns="http://www.w3.org/2000/svg" width="68" height="64">
<path d="M0 0 C1.02190933 -0.00619858 2.04381866 -0.01239716 3.09669495 -0.01878357 C5.25431365 -0.02587616 7.41198714 -0.02271757 9.56958008 -0.01000977 C12.86447283 0.00384556 16.1565193 -0.03021258 19.45117188 -0.06835938 C21.55078194 -0.06931072 23.65039555 -0.06745095 25.75 -0.0625 C27.22212196 -0.08238731 27.22212196 -0.08238731 28.72398376 -0.10267639 C33.04367068 -0.04410859 36.45348017 0.0642494 40.02050781 2.67114258 C42.89364337 6.1072574 43.39459983 8.0946322 43.8671875 12.51953125 C43.94511032 13.17918884 44.02303314 13.83884644 44.10331726 14.51849365 C44.34525252 16.61589544 44.5501456 18.71498856 44.75390625 20.81640625 C44.90836225 22.21121043 45.06524298 23.60574834 45.22460938 25 C45.65896854 28.85264653 46.05009397 32.70914724 46.44140625 36.56640625 C46.63168873 38.24376655 46.82393432 39.92090736 47.01953125 41.59765625 C47.41787071 45.34499787 47.73958707 49.0505667 47.87890625 52.81640625 C47.93949219 53.9765625 48.00007813 55.13671875 48.0625 56.33203125 C47.37896256 59.8915847 46.37148053 61.30505295 43.53382874 63.52258301 C38.98634405 65.79113548 33.78788085 65.27328662 28.81640625 65.23046875 C26.98601807 65.2376442 26.98601807 65.2376442 25.11865234 65.2449646 C22.54328113 65.24836126 19.96786666 65.23917548 17.39257812 65.21826172 C13.45474943 65.19149694 9.51977147 65.21802185 5.58203125 65.25 C3.07681664 65.24669587 0.57160379 65.24028957 -1.93359375 65.23046875 C-3.69630615 65.24565048 -3.69630615 65.24565048 -5.49462891 65.26113892 C-14.59903985 65.13084993 -14.59903985 65.13084993 -18.31884766 62.44458008 C-21.0720445 58.90659909 -21.23555956 57.29170494 -21.01953125 52.8515625 C-20.99482758 52.2029274 -20.9701239 51.5542923 -20.94467163 50.88600159 C-20.85199996 48.77576888 -20.71006418 46.67318421 -20.55859375 44.56640625 C-20.49170349 43.50350372 -20.49170349 43.50350372 -20.42346191 42.41912842 C-20.14392897 38.01878299 -19.78899691 33.62876789 -19.38671875 29.23803711 C-19.18098689 26.97523391 -18.99037664 24.71147207 -18.80078125 22.44726562 C-18.67146515 20.98559787 -18.54128902 19.52400589 -18.41015625 18.0625 C-18.29494629 16.76497803 -18.17973633 15.46745605 -18.06103516 14.13061523 C-17.39119613 9.37892433 -16.72093782 5.95027297 -13.59350586 2.22680664 C-9.109699 -0.22628406 -5.03630948 -0.02540009 0 0 Z " fill="#FEFCFC" transform="translate(20.55859375,-0.56640625)"/>
<path d="M0 0 C1.02190933 -0.00619858 2.04381866 -0.01239716 3.09669495 -0.01878357 C5.25431365 -0.02587616 7.41198714 -0.02271757 9.56958008 -0.01000977 C12.86447283 0.00384556 16.1565193 -0.03021258 19.45117188 -0.06835938 C21.55078194 -0.06931072 23.65039555 -0.06745095 25.75 -0.0625 C27.22212196 -0.08238731 27.22212196 -0.08238731 28.72398376 -0.10267639 C33.04367068 -0.04410859 36.45348017 0.0642494 40.02050781 2.67114258 C42.89364337 6.1072574 43.39459983 8.0946322 43.8671875 12.51953125 C43.94511032 13.17918884 44.02303314 13.83884644 44.10331726 14.51849365 C44.34525252 16.61589544 44.5501456 18.71498856 44.75390625 20.81640625 C44.90836225 22.21121043 45.06524298 23.60574834 45.22460938 25 C45.65896854 28.85264653 46.05009397 32.70914724 46.44140625 36.56640625 C46.63168873 38.24376655 46.82393432 39.92090736 47.01953125 41.59765625 C47.41787071 45.34499787 47.73958707 49.0505667 47.87890625 52.81640625 C47.93949219 53.9765625 48.00007813 55.13671875 48.0625 56.33203125 C47.37896256 59.8915847 46.37148053 61.30505295 43.53382874 63.52258301 C38.98634405 65.79113548 33.78788085 65.27328662 28.81640625 65.23046875 C26.98601807 65.2376442 26.98601807 65.2376442 25.11865234 65.2449646 C22.54328113 65.24836126 19.96786666 65.23917548 17.39257812 65.21826172 C13.45474943 65.19149694 9.51977147 65.21802185 5.58203125 65.25 C3.07681664 65.24669587 0.57160379 65.24028957 -1.93359375 65.23046875 C-3.69630615 65.24565048 -3.69630615 65.24565048 -5.49462891 65.26113892 C-14.59903985 65.13084993 -14.59903985 65.13084993 -18.31884766 62.44458008 C-21.0720445 58.90659909 -21.23555956 57.29170494 -21.01953125 52.8515625 C-20.99482758 52.2029274 -20.9701239 51.5542923 -20.94467163 50.88600159 C-20.85199996 48.77576888 -20.71006418 46.67318421 -20.55859375 44.56640625 C-20.49170349 43.50350372 -20.49170349 43.50350372 -20.42346191 42.41912842 C-20.14392897 38.01878299 -19.78899691 33.62876789 -19.38671875 29.23803711 C-19.18098689 26.97523391 -18.99037664 24.71147207 -18.80078125 22.44726562 C-18.67146515 20.98559787 -18.54128902 19.52400589 -18.41015625 18.0625 C-18.29494629 16.76497803 -18.17973633 15.46745605 -18.06103516 14.13061523 C-17.39119613 9.37892433 -16.72093782 5.95027297 -13.59350586 2.22680664 C-9.109699 -0.22628406 -5.03630948 -0.02540009 0 0 Z M-12.55859375 7.56640625 C-13.13544505 9.45024065 -13.13544505 9.45024065 -13.26635742 11.54370117 C-13.34621384 12.33850388 -13.42607025 13.13330658 -13.50834656 13.95219421 C-13.58035782 14.80843887 -13.65236908 15.66468353 -13.7265625 16.546875 C-13.81110184 17.43369461 -13.89564117 18.32051422 -13.98274231 19.23420715 C-14.15937448 21.11234814 -14.32959575 22.99110143 -14.49389648 24.87036133 C-14.74372413 27.7268128 -15.01159698 30.58109212 -15.28320312 33.43554688 C-15.45288828 35.26422437 -15.62154085 37.09299804 -15.7890625 38.921875 C-15.90618843 40.19106026 -15.90618843 40.19106026 -16.02568054 41.48588562 C-16.23058964 43.84514697 -16.40621813 46.20320236 -16.55859375 48.56640625 C-16.60891754 49.30476715 -16.65924133 50.04312805 -16.71109009 50.80386353 C-16.83015377 53.83467472 -16.83132659 56.06460585 -15.36526489 58.76200867 C-12.98360688 61.14066954 -11.74610368 61.07250121 -8.41625977 61.08398438 C-7.36829727 61.09659302 -6.32033478 61.10920166 -5.24061584 61.12219238 C-4.10933762 61.11409546 -2.97805939 61.10599854 -1.8125 61.09765625 C-0.06851173 61.10339661 -0.06851173 61.10339661 1.71070862 61.10925293 C4.17116155 61.11197669 6.6316432 61.10458326 9.09204102 61.08789062 C12.86084568 61.06650871 16.62773961 61.08766866 20.39648438 61.11328125 C22.78516047 61.11063768 25.17383536 61.1055121 27.5625 61.09765625 C28.691754 61.10575317 29.821008 61.1138501 30.98448181 61.12219238 C32.03559647 61.10958374 33.08671112 61.0969751 34.16967773 61.08398438 C35.5550901 61.07921082 35.5550901 61.07921082 36.9684906 61.07434082 C40.22676425 60.40509445 41.42970125 59.17190494 43.44140625 56.56640625 C44.03852036 50.22033303 42.95404022 43.97881357 42.06640625 37.69140625 C41.26163534 31.85681714 40.45846541 26.03232613 39.90234375 20.16796875 C39.82290527 19.34538574 39.7434668 18.52280273 39.66162109 17.67529297 C39.51818498 16.13884091 39.38516393 14.60136956 39.26416016 13.06298828 C38.93344451 9.2215188 38.93344451 9.2215188 37.17883301 5.87680054 C34.97874794 4.21746216 33.75613587 4.18656291 31.01757812 4.17822266 C29.68104187 4.16403793 29.68104187 4.16403793 28.31750488 4.14956665 C26.87836731 4.15867569 26.87836731 4.15867569 25.41015625 4.16796875 C23.92896301 4.16366348 23.92896301 4.16366348 22.41784668 4.15927124 C20.32982815 4.1572295 18.24179055 4.162767 16.15380859 4.17529297 C12.95366742 4.19134475 9.75478929 4.17544766 6.5546875 4.15625 C4.52734096 4.15823241 2.4999952 4.16207604 0.47265625 4.16796875 C-0.4867688 4.16189606 -1.44619385 4.15582336 -2.43469238 4.14956665 C-3.32571655 4.15902313 -4.21674072 4.16847961 -5.13476562 4.17822266 C-6.3103302 4.18180283 -6.3103302 4.18180283 -7.50964355 4.18545532 C-10.12951595 4.67255492 -10.9902963 5.43329294 -12.55859375 7.56640625 Z " fill="#FD6767" transform="translate(20.55859375,-0.56640625)"/>
<path d="M0 0 C0.99 0.33 1.98 0.66 3 1 C3.94921875 3.06640625 3.94921875 3.06640625 4.6875 5.5625 C4.93886719 6.38878906 5.19023437 7.21507812 5.44921875 8.06640625 C5.63097656 8.70449219 5.81273437 9.34257812 6 10 C10.36355645 10.62699646 14.54698983 11.18549066 18.9375 10.625 C22.32273692 7.95784364 22.97100942 4.06576766 24 0 C24.99 0.33 25.98 0.66 27 1 C26.63015313 7.16411455 25.29761357 9.80005946 21 14 C17.05375462 16.28466838 13.50392543 16.47409741 9 16 C5.17157133 13.93853841 2.09454884 11.85837944 0 8 C-0.75 4.3125 -0.75 4.3125 -1 1 C-0.67 0.67 -0.34 0.34 0 0 Z " fill="#FE6D6D" transform="translate(21,18)"/>
</svg>
